STARTFONT 2.1
FONT -DIGITAL-VT220-medium-I-Normal-80col-40-400-150-75-c-400-iso10646-1
SIZE 40 75 75
FONTBOUNDINGBOX 53 40 -6 -8
STARTPROPERTIES 21
FOUNDRY "DIGITAL"
FAMILY_NAME "vt220"
WEIGHT_NAME "medium"
RELATIVE_SETWIDTH 50
SLANT "I"
SETWIDTH_NAME "Normal"
ADD_STYLE_NAME "80col"
PIXEL_SIZE 40
POINT_SIZE 400
RESOLUTION_X 75
RESOLUTION_Y 75
SPACING "c"
CHARSET_REGISTRY "ISO10646"
CHARSET_ENCODING "1"
CAP_HEIGHT 28
X_HEIGHT 20
WEIGHT 10
QUAD_WIDTH 40
FONT_ASCENT 32
FONT_DESCENT 8
AVERAGE_WIDTH 400
ENDPROPERTIES
CHARS 237
STARTCHAR U+00FD
ENCODING 253
SWIDTH 1000 0
DWIDTH 40 0
BBX 53 40 -6 -8
BITMAP
00000000000000
00000000000000
00000000000000
00000000000000
00000000000000
00000000000000
00000000000000
00000000000000
00000000000000
00000000000000
00000000000000
00000000000000
00000000000000
00000000000000
00000000000000
00000000000000
00000000000000
00000000000000
00000000000000
00000000000000
00000000000000
00000000000000
00000000000000
00000000000000
00000000000000
00000000000000
00000000000000
00000000000000
00000000000000
00000000000000
00000000000000
00000000000000
00000000000000
00000000000000
00000000000000
00000000000000
00000000000000
00000000000000
00000000000000
00000000000000
ENDCHAR
STARTCHAR U+25A1
ENCODING 9633
SWIDTH 1000 0
DWIDTH 40 0
BBX 53 40 -6 -8
BITMAP
00000000000000
00000000000000
00000000000000
00000000000000
000FFFFFFFC000
000FFFFFFFC000
001FFFFFFF8000
001FFFFFFF8000
001F80001F8000
003F00003F0000
003F00003F0000
003F00003F0000
007E00007E0000
007E00007E0000
007E00007E0000
00FC0000FC0000
00FC0000FC0000
00FC0000FC0000
01F80001F80000
01F80001F80000
01F80001F80000
03F00003F00000
03F00003F00000
03F00003F00000
07E00007E00000
07E00007E00000
07E00007E00000
0FC0000FC00000
0FFFFFFFC00000
0FFFFFFFC00000
1FFFFFFF800000
1FFFFFFF800000
00000000000000
00000000000000
00000000000000
00000000000000
00000000000000
00000000000000
00000000000000
00000000000000
ENDCHAR
STARTCHAR U+00FE
ENCODING 254
SWIDTH 1000 0
DWIDTH 40 0
BBX 53 40 -6 -8
BITMAP
00000000000000
00000000000000
00000000000000
00000000000000
000FC000000000
000FC000000000
001F8000000000
001F8000000000
001F8000000000
003F0000000000
003F0000000000
003F0000000000
007E7FFFE00000
007E7FFFE00000
007E7FFFE00000
00FCFFFFC00000
00FFC000FC0000
00FFC000FC0000
01FF8001F80000
01FF8001F80000
01FF8001F80000
03FF0003F00000
03FF0003F00000
03FF0003F00000
07E7FFFE000000
07E7FFFE000000
07E7FFFE000000
0FCFFFFC000000
0FC00000000000
0FC00000000000
1F800000000000
1F800000000000
1F800000000000
3F000000000000
3F000000000000
3F000000000000
7E000000000000
7E000000000000
7E000000000000
FC000000000000
ENDCHAR
STARTCHAR U+00FF
ENCODING 255
SWIDTH 1000 0
DWIDTH 40 0
BBX 53 40 -6 -8
BITMAP
00000000000000
00000000000000
00000000000000
00000000000000
0000FC00FC0000
0000FC00FC0000
0001F801F80000
0001F801F80000
00000000000000
00000000000000
00000000000000
00000000000000
007E0007E00000
007E0007E00000
007E0007E00000
00FC000FC00000
00FC000FC00000
00FC000FC00000
01F8001F800000
01F8001F800000
01F801FF800000
03F003FF000000
03F003FF000000
03F003FF000000
007FFE7E000000
007FFE7E000000
007FFE7E000000
00FFFCFC000000
000000FC000000
000000FC000000
000001F8000000
000001F8000000
1F8001F8000000
3F0003F0000000
3F0003F0000000
3F0003F0000000
07FFFE00000000
07FFFE00000000
07FFFE00000000
0FFFFC00000000
ENDCHAR
STARTCHAR U+00FC
ENCODING 252
SWIDTH 1000 0
DWIDTH 40 0
BBX 53 40 -6 -8
BITMAP
00000000000000
00000000000000
00000000000000
00000000000000
0000FC00FC0000
0000FC00FC0000
0001F801F80000
0001F801F80000
00000000000000
00000000000000
00000000000000
00000000000000
007E0007E00000
007E0007E00000
007E0007E00000
00FC000FC00000
00FC000FC00000
00FC000FC00000
01F8001F800000
01F8001F800000
01F8001F800000
03F0003F000000
03F0003F000000
03F0003F000000
07E0007E000000
07E0007E000000
07E0007E000000
0FC000FC000000
00FFFFCFC00000
00FFFFCFC00000
01FFFF9F800000
01FFFF9F800000
00000000000000
00000000000000
00000000000000
00000000000000
00000000000000
00000000000000
00000000000000
00000000000000
ENDCHAR
STARTCHAR U+00FB
ENCODING 251
SWIDTH 1000 0
DWIDTH 40 0
BBX 53 40 -6 -8
BITMAP
000007FFE00000
000007FFE00000
000007FFE00000
00000FFFC00000
0000FC00FC0000
0000FC00FC0000
0001F801F80000
0001F801F80000
00000000000000
00000000000000
00000000000000
00000000000000
007E0007E00000
007E0007E00000
007E0007E00000
00FC000FC00000
00FC000FC00000
00FC000FC00000
01F8001F800000
01F8001F800000
01F8001F800000
03F0003F000000
03F0003F000000
03F0003F000000
07E0007E000000
07E0007E000000
07E0007E000000
0FC000FC000000
00FFFFCFC00000
00FFFFCFC00000
01FFFF9F800000
01FFFF9F800000
00000000000000
00000000000000
00000000000000
00000000000000
00000000000000
00000000000000
00000000000000
00000000000000
ENDCHAR
STARTCHAR U+00FA
ENCODING 250
SWIDTH 1000 0
DWIDTH 40 0
BBX 53 40 -6 -8
BITMAP
00000000000000
00000000000000
00000000000000
00000000000000
000000FFC00000
000000FFC00000
000001FF800000
000001FF800000
0001FF80000000
0003FF00000000
0003FF00000000
0003FF00000000
007E0007E00000
007E0007E00000
007E0007E00000
00FC000FC00000
00FC000FC00000
00FC000FC00000
01F8001F800000
01F8001F800000
01F8001F800000
03F0003F000000
03F0003F000000
03F0003F000000
07E0007E000000
07E0007E000000
07E0007E000000
0FC000FC000000
00FFFFCFC00000
00FFFFCFC00000
01FFFF9F800000
01FFFF9F800000
00000000000000
00000000000000
00000000000000
00000000000000
00000000000000
00000000000000
00000000000000
00000000000000
ENDCHAR
STARTCHAR U+00F9
ENCODING 249
SWIDTH 1000 0
DWIDTH 40 0
BBX 53 40 -6 -8
BITMAP
00000000000000
00000000000000
00000000000000
00000000000000
0000FFC0000000
0000FFC0000000
0001FF80000000
0001FF80000000
000001FF800000
000003FF000000
000003FF000000
000003FF000000
007E0007E00000
007E0007E00000
007E0007E00000
00FC000FC00000
00FC000FC00000
00FC000FC00000
01F8001F800000
01F8001F800000
01F8001F800000
03F0003F000000
03F0003F000000
03F0003F000000
07E0007E000000
07E0007E000000
07E0007E000000
0FC000FC000000
00FFFFCFC00000
00FFFFCFC00000
01FFFF9F800000
01FFFF9F800000
00000000000000
00000000000000
00000000000000
00000000000000
00000000000000
00000000000000
00000000000000
00000000000000
ENDCHAR
STARTCHAR U+00F8
ENCODING 248
SWIDTH 1000 0
DWIDTH 40 0
BBX 53 40 -6 -8
BITMAP
00000000000000
00000000000000
00000000000000
00000000000000
00000000000000
00000000000000
00000000000000
00000000000000
000000001F8000
000000003F0000
000000003F0000
000000003F0000
0007FFFFE00000
0007FFFFE00000
0007FFFFE00000
000FFFFFC00000
00FC00FCFC0000
00FC00FCFC0000
01F801F9F80000
01F801F9F80000
01F81F81F80000
03F03F03F00000
03F03F03F00000
03F03F03F00000
07E7E007E00000
07E7E007E00000
07E7E007E00000
0FCFC00FC00000
00FFFFFC000000
00FFFFFC000000
01FFFFF8000000
01FFFFF8000000
1F800000000000
3F000000000000
3F000000000000
3F000000000000
00000000000000
00000000000000
00000000000000
00000000000000
ENDCHAR
STARTCHAR U+0153
ENCODING 339
SWIDTH 1000 0
DWIDTH 40 0
BBX 53 40 -6 -8
BITMAP
00000000000000
00000000000000
00000000000000
00000000000000
00000000000000
00000000000000
00000000000000
00000000000000
00000000000000
00000000000000
00000000000000
00000000000000
0007FE7FE00000
0007FE7FE00000
0007FE7FE00000
000FFCFFC00000
00FC0FC0FC0000
00FC0FC0FC0000
01F81F81F80000
01F81F81F80000
01F81FFFF80000
03F03FFFF00000
03F03FFFF00000
03F03FFFF00000
07E07E00000000
07E07E00000000
07E07E00000000
0FC0FC00000000
00FFCFFFC00000
00FFCFFFC00000
01FF9FFF800000
01FF9FFF800000
00000000000000
00000000000000
00000000000000
00000000000000
00000000000000
00000000000000
00000000000000
00000000000000
ENDCHAR
STARTCHAR U+00F6
ENCODING 246
SWIDTH 1000 0
DWIDTH 40 0
BBX 53 40 -6 -8
BITMAP
00000000000000
00000000000000
00000000000000
00000000000000
0000FC00FC0000
0000FC00FC0000
0001F801F80000
0001F801F80000
00000000000000
00000000000000
00000000000000
00000000000000
0007FFFFE00000
0007FFFFE00000
0007FFFFE00000
000FFFFFC00000
00FC0000FC0000
00FC0000FC0000
01F80001F80000
01F80001F80000
01F80001F80000
03F00003F00000
03F00003F00000
03F00003F00000
07E00007E00000
07E00007E00000
07E00007E00000
0FC0000FC00000
00FFFFFC000000
00FFFFFC000000
01FFFFF8000000
01FFFFF8000000
00000000000000
00000000000000
00000000000000
00000000000000
00000000000000
00000000000000
00000000000000
00000000000000
ENDCHAR
STARTCHAR U+00F5
ENCODING 245
SWIDTH 1000 0
DWIDTH 40 0
BBX 53 40 -6 -8
BITMAP
00007FE07E0000
00007FE07E0000
00007FE07E0000
0000FFC0FC0000
000FC0FFC00000
000FC0FFC00000
001F81FF800000
001F81FF800000
00000000000000
00000000000000
00000000000000
00000000000000
0007FFFFE00000
0007FFFFE00000
0007FFFFE00000
000FFFFFC00000
00FC0000FC0000
00FC0000FC0000
01F80001F80000
01F80001F80000
01F80001F80000
03F00003F00000
03F00003F00000
03F00003F00000
07E00007E00000
07E00007E00000
07E00007E00000
0FC0000FC00000
00FFFFFC000000
00FFFFFC000000
01FFFFF8000000
01FFFFF8000000
00000000000000
00000000000000
00000000000000
00000000000000
00000000000000
00000000000000
00000000000000
00000000000000
ENDCHAR
STARTCHAR U+00F4
ENCODING 244
SWIDTH 1000 0
DWIDTH 40 0
BBX 53 40 -6 -8
BITMAP
000007FFE00000
000007FFE00000
000007FFE00000
00000FFFC00000
0000FC00FC0000
0000FC00FC0000
0001F801F80000
0001F801F80000
00000000000000
00000000000000
00000000000000
00000000000000
0007FFFFE00000
0007FFFFE00000
0007FFFFE00000
000FFFFFC00000
00FC0000FC0000
00FC0000FC0000
01F80001F80000
01F80001F80000
01F80001F80000
03F00003F00000
03F00003F00000
03F00003F00000
07E00007E00000
07E00007E00000
07E00007E00000
0FC0000FC00000
00FFFFFC000000
00FFFFFC000000
01FFFFF8000000
01FFFFF8000000
00000000000000
00000000000000
00000000000000
00000000000000
00000000000000
00000000000000
00000000000000
00000000000000
ENDCHAR
STARTCHAR U+00F3
ENCODING 243
SWIDTH 1000 0
DWIDTH 40 0
BBX 53 40 -6 -8
BITMAP
00000000000000
00000000000000
00000000000000
00000000000000
000000FFC00000
000000FFC00000
000001FF800000
000001FF800000
0001FF80000000
0003FF00000000
0003FF00000000
0003FF00000000
0007FFFFE00000
0007FFFFE00000
0007FFFFE00000
000FFFFFC00000
00FC0000FC0000
00FC0000FC0000
01F80001F80000
01F80001F80000
01F80001F80000
03F00003F00000
03F00003F00000
03F00003F00000
07E00007E00000
07E00007E00000
07E00007E00000
0FC0000FC00000
00FFFFFC000000
00FFFFFC000000
01FFFFF8000000
01FFFFF8000000
00000000000000
00000000000000
00000000000000
00000000000000
00000000000000
00000000000000
00000000000000
00000000000000
ENDCHAR
STARTCHAR U+00F2
ENCODING 242
SWIDTH 1000 0
DWIDTH 40 0
BBX 53 40 -6 -8
BITMAP
00000000000000
00000000000000
00000000000000
00000000000000
00000FFC000000
00000FFC000000
00001FF8000000
00001FF8000000
0000001FF80000
0000003FF00000
0000003FF00000
0000003FF00000
0007FFFFE00000
0007FFFFE00000
0007FFFFE00000
000FFFFFC00000
00FC0000FC0000
00FC0000FC0000
01F80001F80000
01F80001F80000
01F80001F80000
03F00003F00000
03F00003F00000
03F00003F00000
07E00007E00000
07E00007E00000
07E00007E00000
0FC0000FC00000
00FFFFFC000000
00FFFFFC000000
01FFFFF8000000
01FFFFF8000000
00000000000000
00000000000000
00000000000000
00000000000000
00000000000000
00000000000000
00000000000000
00000000000000
ENDCHAR
STARTCHAR U+00F1
ENCODING 241
SWIDTH 1000 0
DWIDTH 40 0
BBX 53 40 -6 -8
BITMAP
00007FE07E0000
00007FE07E0000
00007FE07E0000
0000FFC0FC0000
000FC0FFC00000
000FC0FFC00000
001F81FF800000
001F81FF800000
00000000000000
00000000000000
00000000000000
00000000000000
007E7FFFE00000
007E7FFFE00000
007E7FFFE00000
00FCFFFFC00000
00FFC000FC0000
00FFC000FC0000
01FF8001F80000
01FF8001F80000
01F80001F80000
03F00003F00000
03F00003F00000
03F00003F00000
07E00007E00000
07E00007E00000
07E00007E00000
0FC0000FC00000
0FC0000FC00000
0FC0000FC00000
1F80001F800000
1F80001F800000
00000000000000
00000000000000
00000000000000
00000000000000
00000000000000
00000000000000
00000000000000
00000000000000
ENDCHAR
STARTCHAR U+00F0
ENCODING 240
SWIDTH 1000 0
DWIDTH 40 0
BBX 53 40 -6 -8
BITMAP
0000007E07E000
0000007E07E000
0000007E07E000
000000FC0FC000
0000000FFC0000
0000000FFC0000
0000001FF80000
0000001FF80000
000001F81F8000
000003F03F0000
000003F03F0000
000003F03F0000
0007FFFE7E0000
0007FFFE7E0000
0007FFFE7E0000
000FFFFCFC0000
00FC000FFC0000
00FC000FFC0000
01F8001FF80000
01F8001FF80000
01F80001F80000
03F00003F00000
03F00003F00000
03F00003F00000
07E0007E000000
07E0007E000000
07E0007E000000
0FC000FC000000
00FFFFC0000000
00FFFFC0000000
01FFFF80000000
01FFFF80000000
00000000000000
00000000000000
00000000000000
00000000000000
00000000000000
00000000000000
00000000000000
00000000000000
ENDCHAR
STARTCHAR U+00EF
ENCODING 239
SWIDTH 1000 0
DWIDTH 40 0
BBX 53 40 -6 -8
BITMAP
00000000000000
00000000000000
00000000000000
00000000000000
0000FC00FC0000
0000FC00FC0000
0001F801F80000
0001F801F80000
00000000000000
00000000000000
00000000000000
00000000000000
00007FE0000000
00007FE0000000
00007FE0000000
0000FFC0000000
00000FC0000000
00000FC0000000
00001F80000000
00001F80000000
00001F80000000
00003F00000000
00003F00000000
00003F00000000
00007E00000000
00007E00000000
00007E00000000
0000FC00000000
00FFFFFC000000
00FFFFFC000000
01FFFFF8000000
01FFFFF8000000
00000000000000
00000000000000
00000000000000
00000000000000
00000000000000
00000000000000
00000000000000
00000000000000
ENDCHAR
STARTCHAR U+00EE
ENCODING 238
SWIDTH 1000 0
DWIDTH 40 0
BBX 53 40 -6 -8
BITMAP
000007FFE00000
000007FFE00000
000007FFE00000
00000FFFC00000
0000FC00FC0000
0000FC00FC0000
0001F801F80000
0001F801F80000
00000000000000
00000000000000
00000000000000
00000000000000
00007FE0000000
00007FE0000000
00007FE0000000
0000FFC0000000
00000FC0000000
00000FC0000000
00001F80000000
00001F80000000
00001F80000000
00003F00000000
00003F00000000
00003F00000000
00007E00000000
00007E00000000
00007E00000000
0000FC00000000
00FFFFFC000000
00FFFFFC000000
01FFFFF8000000
01FFFFF8000000
00000000000000
00000000000000
00000000000000
00000000000000
00000000000000
00000000000000
00000000000000
00000000000000
ENDCHAR
STARTCHAR U+00ED
ENCODING 237
SWIDTH 1000 0
DWIDTH 40 0
BBX 53 40 -6 -8
BITMAP
00000000000000
00000000000000
00000000000000
00000000000000
000000FFC00000
000000FFC00000
000001FF800000
000001FF800000
0001FF80000000
0003FF00000000
0003FF00000000
0003FF00000000
00007FE0000000
00007FE0000000
00007FE0000000
0000FFC0000000
00000FC0000000
00000FC0000000
00001F80000000
00001F80000000
00001F80000000
00003F00000000
00003F00000000
00003F00000000
00007E00000000
00007E00000000
00007E00000000
0000FC00000000
00FFFFFC000000
00FFFFFC000000
01FFFFF8000000
01FFFFF8000000
00000000000000
00000000000000
00000000000000
00000000000000
00000000000000
00000000000000
00000000000000
00000000000000
ENDCHAR
STARTCHAR U+00EC
ENCODING 236
SWIDTH 1000 0
DWIDTH 40 0
BBX 53 40 -6 -8
BITMAP
00000000000000
00000000000000
00000000000000
00000000000000
0000FFC0000000
0000FFC0000000
0001FF80000000
0001FF80000000
000001FF800000
000003FF000000
000003FF000000
000003FF000000
00007FE0000000
00007FE0000000
00007FE0000000
0000FFC0000000
00000FC0000000
00000FC0000000
00001F80000000
00001F80000000
00001F80000000
00003F00000000
00003F00000000
00003F00000000
00007E00000000
00007E00000000
00007E00000000
0000FC00000000
00FFFFFC000000
00FFFFFC000000
01FFFFF8000000
01FFFFF8000000
00000000000000
00000000000000
00000000000000
00000000000000
00000000000000
00000000000000
00000000000000
00000000000000
ENDCHAR
STARTCHAR U+00EB
ENCODING 235
SWIDTH 1000 0
DWIDTH 40 0
BBX 53 40 -6 -8
BITMAP
00000000000000
00000000000000
00000000000000
00000000000000
0000FC00FC0000
0000FC00FC0000
0001F801F80000
0001F801F80000
00000000000000
00000000000000
00000000000000
00000000000000
0007FFFFE00000
0007FFFFE00000
0007FFFFE00000
000FFFFFC00000
00FC0000FC0000
00FC0000FC0000
01F80001F80000
01F80001F80000
01FFFFFFF80000
03FFFFFFF00000
03FFFFFFF00000
03FFFFFFF00000
07E00000000000
07E00000000000
07E00000000000
0FC00000000000
00FFFFFC000000
00FFFFFC000000
01FFFFF8000000
01FFFFF8000000
00000000000000
00000000000000
00000000000000
00000000000000
00000000000000
00000000000000
00000000000000
00000000000000
ENDCHAR
STARTCHAR U+00EA
ENCODING 234
SWIDTH 1000 0
DWIDTH 40 0
BBX 53 40 -6 -8
BITMAP
000007FFE00000
000007FFE00000
000007FFE00000
00000FFFC00000
0000FC00FC0000
0000FC00FC0000
0001F801F80000
0001F801F80000
00000000000000
00000000000000
00000000000000
00000000000000
0007FFFFE00000
0007FFFFE00000
0007FFFFE00000
000FFFFFC00000
00FC0000FC0000
00FC0000FC0000
01F80001F80000
01F80001F80000
01FFFFFFF80000
03FFFFFFF00000
03FFFFFFF00000
03FFFFFFF00000
07E00000000000
07E00000000000
07E00000000000
0FC00000000000
00FFFFFC000000
00FFFFFC000000
01FFFFF8000000
01FFFFF8000000
00000000000000
00000000000000
00000000000000
00000000000000
00000000000000
00000000000000
00000000000000
00000000000000
ENDCHAR
STARTCHAR U+00E9
ENCODING 233
SWIDTH 1000 0
DWIDTH 40 0
BBX 53 40 -6 -8
BITMAP
00000000000000
00000000000000
00000000000000
00000000000000
000000FFC00000
000000FFC00000
000001FF800000
000001FF800000
0001FF80000000
0003FF00000000
0003FF00000000
0003FF00000000
0007FFFFE00000
0007FFFFE00000
0007FFFFE00000
000FFFFFC00000
00FC0000FC0000
00FC0000FC0000
01F80001F80000
01F80001F80000
01FFFFFFF80000
03FFFFFFF00000
03FFFFFFF00000
03FFFFFFF00000
07E00000000000
07E00000000000
07E00000000000
0FC00000000000
00FFFFFC000000
00FFFFFC000000
01FFFFF8000000
01FFFFF8000000
00000000000000
00000000000000
00000000000000
00000000000000
00000000000000
00000000000000
00000000000000
00000000000000
ENDCHAR
STARTCHAR U+00E8
ENCODING 232
SWIDTH 1000 0
DWIDTH 40 0
BBX 53 40 -6 -8
BITMAP
00000000000000
00000000000000
00000000000000
00000000000000
00000FFC000000
00000FFC000000
00001FF8000000
00001FF8000000
0000001FF80000
0000003FF00000
0000003FF00000
0000003FF00000
0007FFFFE00000
0007FFFFE00000
0007FFFFE00000
000FFFFFC00000
00FC0000FC0000
00FC0000FC0000
01F80001F80000
01F80001F80000
01FFFFFFF80000
03FFFFFFF00000
03FFFFFFF00000
03FFFFFFF00000
07E00000000000
07E00000000000
07E00000000000
0FC00000000000
00FFFFFC000000
00FFFFFC000000
01FFFFF8000000
01FFFFF8000000
00000000000000
00000000000000
00000000000000
00000000000000
00000000000000
00000000000000
00000000000000
00000000000000
ENDCHAR
STARTCHAR U+00E7
ENCODING 231
SWIDTH 1000 0
DWIDTH 40 0
BBX 53 40 -6 -8
BITMAP
00000000000000
00000000000000
00000000000000
00000000000000
00000000000000
00000000000000
00000000000000
00000000000000
00000000000000
00000000000000
00000000000000
00000000000000
0007FFFFE00000
0007FFFFE00000
0007FFFFE00000
000FFFFFC00000
00FC0000FC0000
00FC0000FC0000
01F80001F80000
01F80001F80000
01F80000000000
03F00000000000
03F00000000000
03F00000000000
07E00007E00000
07E00007E00000
07E00007E00000
0FC0000FC00000
00FFFFFC000000
00FFFFFC000000
01FFFFF8000000
01FFFFF8000000
00001F80000000
00003F00000000
00003F00000000
00003F00000000
007FFE00000000
007FFE00000000
007FFE00000000
00FFFC00000000
ENDCHAR
STARTCHAR U+00E6
ENCODING 230
SWIDTH 1000 0
DWIDTH 40 0
BBX 53 40 -6 -8
BITMAP
00000000000000
00000000000000
00000000000000
00000000000000
00000000000000
00000000000000
00000000000000
00000000000000
00000000000000
00000000000000
00000000000000
00000000000000
0007FE7FE00000
0007FE7FE00000
0007FE7FE00000
000FFCFFC00000
00000FC0FC0000
00000FC0FC0000
00001F81F80000
00001F81F80000
001FFFFFF80000
003FFFFFF00000
003FFFFFF00000
003FFFFFF00000
07E07E00000000
07E07E00000000
07E07E00000000
0FC0FC00000000
00FFFFFFC00000
00FFFFFFC00000
01FFFFFF800000
01FFFFFF800000
00000000000000
00000000000000
00000000000000
00000000000000
00000000000000
00000000000000
00000000000000
00000000000000
ENDCHAR
STARTCHAR U+00E5
ENCODING 229
SWIDTH 1000 0
DWIDTH 40 0
BBX 53 40 -6 -8
BITMAP
000007FFE00000
000007FFE00000
000007FFE00000
00000FFFC00000
0000FC00FC0000
0000FC00FC0000
0001F801F80000
0001F801F80000
00001FFF800000
00003FFF000000
00003FFF000000
00003FFF000000
0007FFFFE00000
0007FFFFE00000
0007FFFFE00000
000FFFFFC00000
00000000FC0000
00000000FC0000
00000001F80000
00000001F80000
001FFFFFF80000
003FFFFFF00000
003FFFFFF00000
003FFFFFF00000
07E0007FE00000
07E0007FE00000
07E0007FE00000
0FC000FFC00000
00FFFFCFC00000
00FFFFCFC00000
01FFFF9F800000
01FFFF9F800000
00000000000000
00000000000000
00000000000000
00000000000000
00000000000000
00000000000000
00000000000000
00000000000000
ENDCHAR
STARTCHAR U+00E4
ENCODING 228
SWIDTH 1000 0
DWIDTH 40 0
BBX 53 40 -6 -8
BITMAP
00000000000000
00000000000000
00000000000000
00000000000000
0000FC00FC0000
0000FC00FC0000
0001F801F80000
0001F801F80000
00000000000000
00000000000000
00000000000000
00000000000000
0007FFFFE00000
0007FFFFE00000
0007FFFFE00000
000FFFFFC00000
00000000FC0000
00000000FC0000
00000001F80000
00000001F80000
001FFFFFF80000
003FFFFFF00000
003FFFFFF00000
003FFFFFF00000
07E0007FE00000
07E0007FE00000
07E0007FE00000
0FC000FFC00000
00FFFFCFC00000
00FFFFCFC00000
01FFFF9F800000
01FFFF9F800000
00000000000000
00000000000000
00000000000000
00000000000000
00000000000000
00000000000000
00000000000000
00000000000000
ENDCHAR
STARTCHAR U+00E3
ENCODING 227
SWIDTH 1000 0
DWIDTH 40 0
BBX 53 40 -6 -8
BITMAP
000007FE07E000
000007FE07E000
000007FE07E000
00000FFC0FC000
0000FC0FFC0000
0000FC0FFC0000
0001F81FF80000
0001F81FF80000
00000000000000
00000000000000
00000000000000
00000000000000
0007FFFFE00000
0007FFFFE00000
0007FFFFE00000
000FFFFFC00000
00000000FC0000
00000000FC0000
00000001F80000
00000001F80000
001FFFFFF80000
003FFFFFF00000
003FFFFFF00000
003FFFFFF00000
07E0007FE00000
07E0007FE00000
07E0007FE00000
0FC000FFC00000
00FFFFCFC00000
00FFFFCFC00000
01FFFF9F800000
01FFFF9F800000
00000000000000
00000000000000
00000000000000
00000000000000
00000000000000
00000000000000
00000000000000
00000000000000
ENDCHAR
STARTCHAR U+00E2
ENCODING 226
SWIDTH 1000 0
DWIDTH 40 0
BBX 53 40 -6 -8
BITMAP
000007FFE00000
000007FFE00000
000007FFE00000
00000FFFC00000
0000FC00FC0000
0000FC00FC0000
0001F801F80000
0001F801F80000
00000000000000
00000000000000
00000000000000
00000000000000
0007FFFFE00000
0007FFFFE00000
0007FFFFE00000
000FFFFFC00000
00000000FC0000
00000000FC0000
00000001F80000
00000001F80000
001FFFFFF80000
003FFFFFF00000
003FFFFFF00000
003FFFFFF00000
07E0007FE00000
07E0007FE00000
07E0007FE00000
0FC000FFC00000
00FFFFCFC00000
00FFFFCFC00000
01FFFF9F800000
01FFFF9F800000
00000000000000
00000000000000
00000000000000
00000000000000
00000000000000
00000000000000
00000000000000
00000000000000
ENDCHAR
STARTCHAR U+00E1
ENCODING 225
SWIDTH 1000 0
DWIDTH 40 0
BBX 53 40 -6 -8
BITMAP
00000000000000
00000000000000
00000000000000
00000000000000
000000FFC00000
000000FFC00000
000001FF800000
000001FF800000
0001FF80000000
0003FF00000000
0003FF00000000
0003FF00000000
0007FFFFE00000
0007FFFFE00000
0007FFFFE00000
000FFFFFC00000
00000000FC0000
00000000FC0000
00000001F80000
00000001F80000
001FFFFFF80000
003FFFFFF00000
003FFFFFF00000
003FFFFFF00000
07E0007FE00000
07E0007FE00000
07E0007FE00000
0FC000FFC00000
00FFFFCFC00000
00FFFFCFC00000
01FFFF9F800000
01FFFF9F800000
00000000000000
00000000000000
00000000000000
00000000000000
00000000000000
00000000000000
00000000000000
00000000000000
ENDCHAR
STARTCHAR U+00E0
ENCODING 224
SWIDTH 1000 0
DWIDTH 40 0
BBX 53 40 -6 -8
BITMAP
00000000000000
00000000000000
00000000000000
00000000000000
00000FFC000000
00000FFC000000
00001FF8000000
00001FF8000000
0000001FF80000
0000003FF00000
0000003FF00000
0000003FF00000
0007FFFFE00000
0007FFFFE00000
0007FFFFE00000
000FFFFFC00000
00000000FC0000
00000000FC0000
00000001F80000
00000001F80000
001FFFFFF80000
003FFFFFF00000
003FFFFFF00000
003FFFFFF00000
07E0007FE00000
07E0007FE00000
07E0007FE00000
0FC000FFC00000
00FFFFCFC00000
00FFFFCFC00000
01FFFF9F800000
01FFFF9F800000
00000000000000
00000000000000
00000000000000
00000000000000
00000000000000
00000000000000
00000000000000
00000000000000
ENDCHAR
STARTCHAR U+00DF
ENCODING 223
SWIDTH 1000 0
DWIDTH 40 0
BBX 53 40 -6 -8
BITMAP
00000000000000
00000000000000
00000000000000
00000000000000
00000FFFC00000
00000FFFC00000
00001FFF800000
00001FFF800000
0001F801F80000
0003F003F00000
0003F003F00000
0003F003F00000
007E0007E00000
007E0007E00000
007E0007E00000
00FC000FC00000
00FCFFFC000000
00FCFFFC000000
01F9FFF8000000
01F9FFF8000000
01F8001F800000
03F0003F000000
03F0003F000000
03F0003F000000
07E7E007E00000
07E7E007E00000
07E7E007E00000
0FCFC00FC00000
0FC0FFFC000000
0FC0FFFC000000
1F81FFF8000000
1F81FFF8000000
1F800000000000
3F000000000000
3F000000000000
3F000000000000
00000000000000
00000000000000
00000000000000
00000000000000
ENDCHAR
STARTCHAR U+00DE
ENCODING 222
SWIDTH 1000 0
DWIDTH 40 0
BBX 53 40 -6 -8
BITMAP
00000000000000
00000000000000
00000000000000
00000000000000
000FFC00000000
000FFC00000000
001FF800000000
001FF800000000
0001FFFFF80000
0003FFFFF00000
0003FFFFF00000
0003FFFFF00000
0007E0007E0000
0007E0007E0000
0007E0007E0000
000FC000FC0000
000FC000FC0000
000FC000FC0000
001F8001F80000
001F8001F80000
001F8001F80000
003F0003F00000
003F0003F00000
003F0003F00000
007FFFFE000000
007FFFFE000000
007FFFFE000000
00FFFFFC000000
0FFC0000000000
0FFC0000000000
1FF80000000000
1FF80000000000
00000000000000
00000000000000
00000000000000
00000000000000
00000000000000
00000000000000
00000000000000
00000000000000
ENDCHAR
STARTCHAR U+0178
ENCODING 376
SWIDTH 1000 0
DWIDTH 40 0
BBX 53 40 -6 -8
BITMAP
00007E007E0000
00007E007E0000
00007E007E0000
0000FC00FC0000
00000000000000
00000000000000
00000000000000
00000000000000
001F80001F8000
003F00003F0000
003F00003F0000
003F00003F0000
0007E007E00000
0007E007E00000
0007E007E00000
000FC00FC00000
0000FCFC000000
0000FCFC000000
0001F9F8000000
0001F9F8000000
00001F80000000
00003F00000000
00003F00000000
00003F00000000
00007E00000000
00007E00000000
00007E00000000
0000FC00000000
0000FC00000000
0000FC00000000
0001F800000000
0001F800000000
00000000000000
00000000000000
00000000000000
00000000000000
00000000000000
00000000000000
00000000000000
00000000000000
ENDCHAR
STARTCHAR U+00DC
ENCODING 220
SWIDTH 1000 0
DWIDTH 40 0
BBX 53 40 -6 -8
BITMAP
00007E007E0000
00007E007E0000
00007E007E0000
0000FC00FC0000
00000000000000
00000000000000
00000000000000
00000000000000
001F80001F8000
003F00003F0000
003F00003F0000
003F00003F0000
007E00007E0000
007E00007E0000
007E00007E0000
00FC0000FC0000
00FC0000FC0000
00FC0000FC0000
01F80001F80000
01F80001F80000
01F80001F80000
03F00003F00000
03F00003F00000
03F00003F00000
07E00007E00000
07E00007E00000
07E00007E00000
0FC0000FC00000
00FFFFFC000000
00FFFFFC000000
01FFFFF8000000
01FFFFF8000000
00000000000000
00000000000000
00000000000000
00000000000000
00000000000000
00000000000000
00000000000000
00000000000000
ENDCHAR
STARTCHAR U+00DB
ENCODING 219
SWIDTH 1000 0
DWIDTH 40 0
BBX 53 40 -6 -8
BITMAP
0000007E000000
0000007E000000
0000007E000000
000000FC000000
00000FCFC00000
00000FCFC00000
00001F9F800000
00001F9F800000
001F80001F8000
003F00003F0000
003F00003F0000
003F00003F0000
007E00007E0000
007E00007E0000
007E00007E0000
00FC0000FC0000
00FC0000FC0000
00FC0000FC0000
01F80001F80000
01F80001F80000
01F80001F80000
03F00003F00000
03F00003F00000
03F00003F00000
07E00007E00000
07E00007E00000
07E00007E00000
0FC0000FC00000
00FFFFFC000000
00FFFFFC000000
01FFFFF8000000
01FFFFF8000000
00000000000000
00000000000000
00000000000000
00000000000000
00000000000000
00000000000000
00000000000000
00000000000000
ENDCHAR
STARTCHAR U+00DA
ENCODING 218
SWIDTH 1000 0
DWIDTH 40 0
BBX 53 40 -6 -8
BITMAP
00000007FE0000
00000007FE0000
00000007FE0000
0000000FFC0000
00000FFC000000
00000FFC000000
00001FF8000000
00001FF8000000
001F80001F8000
003F00003F0000
003F00003F0000
003F00003F0000
007E00007E0000
007E00007E0000
007E00007E0000
00FC0000FC0000
00FC0000FC0000
00FC0000FC0000
01F80001F80000
01F80001F80000
01F80001F80000
03F00003F00000
03F00003F00000
03F00003F00000
07E00007E00000
07E00007E00000
07E00007E00000
0FC0000FC00000
00FFFFFC000000
00FFFFFC000000
01FFFFF8000000
01FFFFF8000000
00000000000000
00000000000000
00000000000000
00000000000000
00000000000000
00000000000000
00000000000000
00000000000000
ENDCHAR
STARTCHAR U+00D9
ENCODING 217
SWIDTH 1000 0
DWIDTH 40 0
BBX 53 40 -6 -8
BITMAP
00007FE0000000
00007FE0000000
00007FE0000000
0000FFC0000000
000000FFC00000
000000FFC00000
000001FF800000
000001FF800000
001F80001F8000
003F00003F0000
003F00003F0000
003F00003F0000
007E00007E0000
007E00007E0000
007E00007E0000
00FC0000FC0000
00FC0000FC0000
00FC0000FC0000
01F80001F80000
01F80001F80000
01F80001F80000
03F00003F00000
03F00003F00000
03F00003F00000
07E00007E00000
07E00007E00000
07E00007E00000
0FC0000FC00000
00FFFFFC000000
00FFFFFC000000
01FFFFF8000000
01FFFFF8000000
00000000000000
00000000000000
00000000000000
00000000000000
00000000000000
00000000000000
00000000000000
00000000000000
ENDCHAR
STARTCHAR U+00D8
ENCODING 216
SWIDTH 1000 0
DWIDTH 40 0
BBX 53 40 -6 -8
BITMAP
0000000007E000
0000000007E000
0000000007E000
000000000FC000
0000FFFFFC0000
0000FFFFFC0000
0001FFFFF80000
0001FFFFF80000
001F8001FF8000
003F0003FF0000
003F0003FF0000
003F0003FF0000
007E007E7E0000
007E007E7E0000
007E007E7E0000
00FC00FCFC0000
00FC0FC0FC0000
00FC0FC0FC0000
01F81F81F80000
01F81F81F80000
01F9F801F80000
03F3F003F00000
03F3F003F00000
03F3F003F00000
07FE0007E00000
07FE0007E00000
07FE0007E00000
0FFC000FC00000
00FFFFFC000000
00FFFFFC000000
01FFFFF8000000
01FFFFF8000000
1F800000000000
3F000000000000
3F000000000000
3F000000000000
00000000000000
00000000000000
00000000000000
00000000000000
ENDCHAR
STARTCHAR U+0152
ENCODING 338
SWIDTH 1000 0
DWIDTH 40 0
BBX 53 40 -6 -8
BITMAP
00000000000000
00000000000000
00000000000000
00000000000000
0000FFCFFFC000
0000FFCFFFC000
0001FF9FFF8000
0001FF9FFF8000
001F81F8000000
003F03F0000000
003F03F0000000
003F03F0000000
007E07E0000000
007E07E0000000
007E07E0000000
00FC0FC0000000
00FC0FFFC00000
00FC0FFFC00000
01F81FFF800000
01F81FFF800000
01F81F80000000
03F03F00000000
03F03F00000000
03F03F00000000
07E07E00000000
07E07E00000000
07E07E00000000
0FC0FC00000000
00FFCFFFC00000
00FFCFFFC00000
01FF9FFF800000
01FF9FFF800000
00000000000000
00000000000000
00000000000000
00000000000000
00000000000000
00000000000000
00000000000000
00000000000000
ENDCHAR
STARTCHAR U+00D6
ENCODING 214
SWIDTH 1000 0
DWIDTH 40 0
BBX 53 40 -6 -8
BITMAP
00007E007E0000
00007E007E0000
00007E007E0000
0000FC00FC0000
00000000000000
00000000000000
00000000000000
00000000000000
0001FFFFF80000
0003FFFFF00000
0003FFFFF00000
0003FFFFF00000
007E00007E0000
007E00007E0000
007E00007E0000
00FC0000FC0000
00FC0000FC0000
00FC0000FC0000
01F80001F80000
01F80001F80000
01F80001F80000
03F00003F00000
03F00003F00000
03F00003F00000
07E00007E00000
07E00007E00000
07E00007E00000
0FC0000FC00000
00FFFFFC000000
00FFFFFC000000
01FFFFF8000000
01FFFFF8000000
00000000000000
00000000000000
00000000000000
00000000000000
00000000000000
00000000000000
00000000000000
00000000000000
ENDCHAR
STARTCHAR U+00D5
ENCODING 213
SWIDTH 1000 0
DWIDTH 40 0
BBX 53 40 -6 -8
BITMAP
00007FE07E0000
00007FE07E0000
00007FE07E0000
0000FFC0FC0000
000FC0FFC00000
000FC0FFC00000
001F81FF800000
001F81FF800000
0001FFFFF80000
0003FFFFF00000
0003FFFFF00000
0003FFFFF00000
007E00007E0000
007E00007E0000
007E00007E0000
00FC0000FC0000
00FC0000FC0000
00FC0000FC0000
01F80001F80000
01F80001F80000
01F80001F80000
03F00003F00000
03F00003F00000
03F00003F00000
07E00007E00000
07E00007E00000
07E00007E00000
0FC0000FC00000
00FFFFFC000000
00FFFFFC000000
01FFFFF8000000
01FFFFF8000000
00000000000000
00000000000000
00000000000000
00000000000000
00000000000000
00000000000000
00000000000000
00000000000000
ENDCHAR
STARTCHAR U+00D4
ENCODING 212
SWIDTH 1000 0
DWIDTH 40 0
BBX 53 40 -6 -8
BITMAP
000007FFE00000
000007FFE00000
000007FFE00000
00000FFFC00000
0000FC00FC0000
0000FC00FC0000
0001F801F80000
0001F801F80000
0001FFFFF80000
0003FFFFF00000
0003FFFFF00000
0003FFFFF00000
007E00007E0000
007E00007E0000
007E00007E0000
00FC0000FC0000
00FC0000FC0000
00FC0000FC0000
01F80001F80000
01F80001F80000
01F80001F80000
03F00003F00000
03F00003F00000
03F00003F00000
07E00007E00000
07E00007E00000
07E00007E00000
0FC0000FC00000
00FFFFFC000000
00FFFFFC000000
01FFFFF8000000
01FFFFF8000000
00000000000000
00000000000000
00000000000000
00000000000000
00000000000000
00000000000000
00000000000000
00000000000000
ENDCHAR
STARTCHAR U+00D3
ENCODING 211
SWIDTH 1000 0
DWIDTH 40 0
BBX 53 40 -6 -8
BITMAP
0000007FE00000
0000007FE00000
0000007FE00000
000000FFC00000
0000FFC0000000
0000FFC0000000
0001FF80000000
0001FF80000000
0001FFFFF80000
0003FFFFF00000
0003FFFFF00000
0003FFFFF00000
007E00007E0000
007E00007E0000
007E00007E0000
00FC0000FC0000
00FC0000FC0000
00FC0000FC0000
01F80001F80000
01F80001F80000
01F80001F80000
03F00003F00000
03F00003F00000
03F00003F00000
07E00007E00000
07E00007E00000
07E00007E00000
0FC0000FC00000
00FFFFFC000000
00FFFFFC000000
01FFFFF8000000
01FFFFF8000000
00000000000000
00000000000000
00000000000000
00000000000000
00000000000000
00000000000000
00000000000000
00000000000000
ENDCHAR
STARTCHAR U+00D2
ENCODING 210
SWIDTH 1000 0
DWIDTH 40 0
BBX 53 40 -6 -8
BITMAP
000007FE000000
000007FE000000
000007FE000000
00000FFC000000
0000000FFC0000
0000000FFC0000
0000001FF80000
0000001FF80000
0001FFFFF80000
0003FFFFF00000
0003FFFFF00000
0003FFFFF00000
007E00007E0000
007E00007E0000
007E00007E0000
00FC0000FC0000
00FC0000FC0000
00FC0000FC0000
01F80001F80000
01F80001F80000
01F80001F80000
03F00003F00000
03F00003F00000
03F00003F00000
07E00007E00000
07E00007E00000
07E00007E00000
0FC0000FC00000
00FFFFFC000000
00FFFFFC000000
01FFFFF8000000
01FFFFF8000000
00000000000000
00000000000000
00000000000000
00000000000000
00000000000000
00000000000000
00000000000000
00000000000000
ENDCHAR
STARTCHAR U+00D1
ENCODING 209
SWIDTH 1000 0
DWIDTH 40 0
BBX 53 40 -6 -8
BITMAP
000007FE07E000
000007FE07E000
000007FE07E000
00000FFC0FC000
0000FC0FFC0000
0000FC0FFC0000
0001F81FF80000
0001F81FF80000
001FF8001F8000
003FF0003F0000
003FF0003F0000
003FF0003F0000
007E7E007E0000
007E7E007E0000
007E7E007E0000
00FCFC00FC0000
00FC0FC0FC0000
00FC0FC0FC0000
01F81F81F80000
01F81F81F80000
01F801F9F80000
03F003F3F00000
03F003F3F00000
03F003F3F00000
07E0007FE00000
07E0007FE00000
07E0007FE00000
0FC000FFC00000
0FC0000FC00000
0FC0000FC00000
1F80001F800000
1F80001F800000
00000000000000
00000000000000
00000000000000
00000000000000
00000000000000
00000000000000
00000000000000
00000000000000
ENDCHAR
STARTCHAR U+00D0
ENCODING 208
SWIDTH 1000 0
DWIDTH 40 0
BBX 53 40 -6 -8
BITMAP
00000000000000
00000000000000
00000000000000
00000000000000
000FFFFFC00000
000FFFFFC00000
001FFFFF800000
001FFFFF800000
0001F801F80000
0003F003F00000
0003F003F00000
0003F003F00000
0007E0007E0000
0007E0007E0000
0007E0007E0000
000FC000FC0000
00FFFFC0FC0000
00FFFFC0FC0000
01FFFF81F80000
01FFFF81F80000
001F8001F80000
003F0003F00000
003F0003F00000
003F0003F00000
007E007E000000
007E007E000000
007E007E000000
00FC00FC000000
0FFFFFC0000000
0FFFFFC0000000
1FFFFF80000000
1FFFFF80000000
00000000000000
00000000000000
00000000000000
00000000000000
00000000000000
00000000000000
00000000000000
00000000000000
ENDCHAR
STARTCHAR U+00CF
ENCODING 207
SWIDTH 1000 0
DWIDTH 40 0
BBX 53 40 -6 -8
BITMAP
00007E007E0000
00007E007E0000
00007E007E0000
0000FC00FC0000
00000000000000
00000000000000
00000000000000
00000000000000
0001FFFFF80000
0003FFFFF00000
0003FFFFF00000
0003FFFFF00000
000007E0000000
000007E0000000
000007E0000000
00000FC0000000
00000FC0000000
00000FC0000000
00001F80000000
00001F80000000
00001F80000000
00003F00000000
00003F00000000
00003F00000000
00007E00000000
00007E00000000
00007E00000000
0000FC00000000
00FFFFFC000000
00FFFFFC000000
01FFFFF8000000
01FFFFF8000000
00000000000000
00000000000000
00000000000000
00000000000000
00000000000000
00000000000000
00000000000000
00000000000000
ENDCHAR
STARTCHAR U+00CE
ENCODING 206
SWIDTH 1000 0
DWIDTH 40 0
BBX 53 40 -6 -8
BITMAP
000007FFE00000
000007FFE00000
000007FFE00000
00000FFFC00000
0000FC00FC0000
0000FC00FC0000
0001F801F80000
0001F801F80000
0001FFFFF80000
0003FFFFF00000
0003FFFFF00000
0003FFFFF00000
000007E0000000
000007E0000000
000007E0000000
00000FC0000000
00000FC0000000
00000FC0000000
00001F80000000
00001F80000000
00001F80000000
00003F00000000
00003F00000000
00003F00000000
00007E00000000
00007E00000000
00007E00000000
0000FC00000000
00FFFFFC000000
00FFFFFC000000
01FFFFF8000000
01FFFFF8000000
00000000000000
00000000000000
00000000000000
00000000000000
00000000000000
00000000000000
00000000000000
00000000000000
ENDCHAR
STARTCHAR U+00CD
ENCODING 205
SWIDTH 1000 0
DWIDTH 40 0
BBX 53 40 -6 -8
BITMAP
0000007FE00000
0000007FE00000
0000007FE00000
000000FFC00000
0000FFC0000000
0000FFC0000000
0001FF80000000
0001FF80000000
0001FFFFF80000
0003FFFFF00000
0003FFFFF00000
0003FFFFF00000
000007E0000000
000007E0000000
000007E0000000
00000FC0000000
00000FC0000000
00000FC0000000
00001F80000000
00001F80000000
00001F80000000
00003F00000000
00003F00000000
00003F00000000
00007E00000000
00007E00000000
00007E00000000
0000FC00000000
00FFFFFC000000
00FFFFFC000000
01FFFFF8000000
01FFFFF8000000
00000000000000
00000000000000
00000000000000
00000000000000
00000000000000
00000000000000
00000000000000
00000000000000
ENDCHAR
STARTCHAR U+00CC
ENCODING 204
SWIDTH 1000 0
DWIDTH 40 0
BBX 53 40 -6 -8
BITMAP
000007FE000000
000007FE000000
000007FE000000
00000FFC000000
0000000FFC0000
0000000FFC0000
0000001FF80000
0000001FF80000
0001FFFFF80000
0003FFFFF00000
0003FFFFF00000
0003FFFFF00000
000007E0000000
000007E0000000
000007E0000000
00000FC0000000
00000FC0000000
00000FC0000000
00001F80000000
00001F80000000
00001F80000000
00003F00000000
00003F00000000
00003F00000000
00007E00000000
00007E00000000
00007E00000000
0000FC00000000
00FFFFFC000000
00FFFFFC000000
01FFFFF8000000
01FFFFF8000000
00000000000000
00000000000000
00000000000000
00000000000000
00000000000000
00000000000000
00000000000000
00000000000000
ENDCHAR
STARTCHAR U+00CB
ENCODING 203
SWIDTH 1000 0
DWIDTH 40 0
BBX 53 40 -6 -8
BITMAP
00007E007E0000
00007E007E0000
00007E007E0000
0000FC00FC0000
00000000000000
00000000000000
00000000000000
00000000000000
001FFFFFFF8000
003FFFFFFF0000
003FFFFFFF0000
003FFFFFFF0000
007E0000000000
007E0000000000
007E0000000000
00FC0000000000
00FFFFFC000000
00FFFFFC000000
01FFFFF8000000
01FFFFF8000000
01F80000000000
03F00000000000
03F00000000000
03F00000000000
07E00000000000
07E00000000000
07E00000000000
0FC00000000000
0FFFFFFFC00000
0FFFFFFFC00000
1FFFFFFF800000
1FFFFFFF800000
00000000000000
00000000000000
00000000000000
00000000000000
00000000000000
00000000000000
00000000000000
00000000000000
ENDCHAR
STARTCHAR U+00CA
ENCODING 202
SWIDTH 1000 0
DWIDTH 40 0
BBX 53 40 -6 -8
BITMAP
000007FFE00000
000007FFE00000
000007FFE00000
00000FFFC00000
0000FC00FC0000
0000FC00FC0000
0001F801F80000
0001F801F80000
001FFFFFFF8000
003FFFFFFF0000
003FFFFFFF0000
003FFFFFFF0000
007E0000000000
007E0000000000
007E0000000000
00FC0000000000
00FFFFC0000000
00FFFFC0000000
01FFFF80000000
01FFFF80000000
01F80000000000
03F00000000000
03F00000000000
03F00000000000
07E00000000000
07E00000000000
07E00000000000
0FC00000000000
0FFFFFFFC00000
0FFFFFFFC00000
1FFFFFFF800000
1FFFFFFF800000
00000000000000
00000000000000
00000000000000
00000000000000
00000000000000
00000000000000
00000000000000
00000000000000
ENDCHAR
STARTCHAR U+00C9
ENCODING 201
SWIDTH 1000 0
DWIDTH 40 0
BBX 53 40 -6 -8
BITMAP
00000007FE0000
00000007FE0000
00000007FE0000
0000000FFC0000
00000FFC000000
00000FFC000000
00001FF8000000
00001FF8000000
001FFFFFFF8000
003FFFFFFF0000
003FFFFFFF0000
003FFFFFFF0000
007E0000000000
007E0000000000
007E0000000000
00FC0000000000
00FFFFFC000000
00FFFFFC000000
01FFFFF8000000
01FFFFF8000000
01F80000000000
03F00000000000
03F00000000000
03F00000000000
07E00000000000
07E00000000000
07E00000000000
0FC00000000000
0FFFFFFFC00000
0FFFFFFFC00000
1FFFFFFF800000
1FFFFFFF800000
00000000000000
00000000000000
00000000000000
00000000000000
00000000000000
00000000000000
00000000000000
00000000000000
ENDCHAR
STARTCHAR U+00C8
ENCODING 200
SWIDTH 1000 0
DWIDTH 40 0
BBX 53 40 -6 -8
BITMAP
00007FE0000000
00007FE0000000
00007FE0000000
0000FFC0000000
000000FFC00000
000000FFC00000
000001FF800000
000001FF800000
001FFFFFFF8000
003FFFFFFF0000
003FFFFFFF0000
003FFFFFFF0000
007E0000000000
007E0000000000
007E0000000000
00FC0000000000
00FFFFFC000000
00FFFFFC000000
01FFFFF8000000
01FFFFF8000000
01F80000000000
03F00000000000
03F00000000000
03F00000000000
07E00000000000
07E00000000000
07E00000000000
0FC00000000000
0FFFFFFFC00000
0FFFFFFFC00000
1FFFFFFF800000
1FFFFFFF800000
00000000000000
00000000000000
00000000000000
00000000000000
00000000000000
00000000000000
00000000000000
00000000000000
ENDCHAR
STARTCHAR U+00C7
ENCODING 199
SWIDTH 1000 0
DWIDTH 40 0
BBX 53 40 -6 -8
BITMAP
00000000000000
00000000000000
00000000000000
00000000000000
00000FFFFC0000
00000FFFFC0000
00001FFFF80000
00001FFFF80000
0001F8001F8000
0003F0003F0000
0003F0003F0000
0003F0003F0000
007E0000000000
007E0000000000
007E0000000000
00FC0000000000
00FC0000000000
00FC0000000000
01F80000000000
01F80000000000
01F80000000000
03F00000000000
03F00000000000
03F00000000000
007E0007E00000
007E0007E00000
007E0007E00000
00FC000FC00000
000FFFFC000000
000FFFFC000000
001FFFF8000000
001FFFF8000000
00001F80000000
00003F00000000
00003F00000000
00003F00000000
007FFE00000000
007FFE00000000
007FFE00000000
00FFFC00000000
ENDCHAR
STARTCHAR U+00C6
ENCODING 198
SWIDTH 1000 0
DWIDTH 40 0
BBX 53 40 -6 -8
BITMAP
00000000000000
00000000000000
00000000000000
00000000000000
00000FFFFFC000
00000FFFFFC000
00001FFFFF8000
00001FFFFF8000
0001F9F8000000
0003F3F0000000
0003F3F0000000
0003F3F0000000
007E07E0000000
007E07E0000000
007E07E0000000
00FC0FC0000000
00FC0FFFC00000
00FC0FFFC00000
01F81FFF800000
01F81FFF800000
01FFFF80000000
03FFFF00000000
03FFFF00000000
03FFFF00000000
07E07E00000000
07E07E00000000
07E07E00000000
0FC0FC00000000
0FC0FFFFC00000
0FC0FFFFC00000
1F81FFFF800000
1F81FFFF800000
00000000000000
00000000000000
00000000000000
00000000000000
00000000000000
00000000000000
00000000000000
00000000000000
ENDCHAR
STARTCHAR U+00C5
ENCODING 197
SWIDTH 1000 0
DWIDTH 40 0
BBX 53 40 -6 -8
BITMAP
000007FFE00000
000007FFE00000
000007FFE00000
00000FFFC00000
0000FC00FC0000
0000FC00FC0000
0001F801F80000
0001F801F80000
00001FFF800000
00003FFF000000
00003FFF000000
00003FFF000000
00007FFE000000
00007FFE000000
00007FFE000000
0000FFFC000000
000FC00FC00000
000FC00FC00000
001F801F800000
001F801F800000
01FFFFFFF80000
03FFFFFFF00000
03FFFFFFF00000
03FFFFFFF00000
07E00007E00000
07E00007E00000
07E00007E00000
0FC0000FC00000
0FC0000FC00000
0FC0000FC00000
1F80001F800000
1F80001F800000
00000000000000
00000000000000
00000000000000
00000000000000
00000000000000
00000000000000
00000000000000
00000000000000
ENDCHAR
STARTCHAR U+00C4
ENCODING 196
SWIDTH 1000 0
DWIDTH 40 0
BBX 53 40 -6 -8
BITMAP
00007E007E0000
00007E007E0000
00007E007E0000
0000FC00FC0000
00000000000000
00000000000000
00000000000000
00000000000000
000001F8000000
000003F0000000
000003F0000000
000003F0000000
00007E7E000000
00007E7E000000
00007E7E000000
0000FCFC000000
000FC00FC00000
000FC00FC00000
001F801F800000
001F801F800000
01FFFFFFF80000
03FFFFFFF00000
03FFFFFFF00000
03FFFFFFF00000
07E00007E00000
07E00007E00000
07E00007E00000
0FC0000FC00000
0FC0000FC00000
0FC0000FC00000
1F80001F800000
1F80001F800000
00000000000000
00000000000000
00000000000000
00000000000000
00000000000000
00000000000000
00000000000000
00000000000000
ENDCHAR
STARTCHAR U+00C3
ENCODING 195
SWIDTH 1000 0
DWIDTH 40 0
BBX 53 40 -6 -8
BITMAP
000007FE07E000
000007FE07E000
000007FE07E000
00000FFC0FC000
0000FC0FFC0000
0000FC0FFC0000
0001F81FF80000
0001F81FF80000
000001F8000000
000003F0000000
000003F0000000
000003F0000000
00007E7E000000
00007E7E000000
00007E7E000000
0000FCFC000000
000FC00FC00000
000FC00FC00000
001F801F800000
001F801F800000
01FFFFFFF80000
03FFFFFFF00000
03FFFFFFF00000
03FFFFFFF00000
07E00007E00000
07E00007E00000
07E00007E00000
0FC0000FC00000
0FC0000FC00000
0FC0000FC00000
1F80001F800000
1F80001F800000
00000000000000
00000000000000
00000000000000
00000000000000
00000000000000
00000000000000
00000000000000
00000000000000
ENDCHAR
STARTCHAR U+00C2
ENCODING 194
SWIDTH 1000 0
DWIDTH 40 0
BBX 53 40 -6 -8
BITMAP
000007FFE00000
000007FFE00000
000007FFE00000
00000FFFC00000
0000FC00FC0000
0000FC00FC0000
0001F801F80000
0001F801F80000
000001F8000000
000003F0000000
000003F0000000
000003F0000000
00007E7E000000
00007E7E000000
00007E7E000000
0000FCFC000000
000FC00FC00000
000FC00FC00000
001F801F800000
001F801F800000
01FFFFFFF80000
03FFFFFFF00000
03FFFFFFF00000
03FFFFFFF00000
07E00007E00000
07E00007E00000
07E00007E00000
0FC0000FC00000
0FC0000FC00000
0FC0000FC00000
1F80001F800000
1F80001F800000
00000000000000
00000000000000
00000000000000
00000000000000
00000000000000
00000000000000
00000000000000
00000000000000
ENDCHAR
STARTCHAR U+00C1
ENCODING 193
SWIDTH 1000 0
DWIDTH 40 0
BBX 53 40 -6 -8
BITMAP
0000007FE00000
0000007FE00000
0000007FE00000
000000FFC00000
0000FFC0000000
0000FFC0000000
0001FF80000000
0001FF80000000
000001F8000000
000003F0000000
000003F0000000
000003F0000000
00007E7E000000
00007E7E000000
00007E7E000000
0000FCFC000000
000FC00FC00000
000FC00FC00000
001F801F800000
001F801F800000
01FFFFFFF80000
03FFFFFFF00000
03FFFFFFF00000
03FFFFFFF00000
07E00007E00000
07E00007E00000
07E00007E00000
0FC0000FC00000
0FC0000FC00000
0FC0000FC00000
1F80001F800000
1F80001F800000
00000000000000
00000000000000
00000000000000
00000000000000
00000000000000
00000000000000
00000000000000
00000000000000
ENDCHAR
STARTCHAR U+00C0
ENCODING 192
SWIDTH 1000 0
DWIDTH 40 0
BBX 53 40 -6 -8
BITMAP
000007FE000000
000007FE000000
000007FE000000
00000FFC000000
0000000FFC0000
0000000FFC0000
0000001FF80000
0000001FF80000
000001F8000000
000003F0000000
000003F0000000
000003F0000000
00007E7E000000
00007E7E000000
00007E7E000000
0000FCFC000000
000FC00FC00000
000FC00FC00000
001F801F800000
001F801F800000
01FFFFFFF80000
03FFFFFFF00000
03FFFFFFF00000
03FFFFFFF00000
07E00007E00000
07E00007E00000
07E00007E00000
0FC0000FC00000
0FC0000FC00000
0FC0000FC00000
1F80001F800000
1F80001F800000
00000000000000
00000000000000
00000000000000
00000000000000
00000000000000
00000000000000
00000000000000
00000000000000
ENDCHAR
STARTCHAR U+00BF
ENCODING 191
SWIDTH 1000 0
DWIDTH 40 0
BBX 53 40 -6 -8
BITMAP
00000000000000
00000000000000
00000000000000
00000000000000
000000FC000000
000000FC000000
000001F8000000
000001F8000000
00000000000000
00000000000000
00000000000000
00000000000000
000007E0000000
000007E0000000
000007E0000000
00000FC0000000
00000FC0000000
00000FC0000000
00001F80000000
00001F80000000
001FF800000000
003FF000000000
003FF000000000
003FF000000000
07E00007E00000
07E00007E00000
07E00007E00000
0FC0000FC00000
00FFFFFC000000
00FFFFFC000000
01FFFFF8000000
01FFFFF8000000
00000000000000
00000000000000
00000000000000
00000000000000
00000000000000
00000000000000
00000000000000
00000000000000
ENDCHAR
STARTCHAR U+00BE
ENCODING 190
SWIDTH 1000 0
DWIDTH 40 0
BBX 53 40 -6 -8
BITMAP
0007FFFE000000
0007FFFE000000
0007FFFE000000
000FFFFC000000
000000FC000000
000000FC000000
000001F8000000
000001F8000000
0001FF81F80000
0003FF03F00000
0003FF03F00000
0003FF03F00000
000007FE000000
000007FE000000
000007FE000000
00000FFC000000
00FFFFC0000000
00FFFFC0000000
01FFFF80000000
01FFFF80000000
0001F81F800000
0003F03F000000
0003F03F000000
0003F03F000000
007E07FE000000
007E07FE000000
007E07FE000000
00FC0FFC000000
0FC0FCFC000000
0FC0FCFC000000
1F81F9F8000000
1F81F9F8000000
001FFFFF800000
003FFFFF000000
003FFFFF000000
003FFFFF000000
000007E0000000
000007E0000000
000007E0000000
00000FC0000000
ENDCHAR
STARTCHAR U+00BD
ENCODING 189
SWIDTH 1000 0
DWIDTH 40 0
BBX 53 40 -6 -8
BITMAP
00000000000000
00000000000000
00000000000000
00000000000000
0000FC00000000
0000FC00000000
0001F800000000
0001F800000000
001FF801F80000
003FF003F00000
003FF003F00000
003FF003F00000
0007E07E000000
0007E07E000000
0007E07E000000
000FC0FC000000
000FCFC0000000
000FCFC0000000
001F9F80000000
001F9F80000000
0001F9FF800000
0003F3FF000000
0003F3FF000000
0003F3FF000000
007E7E07E00000
007E7E07E00000
007E7E07E00000
00FCFC0FC00000
0FC000FC000000
0FC000FC000000
1F8001F8000000
1F8001F8000000
00001F80000000
00003F00000000
00003F00000000
00003F00000000
0007FFFE000000
0007FFFE000000
0007FFFE000000
000FFFFC000000
ENDCHAR
STARTCHAR U+00BC
ENCODING 188
SWIDTH 1000 0
DWIDTH 40 0
BBX 53 40 -6 -8
BITMAP
00000000000000
00000000000000
00000000000000
00000000000000
0000FC00000000
0000FC00000000
0001F800000000
0001F800000000
001FF801F80000
003FF003F00000
003FF003F00000
003FF003F00000
0007E07E000000
0007E07E000000
0007E07E000000
000FC0FC000000
000FCFC0000000
000FCFC0000000
001F9F80000000
001F9F80000000
0001F81F800000
0003F03F000000
0003F03F000000
0003F03F000000
007E07FE000000
007E07FE000000
007E07FE000000
00FC0FFC000000
0FC0FCFC000000
0FC0FCFC000000
1F81F9F8000000
1F81F9F8000000
001FFFFF800000
003FFFFF000000
003FFFFF000000
003FFFFF000000
000007E0000000
000007E0000000
000007E0000000
00000FC0000000
ENDCHAR
STARTCHAR U+00BB
ENCODING 187
SWIDTH 1000 0
DWIDTH 40 0
BBX 53 40 -6 -8
BITMAP
00000000000000
00000000000000
00000000000000
00000000000000
000FC0FC000000
000FC0FC000000
001F81F8000000
001F81F8000000
0001F81F800000
0003F03F000000
0003F03F000000
0003F03F000000
00007E07E00000
00007E07E00000
00007E07E00000
0000FC0FC00000
00000FC0FC0000
00000FC0FC0000
00001F81F80000
00001F81F80000
0001F81F800000
0003F03F000000
0003F03F000000
0003F03F000000
007E07E0000000
007E07E0000000
007E07E0000000
00FC0FC0000000
0FC0FC00000000
0FC0FC00000000
1F81F800000000
1F81F800000000
00000000000000
00000000000000
00000000000000
00000000000000
00000000000000
00000000000000
00000000000000
00000000000000
ENDCHAR
STARTCHAR U+00BA
ENCODING 186
SWIDTH 1000 0
DWIDTH 40 0
BBX 53 40 -6 -8
BITMAP
00000000000000
00000000000000
00000000000000
00000000000000
0000FFFFFC0000
0000FFFFFC0000
0001FFFFF80000
0001FFFFF80000
001F80001F8000
003F00003F0000
003F00003F0000
003F00003F0000
007E00007E0000
007E00007E0000
007E00007E0000
00FC0000FC0000
00FC0000FC0000
00FC0000FC0000
01F80001F80000
01F80001F80000
001FFFFF800000
003FFFFF000000
003FFFFF000000
003FFFFF000000
00000000000000
00000000000000
00000000000000
00000000000000
0FFFFFFFC00000
0FFFFFFFC00000
1FFFFFFF800000
1FFFFFFF800000
00000000000000
00000000000000
00000000000000
00000000000000
00000000000000
00000000000000
00000000000000
00000000000000
ENDCHAR
STARTCHAR U+00B9
ENCODING 185
SWIDTH 1000 0
DWIDTH 40 0
BBX 53 40 -6 -8
BITMAP
0000007E000000
0000007E000000
0000007E000000
000000FC000000
00000FFC000000
00000FFC000000
00001FF8000000
00001FF8000000
000001F8000000
000003F0000000
000003F0000000
000003F0000000
000007E0000000
000007E0000000
000007E0000000
00000FC0000000
0000FFFC000000
0000FFFC000000
0001FFF8000000
0001FFF8000000
00000000000000
00000000000000
00000000000000
00000000000000
00000000000000
00000000000000
00000000000000
00000000000000
00000000000000
00000000000000
00000000000000
00000000000000
00000000000000
00000000000000
00000000000000
00000000000000
00000000000000
00000000000000
00000000000000
00000000000000
ENDCHAR
STARTCHAR U+00B8
ENCODING 184
SWIDTH 1000 0
DWIDTH 40 0
BBX 53 40 -6 -8
BITMAP
00000000000000
00000000000000
00000000000000
00000000000000
00000000000000
00000000000000
00000000000000
00000000000000
00000000000000
00000000000000
00000000000000
00000000000000
00000000000000
00000000000000
00000000000000
00000000000000
00000000000000
00000000000000
00000000000000
00000000000000
00000000000000
00000000000000
00000000000000
00000000000000
00000000000000
00000000000000
00000000000000
00000000000000
00000000000000
00000000000000
00000000000000
00000000000000
00001F80000000
00003F00000000
00003F00000000
00003F00000000
007FFE00000000
007FFE00000000
007FFE00000000
00FFFC00000000
ENDCHAR
STARTCHAR U+2022
ENCODING 8226
SWIDTH 1000 0
DWIDTH 40 0
BBX 53 40 -6 -8
BITMAP
00000000000000
00000000000000
00000000000000
00000000000000
00000000000000
00000000000000
00000000000000
00000000000000
00000000000000
00000000000000
00000000000000
00000000000000
00007FE0000000
00007FE0000000
00007FE0000000
0000FFC0000000
0000FFC0000000
0000FFC0000000
0001FF80000000
0001FF80000000
00000000000000
00000000000000
00000000000000
00000000000000
00000000000000
00000000000000
00000000000000
00000000000000
00000000000000
00000000000000
00000000000000
00000000000000
00000000000000
00000000000000
00000000000000
00000000000000
00000000000000
00000000000000
00000000000000
00000000000000
ENDCHAR
STARTCHAR U+00B6
ENCODING 182
SWIDTH 1000 0
DWIDTH 40 0
BBX 53 40 -6 -8
BITMAP
00000000000000
00000000000000
00000000000000
00000000000000
0000FFFFFFC000
0000FFFFFFC000
0001FFFFFF8000
0001FFFFFF8000
001FF81F9F8000
003FF03F3F0000
003FF03F3F0000
003FF03F3F0000
007FE07E7E0000
007FE07E7E0000
007FE07E7E0000
00FFC0FCFC0000
000FFFFFFC0000
000FFFFFFC0000
001FFFFFF80000
001FFFFFF80000
000001F9F80000
000003F3F00000
000003F3F00000
000003F3F00000
000007E7E00000
000007E7E00000
000007E7E00000
00000FCFC00000
00000FCFC00000
00000FCFC00000
00001F9F800000
00001F9F800000
00000000000000
00000000000000
00000000000000
00000000000000
00000000000000
00000000000000
00000000000000
00000000000000
ENDCHAR
STARTCHAR U+00B5
ENCODING 181
SWIDTH 1000 0
DWIDTH 40 0
BBX 53 40 -6 -8
BITMAP
00000000000000
00000000000000
00000000000000
00000000000000
00000000000000
00000000000000
00000000000000
00000000000000
00000000000000
00000000000000
00000000000000
00000000000000
0007E0007E0000
0007E0007E0000
0007E0007E0000
000FC000FC0000
000FC000FC0000
000FC000FC0000
001F8001F80000
001F8001F80000
001F8001F80000
003F0003F00000
003F0003F00000
003F0003F00000
007FE07FE00000
007FE07FE00000
007FE07FE00000
00FFC0FFC00000
00FCFFCFC00000
00FCFFCFC00000
01F9FF9F800000
01F9FF9F800000
01F80000000000
03F00000000000
03F00000000000
03F00000000000
7E000000000000
7E000000000000
7E000000000000
FC000000000000
ENDCHAR
STARTCHAR U+00B4
ENCODING 180
SWIDTH 1000 0
DWIDTH 40 0
BBX 53 40 -6 -8
BITMAP
00000000000000
00000000000000
00000000000000
00000000000000
0000000FFC0000
0000000FFC0000
0000001FF80000
0000001FF80000
0000001F800000
0000003F000000
0000003F000000
0000003F000000
000007E0000000
000007E0000000
000007E0000000
00000FC0000000
00000000000000
00000000000000
00000000000000
00000000000000
00000000000000
00000000000000
00000000000000
00000000000000
00000000000000
00000000000000
00000000000000
00000000000000
00000000000000
00000000000000
00000000000000
00000000000000
00000000000000
00000000000000
00000000000000
00000000000000
00000000000000
00000000000000
00000000000000
00000000000000
ENDCHAR
STARTCHAR U+00B3
ENCODING 179
SWIDTH 1000 0
DWIDTH 40 0
BBX 53 40 -6 -8
BITMAP
00007FFFFE0000
00007FFFFE0000
00007FFFFE0000
0000FFFFFC0000
00000000FC0000
00000000FC0000
00000001F80000
00000001F80000
000001FF800000
000003FF000000
000003FF000000
000003FF000000
00000007E00000
00000007E00000
00000007E00000
0000000FC00000
000FFFFC000000
000FFFFC000000
001FFFF8000000
001FFFF8000000
00000000000000
00000000000000
00000000000000
00000000000000
00000000000000
00000000000000
00000000000000
00000000000000
00000000000000
00000000000000
00000000000000
00000000000000
00000000000000
00000000000000
00000000000000
00000000000000
00000000000000
00000000000000
00000000000000
00000000000000
ENDCHAR
STARTCHAR U+00B2
ENCODING 178
SWIDTH 1000 0
DWIDTH 40 0
BBX 53 40 -6 -8
BITMAP
000007FFE00000
000007FFE00000
000007FFE00000
00000FFFC00000
0000FC00FC0000
0000FC00FC0000
0001F801F80000
0001F801F80000
000001FF800000
000003FF000000
000003FF000000
000003FF000000
00007E00000000
00007E00000000
00007E00000000
0000FC00000000
000FFFFFC00000
000FFFFFC00000
001FFFFF800000
001FFFFF800000
00000000000000
00000000000000
00000000000000
00000000000000
00000000000000
00000000000000
00000000000000
00000000000000
00000000000000
00000000000000
00000000000000
00000000000000
00000000000000
00000000000000
00000000000000
00000000000000
00000000000000
00000000000000
00000000000000
00000000000000
ENDCHAR
STARTCHAR U+00AF
ENCODING 175
SWIDTH 1000 0
DWIDTH 40 0
BBX 53 40 -6 -8
BITMAP
00007FFFFE0000
00007FFFFE0000
00007FFFFE0000
0000FFFFFC0000
00000000000000
00000000000000
00000000000000
00000000000000
00000000000000
00000000000000
00000000000000
00000000000000
00000000000000
00000000000000
00000000000000
00000000000000
00000000000000
00000000000000
00000000000000
00000000000000
00000000000000
00000000000000
00000000000000
00000000000000
00000000000000
00000000000000
00000000000000
00000000000000
00000000000000
00000000000000
00000000000000
00000000000000
00000000000000
00000000000000
00000000000000
00000000000000
00000000000000
00000000000000
00000000000000
00000000000000
ENDCHAR
STARTCHAR U+00AE
ENCODING 174
SWIDTH 1000 0
DWIDTH 40 0
BBX 53 40 -6 -8
BITMAP
00000000000000
00000000000000
00000000000000
00000000000000
00000FFFC00000
00000FFFC00000
00001FFF800000
00001FFF800000
0001F801F80000
0003F003F00000
0003F003F00000
0003F003F00000
007E7FFE7E0000
007E7FFE7E0000
007E7FFE7E0000
00FCFFFCFC0000
00FCFC0FFC0000
00FCFC0FFC0000
01F9F81FF80000
01F9F81FF80000
01F9FFF9F80000
03F3FFF3F00000
03F3FFF3F00000
03F3FFF3F00000
07E7FE07E00000
07E7FE07E00000
07E7FE07E00000
0FCFFC0FC00000
00FFCFFC000000
00FFCFFC000000
01FF9FF8000000
01FF9FF8000000
001FFF80000000
003FFF00000000
003FFF00000000
003FFF00000000
00000000000000
00000000000000
00000000000000
00000000000000
ENDCHAR
STARTCHAR U+00D7
ENCODING 215
SWIDTH 1000 0
DWIDTH 40 0
BBX 53 40 -6 -8
BITMAP
00000000000000
00000000000000
00000000000000
00000000000000
00000000000000
00000000000000
00000000000000
00000000000000
0001F801F80000
0003F003F00000
0003F003F00000
0003F003F00000
00007E7E000000
00007E7E000000
00007E7E000000
0000FCFC000000
00000FC0000000
00000FC0000000
00001F80000000
00001F80000000
0001F9F8000000
0003F3F0000000
0003F3F0000000
0003F3F0000000
007E007E000000
007E007E000000
007E007E000000
00FC00FC000000
00000000000000
00000000000000
00000000000000
00000000000000
00000000000000
00000000000000
00000000000000
00000000000000
00000000000000
00000000000000
00000000000000
00000000000000
ENDCHAR
STARTCHAR U+00AC
ENCODING 172
SWIDTH 1000 0
DWIDTH 40 0
BBX 53 40 -6 -8
BITMAP
00000000000000
00000000000000
00000000000000
00000000000000
00000000000000
00000000000000
00000000000000
00000000000000
00000000000000
00000000000000
00000000000000
00000000000000
00000000000000
00000000000000
00000000000000
00000000000000
00000000000000
00000000000000
00000000000000
00000000000000
01FFFFFFF80000
03FFFFFFF00000
03FFFFFFF00000
03FFFFFFF00000
00000007E00000
00000007E00000
00000007E00000
0000000FC00000
0000000FC00000
0000000FC00000
0000001F800000
0000001F800000
00000000000000
00000000000000
00000000000000
00000000000000
00000000000000
00000000000000
00000000000000
00000000000000
ENDCHAR
STARTCHAR U+00AB
ENCODING 171
SWIDTH 1000 0
DWIDTH 40 0
BBX 53 40 -6 -8
BITMAP
00000000000000
00000000000000
00000000000000
00000000000000
000000FC0FC000
000000FC0FC000
000001F81F8000
000001F81F8000
00001F81F80000
00003F03F00000
00003F03F00000
00003F03F00000
0007E07E000000
0007E07E000000
0007E07E000000
000FC0FC000000
00FC0FC0000000
00FC0FC0000000
01F81F80000000
01F81F80000000
001F81F8000000
003F03F0000000
003F03F0000000
003F03F0000000
0007E07E000000
0007E07E000000
0007E07E000000
000FC0FC000000
0000FC0FC00000
0000FC0FC00000
0001F81F800000
0001F81F800000
00000000000000
00000000000000
00000000000000
00000000000000
00000000000000
00000000000000
00000000000000
00000000000000
ENDCHAR
STARTCHAR U+00AA
ENCODING 170
SWIDTH 1000 0
DWIDTH 40 0
BBX 53 40 -6 -8
BITMAP
00000000000000
00000000000000
00000000000000
00000000000000
0000FFFFFC0000
0000FFFFFC0000
0001FFFFF80000
0001FFFFF80000
000000001F8000
000000003F0000
000000003F0000
000000003F0000
0007FFFFFE0000
0007FFFFFE0000
0007FFFFFE0000
000FFFFFFC0000
00FC000FFC0000
00FC000FFC0000
01F8001FF80000
01F8001FF80000
001FFFF9F80000
003FFFF3F00000
003FFFF3F00000
003FFFF3F00000
00000000000000
00000000000000
00000000000000
00000000000000
0FFFFFFFC00000
0FFFFFFFC00000
1FFFFFFF800000
1FFFFFFF800000
00000000000000
00000000000000
00000000000000
00000000000000
00000000000000
00000000000000
00000000000000
00000000000000
ENDCHAR
STARTCHAR U+00A9
ENCODING 169
SWIDTH 1000 0
DWIDTH 40 0
BBX 53 40 -6 -8
BITMAP
00000000000000
00000000000000
00000000000000
00000000000000
00000FFFC00000
00000FFFC00000
00001FFF800000
00001FFF800000
0001F801F80000
0003F003F00000
0003F003F00000
0003F003F00000
007E07FE7E0000
007E07FE7E0000
007E07FE7E0000
00FC0FFCFC0000
00FCFC00FC0000
00FCFC00FC0000
01F9F801F80000
01F9F801F80000
01F9F801F80000
03F3F003F00000
03F3F003F00000
03F3F003F00000
07E07FE7E00000
07E07FE7E00000
07E07FE7E00000
0FC0FFCFC00000
00FC00FC000000
00FC00FC000000
01F801F8000000
01F801F8000000
001FFF80000000
003FFF00000000
003FFF00000000
003FFF00000000
00000000000000
00000000000000
00000000000000
00000000000000
ENDCHAR
STARTCHAR U+00A4
ENCODING 164
SWIDTH 1000 0
DWIDTH 40 0
BBX 53 40 -6 -8
BITMAP
00000000000000
00000000000000
00000000000000
00000000000000
00000000000000
00000000000000
00000000000000
00000000000000
001F80001F8000
003F00003F0000
003F00003F0000
003F00003F0000
0007FFFFE00000
0007FFFFE00000
0007FFFFE00000
000FFFFFC00000
000FC00FC00000
000FC00FC00000
001F801F800000
001F801F800000
001FFFFF800000
003FFFFF000000
003FFFFF000000
003FFFFF000000
07E00007E00000
07E00007E00000
07E00007E00000
0FC0000FC00000
00000000000000
00000000000000
00000000000000
00000000000000
00000000000000
00000000000000
00000000000000
00000000000000
00000000000000
00000000000000
00000000000000
00000000000000
ENDCHAR
STARTCHAR U+00A7
ENCODING 167
SWIDTH 1000 0
DWIDTH 40 0
BBX 53 40 -6 -8
BITMAP
00000000000000
00000000000000
00000000000000
00000000000000
00000FFFFC0000
00000FFFFC0000
00001FFFF80000
00001FFFF80000
0001F800000000
0003F000000000
0003F000000000
0003F000000000
00007FFE000000
00007FFE000000
00007FFE000000
0000FFFC000000
000FC00FC00000
000FC00FC00000
001F801F800000
001F801F800000
0001FFF8000000
0003FFF0000000
0003FFF0000000
0003FFF0000000
0000007E000000
0000007E000000
0000007E000000
000000FC000000
00FFFFC0000000
00FFFFC0000000
01FFFF80000000
01FFFF80000000
00000000000000
00000000000000
00000000000000
00000000000000
00000000000000
00000000000000
00000000000000
00000000000000
ENDCHAR
STARTCHAR U+00A6
ENCODING 166
SWIDTH 1000 0
DWIDTH 40 0
BBX 53 40 -6 -8
BITMAP
00000000000000
00000000000000
00000000000000
00000000000000
000000FC000000
000000FC000000
000001F8000000
000001F8000000
000001F8000000
000003F0000000
000003F0000000
000003F0000000
000007E0000000
000007E0000000
000007E0000000
00000FC0000000
00000000000000
00000000000000
00000000000000
00000000000000
00001F80000000
00003F00000000
00003F00000000
00003F00000000
00007E00000000
00007E00000000
00007E00000000
0000FC00000000
0000FC00000000
0000FC00000000
0001F800000000
0001F800000000
00000000000000
00000000000000
00000000000000
00000000000000
00000000000000
00000000000000
00000000000000
00000000000000
ENDCHAR
STARTCHAR U+00A5
ENCODING 165
SWIDTH 1000 0
DWIDTH 40 0
BBX 53 40 -6 -8
BITMAP
00000000000000
00000000000000
00000000000000
00000000000000
000FC0000FC000
000FC0000FC000
001F80001F8000
001F80001F8000
0001F801F80000
0003F003F00000
0003F003F00000
0003F003F00000
00007E7E000000
00007E7E000000
00007E7E000000
0000FCFC000000
00000FC0000000
00000FC0000000
00001F80000000
00001F80000000
01FFFFFFF80000
03FFFFFFF00000
03FFFFFFF00000
03FFFFFFF00000
00007E00000000
00007E00000000
00007E00000000
0000FC00000000
0000FC00000000
0000FC00000000
0001F800000000
0001F800000000
00000000000000
00000000000000
00000000000000
00000000000000
00000000000000
00000000000000
00000000000000
00000000000000
ENDCHAR
STARTCHAR U+00A8
ENCODING 168
SWIDTH 1000 0
DWIDTH 40 0
BBX 53 40 -6 -8
BITMAP
00007E007E0000
00007E007E0000
00007E007E0000
0000FC00FC0000
00000000000000
00000000000000
00000000000000
00000000000000
00000000000000
00000000000000
00000000000000
00000000000000
00000000000000
00000000000000
00000000000000
00000000000000
00000000000000
00000000000000
00000000000000
00000000000000
00000000000000
00000000000000
00000000000000
00000000000000
00000000000000
00000000000000
00000000000000
00000000000000
00000000000000
00000000000000
00000000000000
00000000000000
00000000000000
00000000000000
00000000000000
00000000000000
00000000000000
00000000000000
00000000000000
00000000000000
ENDCHAR
STARTCHAR U+00A2
ENCODING 162
SWIDTH 1000 0
DWIDTH 40 0
BBX 53 40 -6 -8
BITMAP
00000000000000
00000000000000
00000000000000
00000000000000
00000000000000
00000000000000
00000000000000
00000000000000
000001F8000000
000003F0000000
000003F0000000
000003F0000000
0007FFFFE00000
0007FFFFE00000
0007FFFFE00000
000FFFFFC00000
00FC0FC0FC0000
00FC0FC0FC0000
01F81F81F80000
01F81F81F80000
01F81F80000000
03F03F00000000
03F03F00000000
03F03F00000000
07E07E07E00000
07E07E07E00000
07E07E07E00000
0FC0FC0FC00000
00FFFFFC000000
00FFFFFC000000
01FFFFF8000000
01FFFFF8000000
0001F800000000
0003F000000000
0003F000000000
0003F000000000
00000000000000
00000000000000
00000000000000
00000000000000
ENDCHAR
STARTCHAR U+00A1
ENCODING 161
SWIDTH 1000 0
DWIDTH 40 0
BBX 53 40 -6 -8
BITMAP
00000000000000
00000000000000
00000000000000
00000000000000
000000FC000000
000000FC000000
000001F8000000
000001F8000000
00000000000000
00000000000000
00000000000000
00000000000000
000007E0000000
000007E0000000
000007E0000000
00000FC0000000
00000FC0000000
00000FC0000000
00001F80000000
00001F80000000
00001F80000000
00003F00000000
00003F00000000
00003F00000000
00007E00000000
00007E00000000
00007E00000000
0000FC00000000
0000FC00000000
0000FC00000000
0001F800000000
0001F800000000
00000000000000
00000000000000
00000000000000
00000000000000
00000000000000
00000000000000
00000000000000
00000000000000
ENDCHAR
STARTCHAR U+201F
ENCODING 8223
SWIDTH 1000 0
DWIDTH 40 0
BBX 53 40 -6 -8
BITMAP
00000000000000
00000000000000
00000000000000
00000000000000
0000FFCFFC0000
0000FFCFFC0000
0001FF9FF80000
0001FF9FF80000
0001F81F800000
0003F03F000000
0003F03F000000
0003F03F000000
00007E07E00000
00007E07E00000
00007E07E00000
0000FC0FC00000
00000000000000
00000000000000
00000000000000
00000000000000
00000000000000
00000000000000
00000000000000
00000000000000
00000000000000
00000000000000
00000000000000
00000000000000
00000000000000
00000000000000
00000000000000
00000000000000
00000000000000
00000000000000
00000000000000
00000000000000
00000000000000
00000000000000
00000000000000
00000000000000
ENDCHAR
STARTCHAR U+201E
ENCODING 8222
SWIDTH 1000 0
DWIDTH 40 0
BBX 53 40 -6 -8
BITMAP
00000000000000
00000000000000
00000000000000
00000000000000
00000000000000
00000000000000
00000000000000
00000000000000
00000000000000
00000000000000
00000000000000
00000000000000
00000000000000
00000000000000
00000000000000
00000000000000
00000000000000
00000000000000
00000000000000
00000000000000
00000000000000
00000000000000
00000000000000
00000000000000
00000000000000
00000000000000
00000000000000
00000000000000
00FC0FC0000000
00FC0FC0000000
01F81F80000000
01F81F80000000
01F81F80000000
03F03F00000000
03F03F00000000
03F03F00000000
00000000000000
00000000000000
00000000000000
00000000000000
ENDCHAR
STARTCHAR U+201D
ENCODING 8221
SWIDTH 1000 0
DWIDTH 40 0
BBX 53 40 -6 -8
BITMAP
00000000000000
00000000000000
00000000000000
00000000000000
0000FFC0FFC000
0000FFC0FFC000
0001FF81FF8000
0001FF81FF8000
00001F801F8000
00003F003F0000
00003F003F0000
00003F003F0000
0007E007E00000
0007E007E00000
0007E007E00000
000FC00FC00000
00000000000000
00000000000000
00000000000000
00000000000000
00000000000000
00000000000000
00000000000000
00000000000000
00000000000000
00000000000000
00000000000000
00000000000000
00000000000000
00000000000000
00000000000000
00000000000000
00000000000000
00000000000000
00000000000000
00000000000000
00000000000000
00000000000000
00000000000000
00000000000000
ENDCHAR
STARTCHAR U+201C
ENCODING 8220
SWIDTH 1000 0
DWIDTH 40 0
BBX 53 40 -6 -8
BITMAP
00000000000000
00000000000000
00000000000000
00000000000000
00000FC00FC000
00000FC00FC000
00001F801F8000
00001F801F8000
0001F801F80000
0003F003F00000
0003F003F00000
0003F003F00000
0007FE07FE0000
0007FE07FE0000
0007FE07FE0000
000FFC0FFC0000
00000000000000
00000000000000
00000000000000
00000000000000
00000000000000
00000000000000
00000000000000
00000000000000
00000000000000
00000000000000
00000000000000
00000000000000
00000000000000
00000000000000
00000000000000
00000000000000
00000000000000
00000000000000
00000000000000
00000000000000
00000000000000
00000000000000
00000000000000
00000000000000
ENDCHAR
STARTCHAR U+201B
ENCODING 8219
SWIDTH 1000 0
DWIDTH 40 0
BBX 53 40 -6 -8
BITMAP
00000000000000
00000000000000
00000000000000
00000000000000
000000FC000000
000000FC000000
000001F8000000
000001F8000000
000001F8000000
000003F0000000
000003F0000000
000003F0000000
000007E0000000
000007E0000000
000007E0000000
00000FC0000000
00000000000000
00000000000000
00000000000000
00000000000000
00000000000000
00000000000000
00000000000000
00000000000000
00000000000000
00000000000000
00000000000000
00000000000000
00000000000000
00000000000000
00000000000000
00000000000000
00000000000000
00000000000000
00000000000000
00000000000000
00000000000000
00000000000000
00000000000000
00000000000000
ENDCHAR
STARTCHAR U+201A
ENCODING 8218
SWIDTH 1000 0
DWIDTH 40 0
BBX 53 40 -6 -8
BITMAP
00000000000000
00000000000000
00000000000000
00000000000000
00000000000000
00000000000000
00000000000000
00000000000000
00000000000000
00000000000000
00000000000000
00000000000000
00000000000000
00000000000000
00000000000000
00000000000000
00000000000000
00000000000000
00000000000000
00000000000000
00001F80000000
00003F00000000
00003F00000000
00003F00000000
00007E00000000
00007E00000000
00007E00000000
0000FC00000000
0000FC00000000
0000FC00000000
0001F800000000
0001F800000000
00000000000000
00000000000000
00000000000000
00000000000000
00000000000000
00000000000000
00000000000000
00000000000000
ENDCHAR
STARTCHAR U+2019
ENCODING 8217
SWIDTH 1000 0
DWIDTH 40 0
BBX 53 40 -6 -8
BITMAP
00000000000000
00000000000000
00000000000000
00000000000000
0000FFC0000000
0000FFC0000000
0001FF80000000
0001FF80000000
00001F80000000
00003F00000000
00003F00000000
00003F00000000
0007E000000000
0007E000000000
0007E000000000
000FC000000000
00000000000000
00000000000000
00000000000000
00000000000000
00000000000000
00000000000000
00000000000000
00000000000000
00000000000000
00000000000000
00000000000000
00000000000000
00000000000000
00000000000000
00000000000000
00000000000000
00000000000000
00000000000000
00000000000000
00000000000000
00000000000000
00000000000000
00000000000000
00000000000000
ENDCHAR
STARTCHAR U+2018
ENCODING 8216
SWIDTH 1000 0
DWIDTH 40 0
BBX 53 40 -6 -8
BITMAP
00000000000000
00000000000000
00000000000000
00000000000000
000000000FC000
000000000FC000
000000001F8000
000000001F8000
00000001F80000
00000003F00000
00000003F00000
00000003F00000
00000007FE0000
00000007FE0000
00000007FE0000
0000000FFC0000
00000000000000
00000000000000
00000000000000
00000000000000
00000000000000
00000000000000
00000000000000
00000000000000
00000000000000
00000000000000
00000000000000
00000000000000
00000000000000
00000000000000
00000000000000
00000000000000
00000000000000
00000000000000
00000000000000
00000000000000
00000000000000
00000000000000
00000000000000
00000000000000
ENDCHAR
STARTCHAR U+2017
ENCODING 8215
SWIDTH 1000 0
DWIDTH 40 0
BBX 53 40 -6 -8
BITMAP
00000000000000
00000000000000
00000000000000
00000000000000
00000000000000
00000000000000
00000000000000
00000000000000
00000000000000
00000000000000
00000000000000
00000000000000
00000000000000
00000000000000
00000000000000
00000000000000
00000000000000
00000000000000
00000000000000
00000000000000
00000000000000
00000000000000
00000000000000
00000000000000
00000000000000
00000000000000
00000000000000
00000000000000
0FFFFFFFC00000
0FFFFFFFC00000
1FFFFFFF800000
1FFFFFFF800000
00000000000000
00000000000000
00000000000000
00000000000000
7FFFFFFE000000
7FFFFFFE000000
7FFFFFFE000000
FFFFFFFC000000
ENDCHAR
STARTCHAR U+2016
ENCODING 8214
SWIDTH 1000 0
DWIDTH 40 0
BBX 53 40 -6 -8
BITMAP
00000000000000
00000000000000
00000000000000
00000000000000
000000FCFC0000
000000FCFC0000
000001F9F80000
000001F9F80000
000001F9F80000
000003F3F00000
000003F3F00000
000003F3F00000
000007E7E00000
000007E7E00000
000007E7E00000
00000FCFC00000
00000FCFC00000
00000FCFC00000
00001F9F800000
00001F9F800000
00001F9F800000
00003F3F000000
00003F3F000000
00003F3F000000
00007E7E000000
00007E7E000000
00007E7E000000
0000FCFC000000
0000FCFC000000
0000FCFC000000
0001F9F8000000
0001F9F8000000
00000000000000
00000000000000
00000000000000
00000000000000
00000000000000
00000000000000
00000000000000
00000000000000
ENDCHAR
STARTCHAR U+2015
ENCODING 8213
SWIDTH 1000 0
DWIDTH 40 0
BBX 53 40 -6 -8
BITMAP
00000000000000
00000000000000
00000000000000
00000000000000
00000000000000
00000000000000
00000000000000
00000000000000
00000000000000
00000000000000
00000000000000
00000000000000
00000000000000
00000000000000
00000000000000
00000000000000
00FFFFFFFFFF00
00FFFFFFFFFF00
01FFFFFFFFFE00
01FFFFFFFFFE00
00000000000000
00000000000000
00000000000000
00000000000000
00000000000000
00000000000000
00000000000000
00000000000000
00000000000000
00000000000000
00000000000000
00000000000000
00000000000000
00000000000000
00000000000000
00000000000000
00000000000000
00000000000000
00000000000000
00000000000000
ENDCHAR
STARTCHAR U+2014
ENCODING 8212
SWIDTH 1000 0
DWIDTH 40 0
BBX 53 40 -6 -8
BITMAP
00000000000000
00000000000000
00000000000000
00000000000000
00000000000000
00000000000000
00000000000000
00000000000000
00000000000000
00000000000000
00000000000000
00000000000000
00000000000000
00000000000000
00000000000000
00000000000000
00FFFFFFFC0000
00FFFFFFFC0000
01FFFFFFF80000
01FFFFFFF80000
00000000000000
00000000000000
00000000000000
00000000000000
00000000000000
00000000000000
00000000000000
00000000000000
00000000000000
00000000000000
00000000000000
00000000000000
00000000000000
00000000000000
00000000000000
00000000000000
00000000000000
00000000000000
00000000000000
00000000000000
ENDCHAR
STARTCHAR U+2013
ENCODING 8211
SWIDTH 1000 0
DWIDTH 40 0
BBX 53 40 -6 -8
BITMAP
00000000000000
00000000000000
00000000000000
00000000000000
00000000000000
00000000000000
00000000000000
00000000000000
00000000000000
00000000000000
00000000000000
00000000000000
00000000000000
00000000000000
00000000000000
00000000000000
0000FFFFC00000
0000FFFFC00000
0001FFFF800000
0001FFFF800000
00000000000000
00000000000000
00000000000000
00000000000000
00000000000000
00000000000000
00000000000000
00000000000000
00000000000000
00000000000000
00000000000000
00000000000000
00000000000000
00000000000000
00000000000000
00000000000000
00000000000000
00000000000000
00000000000000
00000000000000
ENDCHAR
STARTCHAR U+2012
ENCODING 8210
SWIDTH 1000 0
DWIDTH 40 0
BBX 53 40 -6 -8
BITMAP
00000000000000
00000000000000
00000000000000
00000000000000
00000000000000
00000000000000
00000000000000
00000000000000
00000000000000
00000000000000
00000000000000
00000000000000
00000000000000
00000000000000
00000000000000
00000000000000
000FFFFFC00000
000FFFFFC00000
001FFFFF800000
001FFFFF800000
00000000000000
00000000000000
00000000000000
00000000000000
00000000000000
00000000000000
00000000000000
00000000000000
00000000000000
00000000000000
00000000000000
00000000000000
00000000000000
00000000000000
00000000000000
00000000000000
00000000000000
00000000000000
00000000000000
00000000000000
ENDCHAR
STARTCHAR U+2011
ENCODING 8209
SWIDTH 1000 0
DWIDTH 40 0
BBX 53 40 -6 -8
BITMAP
00000000000000
00000000000000
00000000000000
00000000000000
00000000000000
00000000000000
00000000000000
00000000000000
00000000000000
00000000000000
00000000000000
00000000000000
00000000000000
00000000000000
00000000000000
00000000000000
0000FFFC000000
0000FFFC000000
0001FFF8000000
0001FFF8000000
00000000000000
00000000000000
00000000000000
00000000000000
00000000000000
00000000000000
00000000000000
00000000000000
00000000000000
00000000000000
00000000000000
00000000000000
00000000000000
00000000000000
00000000000000
00000000000000
00000000000000
00000000000000
00000000000000
00000000000000
ENDCHAR
STARTCHAR U+2010
ENCODING 8208
SWIDTH 1000 0
DWIDTH 40 0
BBX 53 40 -6 -8
BITMAP
00000000000000
00000000000000
00000000000000
00000000000000
00000000000000
00000000000000
00000000000000
00000000000000
00000000000000
00000000000000
00000000000000
00000000000000
00000000000000
00000000000000
00000000000000
00000000000000
0000FFFC000000
0000FFFC000000
0001FFF8000000
0001FFF8000000
00000000000000
00000000000000
00000000000000
00000000000000
00000000000000
00000000000000
00000000000000
00000000000000
00000000000000
00000000000000
00000000000000
00000000000000
00000000000000
00000000000000
00000000000000
00000000000000
00000000000000
00000000000000
00000000000000
00000000000000
ENDCHAR
STARTCHAR U+007F
ENCODING 127
SWIDTH 1000 0
DWIDTH 40 0
BBX 53 40 -6 -8
BITMAP
00000000000000
00000000000000
00000000000000
00000000000000
000FFFC0000000
000FFFC0000000
001FFF80000000
001FFF80000000
001F81F8000000
003F03F0000000
003F03F0000000
003F03F0000000
007E07E0000000
007E07E0000000
007E07E0000000
00FC0FC0000000
00FC0FC0000000
00FC0FC0000000
01F81F80000000
01F81F80000000
01FFFFF8000000
03FFFFF0000000
03FFFFF0000000
03FFFFF0000000
0007E000000000
0007E000000000
0007E000000000
000FC000000000
000FC000000000
000FC000000000
001F8000000000
001F8000000000
001F8000000000
003F0000000000
003F0000000000
003F0000000000
007E0000000000
007E0000000000
007E0000000000
00FC0000000000
ENDCHAR
STARTCHAR U+007E
ENCODING 126
SWIDTH 1000 0
DWIDTH 40 0
BBX 53 40 -6 -8
BITMAP
00000000000000
00000000000000
00000000000000
00000000000000
0000FFC00FC000
0000FFC00FC000
0001FF801F8000
0001FF801F8000
001F81F81F8000
003F03F03F0000
003F03F03F0000
003F03F03F0000
007E007FE00000
007E007FE00000
007E007FE00000
00FC00FFC00000
00000000000000
00000000000000
00000000000000
00000000000000
00000000000000
00000000000000
00000000000000
00000000000000
00000000000000
00000000000000
00000000000000
00000000000000
00000000000000
00000000000000
00000000000000
00000000000000
00000000000000
00000000000000
00000000000000
00000000000000
00000000000000
00000000000000
00000000000000
00000000000000
ENDCHAR
STARTCHAR U+007D
ENCODING 125
SWIDTH 1000 0
DWIDTH 40 0
BBX 53 40 -6 -8
BITMAP
00000000000000
00000000000000
00000000000000
00000000000000
000FFFC0000000
000FFFC0000000
001FFF80000000
001FFF80000000
000001F8000000
000003F0000000
000003F0000000
000003F0000000
00007E00000000
00007E00000000
00007E00000000
0000FC00000000
00000FFC000000
00000FFC000000
00001FF8000000
00001FF8000000
0001F800000000
0003F000000000
0003F000000000
0003F000000000
00007E00000000
00007E00000000
00007E00000000
0000FC00000000
0FFFC000000000
0FFFC000000000
1FFF8000000000
1FFF8000000000
00000000000000
00000000000000
00000000000000
00000000000000
00000000000000
00000000000000
00000000000000
00000000000000
ENDCHAR
STARTCHAR U+007C
ENCODING 124
SWIDTH 1000 0
DWIDTH 40 0
BBX 53 40 -6 -8
BITMAP
00000000000000
00000000000000
00000000000000
00000000000000
000000FC000000
000000FC000000
000001F8000000
000001F8000000
000001F8000000
000003F0000000
000003F0000000
000003F0000000
000007E0000000
000007E0000000
000007E0000000
00000FC0000000
00000FC0000000
00000FC0000000
00001F80000000
00001F80000000
00001F80000000
00003F00000000
00003F00000000
00003F00000000
00007E00000000
00007E00000000
00007E00000000
0000FC00000000
0000FC00000000
0000FC00000000
0001F800000000
0001F800000000
00000000000000
00000000000000
00000000000000
00000000000000
00000000000000
00000000000000
00000000000000
00000000000000
ENDCHAR
STARTCHAR U+007B
ENCODING 123
SWIDTH 1000 0
DWIDTH 40 0
BBX 53 40 -6 -8
BITMAP
00000000000000
00000000000000
00000000000000
00000000000000
0000000FFFC000
0000000FFFC000
0000001FFF8000
0000001FFF8000
000001F8000000
000003F0000000
000003F0000000
000003F0000000
0000007E000000
0000007E000000
0000007E000000
000000FC000000
0000FFC0000000
0000FFC0000000
0001FF80000000
0001FF80000000
000001F8000000
000003F0000000
000003F0000000
000003F0000000
00007E00000000
00007E00000000
00007E00000000
0000FC00000000
00000FFFC00000
00000FFFC00000
00001FFF800000
00001FFF800000
00000000000000
00000000000000
00000000000000
00000000000000
00000000000000
00000000000000
00000000000000
00000000000000
ENDCHAR
STARTCHAR U+007A
ENCODING 122
SWIDTH 1000 0
DWIDTH 40 0
BBX 53 40 -6 -8
BITMAP
00000000000000
00000000000000
00000000000000
00000000000000
00000000000000
00000000000000
00000000000000
00000000000000
00000000000000
00000000000000
00000000000000
00000000000000
007FFFFFFE0000
007FFFFFFE0000
007FFFFFFE0000
00FFFFFFFC0000
0000000FC00000
0000000FC00000
0000001F800000
0000001F800000
00001FF8000000
00003FF0000000
00003FF0000000
00003FF0000000
0007E000000000
0007E000000000
0007E000000000
000FC000000000
0FFFFFFFC00000
0FFFFFFFC00000
1FFFFFFF800000
1FFFFFFF800000
00000000000000
00000000000000
00000000000000
00000000000000
00000000000000
00000000000000
00000000000000
00000000000000
ENDCHAR
STARTCHAR U+0079
ENCODING 121
SWIDTH 1000 0
DWIDTH 40 0
BBX 53 40 -6 -8
BITMAP
00000000000000
00000000000000
00000000000000
00000000000000
00000000000000
00000000000000
00000000000000
00000000000000
00000000000000
00000000000000
00000000000000
00000000000000
007E0007E00000
007E0007E00000
007E0007E00000
00FC000FC00000
00FC000FC00000
00FC000FC00000
01F8001F800000
01F8001F800000
01F801FF800000
03F003FF000000
03F003FF000000
03F003FF000000
007FFE7E000000
007FFE7E000000
007FFE7E000000
00FFFCFC000000
000000FC000000
000000FC000000
000001F8000000
000001F8000000
1F8001F8000000
3F0003F0000000
3F0003F0000000
3F0003F0000000
07FFFE00000000
07FFFE00000000
07FFFE00000000
0FFFFC00000000
ENDCHAR
STARTCHAR U+0078
ENCODING 120
SWIDTH 1000 0
DWIDTH 40 0
BBX 53 40 -6 -8
BITMAP
00000000000000
00000000000000
00000000000000
00000000000000
00000000000000
00000000000000
00000000000000
00000000000000
00000000000000
00000000000000
00000000000000
00000000000000
007E0007E00000
007E0007E00000
007E0007E00000
00FC000FC00000
000FC0FC000000
000FC0FC000000
001F81F8000000
001F81F8000000
0001FF80000000
0003FF00000000
0003FF00000000
0003FF00000000
007E07E0000000
007E07E0000000
007E07E0000000
00FC0FC0000000
0FC000FC000000
0FC000FC000000
1F8001F8000000
1F8001F8000000
00000000000000
00000000000000
00000000000000
00000000000000
00000000000000
00000000000000
00000000000000
00000000000000
ENDCHAR
STARTCHAR U+0077
ENCODING 119
SWIDTH 1000 0
DWIDTH 40 0
BBX 53 40 -6 -8
BITMAP
00000000000000
00000000000000
00000000000000
00000000000000
00000000000000
00000000000000
00000000000000
00000000000000
00000000000000
00000000000000
00000000000000
00000000000000
007E00007E0000
007E00007E0000
007E00007E0000
00FC0000FC0000
00FC0000FC0000
00FC0000FC0000
01F80001F80000
01F80001F80000
01F81F81F80000
03F03F03F00000
03F03F03F00000
03F03F03F00000
07E7E7E7E00000
07E7E7E7E00000
07E7E7E7E00000
0FCFCFCFC00000
00FC00FC000000
00FC00FC000000
01F801F8000000
01F801F8000000
00000000000000
00000000000000
00000000000000
00000000000000
00000000000000
00000000000000
00000000000000
00000000000000
ENDCHAR
STARTCHAR U+0076
ENCODING 118
SWIDTH 1000 0
DWIDTH 40 0
BBX 53 40 -6 -8
BITMAP
00000000000000
00000000000000
00000000000000
00000000000000
00000000000000
00000000000000
00000000000000
00000000000000
00000000000000
00000000000000
00000000000000
00000000000000
007E00007E0000
007E00007E0000
007E00007E0000
00FC0000FC0000
00FC0000FC0000
00FC0000FC0000
01F80001F80000
01F80001F80000
001F801F800000
003F003F000000
003F003F000000
003F003F000000
0007E7E0000000
0007E7E0000000
0007E7E0000000
000FCFC0000000
0000FC00000000
0000FC00000000
0001F800000000
0001F800000000
00000000000000
00000000000000
00000000000000
00000000000000
00000000000000
00000000000000
00000000000000
00000000000000
ENDCHAR
STARTCHAR U+0075
ENCODING 117
SWIDTH 1000 0
DWIDTH 40 0
BBX 53 40 -6 -8
BITMAP
00000000000000
00000000000000
00000000000000
00000000000000
00000000000000
00000000000000
00000000000000
00000000000000
00000000000000
00000000000000
00000000000000
00000000000000
007E0007E00000
007E0007E00000
007E0007E00000
00FC000FC00000
00FC000FC00000
00FC000FC00000
01F8001F800000
01F8001F800000
01F8001F800000
03F0003F000000
03F0003F000000
03F0003F000000
07E0007E000000
07E0007E000000
07E0007E000000
0FC000FC000000
00FFFFCFC00000
00FFFFCFC00000
01FFFF9F800000
01FFFF9F800000
00000000000000
00000000000000
00000000000000
00000000000000
00000000000000
00000000000000
00000000000000
00000000000000
ENDCHAR
STARTCHAR U+0074
ENCODING 116
SWIDTH 1000 0
DWIDTH 40 0
BBX 53 40 -6 -8
BITMAP
00000000000000
00000000000000
00000000000000
00000000000000
00000FC0000000
00000FC0000000
00001F80000000
00001F80000000
00001F80000000
00003F00000000
00003F00000000
00003F00000000
007FFFFE000000
007FFFFE000000
007FFFFE000000
00FFFFFC000000
0000FC00000000
0000FC00000000
0001F800000000
0001F800000000
0001F800000000
0003F000000000
0003F000000000
0003F000000000
0007E07E000000
0007E07E000000
0007E07E000000
000FC0FC000000
0000FFC0000000
0000FFC0000000
0001FF80000000
0001FF80000000
00000000000000
00000000000000
00000000000000
00000000000000
00000000000000
00000000000000
00000000000000
00000000000000
ENDCHAR
STARTCHAR U+0073
ENCODING 115
SWIDTH 1000 0
DWIDTH 40 0
BBX 53 40 -6 -8
BITMAP
00000000000000
00000000000000
00000000000000
00000000000000
00000000000000
00000000000000
00000000000000
00000000000000
00000000000000
00000000000000
00000000000000
00000000000000
0007FFFFE00000
0007FFFFE00000
0007FFFFE00000
000FFFFFC00000
00FC0000000000
00FC0000000000
01F80000000000
01F80000000000
001FFFFF800000
003FFFFF000000
003FFFFF000000
003FFFFF000000
00000007E00000
00000007E00000
00000007E00000
0000000FC00000
0FFFFFFC000000
0FFFFFFC000000
1FFFFFF8000000
1FFFFFF8000000
00000000000000
00000000000000
00000000000000
00000000000000
00000000000000
00000000000000
00000000000000
00000000000000
ENDCHAR
STARTCHAR U+0072
ENCODING 114
SWIDTH 1000 0
DWIDTH 40 0
BBX 53 40 -6 -8
BITMAP
00000000000000
00000000000000
00000000000000
00000000000000
00000000000000
00000000000000
00000000000000
00000000000000
00000000000000
00000000000000
00000000000000
00000000000000
007E07FFE00000
007E07FFE00000
007E07FFE00000
00FC0FFFC00000
000FFC00FC0000
000FFC00FC0000
001FF801F80000
001FF801F80000
001F8000000000
003F0000000000
003F0000000000
003F0000000000
007E0000000000
007E0000000000
007E0000000000
00FC0000000000
00FC0000000000
00FC0000000000
01F80000000000
01F80000000000
00000000000000
00000000000000
00000000000000
00000000000000
00000000000000
00000000000000
00000000000000
00000000000000
ENDCHAR
STARTCHAR U+0071
ENCODING 113
SWIDTH 1000 0
DWIDTH 40 0
BBX 53 40 -6 -8
BITMAP
00000000000000
00000000000000
00000000000000
00000000000000
00000000000000
00000000000000
00000000000000
00000000000000
00000000000000
00000000000000
00000000000000
00000000000000
0007FFFE7E0000
0007FFFE7E0000
0007FFFE7E0000
000FFFFCFC0000
00FC000FFC0000
00FC000FFC0000
01F8001FF80000
01F8001FF80000
01F8001FF80000
03F0003FF00000
03F0003FF00000
03F0003FF00000
007FFFE7E00000
007FFFE7E00000
007FFFE7E00000
00FFFFCFC00000
0000000FC00000
0000000FC00000
0000001F800000
0000001F800000
0000001F800000
0000003F000000
0000003F000000
0000003F000000
0000007E000000
0000007E000000
0000007E000000
000000FC000000
ENDCHAR
STARTCHAR U+0070
ENCODING 112
SWIDTH 1000 0
DWIDTH 40 0
BBX 53 40 -6 -8
BITMAP
00000000000000
00000000000000
00000000000000
00000000000000
00000000000000
00000000000000
00000000000000
00000000000000
00000000000000
00000000000000
00000000000000
00000000000000
007E7FFFE00000
007E7FFFE00000
007E7FFFE00000
00FCFFFFC00000
00FFC000FC0000
00FFC000FC0000
01FF8001F80000
01FF8001F80000
01FF8001F80000
03FF0003F00000
03FF0003F00000
03FF0003F00000
07E7FFFE000000
07E7FFFE000000
07E7FFFE000000
0FCFFFFC000000
0FC00000000000
0FC00000000000
1F800000000000
1F800000000000
1F800000000000
3F000000000000
3F000000000000
3F000000000000
7E000000000000
7E000000000000
7E000000000000
FC000000000000
ENDCHAR
STARTCHAR U+006f
ENCODING 111
SWIDTH 1000 0
DWIDTH 40 0
BBX 53 40 -6 -8
BITMAP
00000000000000
00000000000000
00000000000000
00000000000000
00000000000000
00000000000000
00000000000000
00000000000000
00000000000000
00000000000000
00000000000000
00000000000000
0007FFFFE00000
0007FFFFE00000
0007FFFFE00000
000FFFFFC00000
00FC0000FC0000
00FC0000FC0000
01F80001F80000
01F80001F80000
01F80001F80000
03F00003F00000
03F00003F00000
03F00003F00000
07E00007E00000
07E00007E00000
07E00007E00000
0FC0000FC00000
00FFFFFC000000
00FFFFFC000000
01FFFFF8000000
01FFFFF8000000
00000000000000
00000000000000
00000000000000
00000000000000
00000000000000
00000000000000
00000000000000
00000000000000
ENDCHAR
STARTCHAR U+006e
ENCODING 110
SWIDTH 1000 0
DWIDTH 40 0
BBX 53 40 -6 -8
BITMAP
00000000000000
00000000000000
00000000000000
00000000000000
00000000000000
00000000000000
00000000000000
00000000000000
00000000000000
00000000000000
00000000000000
00000000000000
007E7FFFE00000
007E7FFFE00000
007E7FFFE00000
00FCFFFFC00000
00FFC000FC0000
00FFC000FC0000
01FF8001F80000
01FF8001F80000
01F80001F80000
03F00003F00000
03F00003F00000
03F00003F00000
07E00007E00000
07E00007E00000
07E00007E00000
0FC0000FC00000
0FC0000FC00000
0FC0000FC00000
1F80001F800000
1F80001F800000
00000000000000
00000000000000
00000000000000
00000000000000
00000000000000
00000000000000
00000000000000
00000000000000
ENDCHAR
STARTCHAR U+006d
ENCODING 109
SWIDTH 1000 0
DWIDTH 40 0
BBX 53 40 -6 -8
BITMAP
00000000000000
00000000000000
00000000000000
00000000000000
00000000000000
00000000000000
00000000000000
00000000000000
00000000000000
00000000000000
00000000000000
00000000000000
007FE007E00000
007FE007E00000
007FE007E00000
00FFC00FC00000
00FCFCFCFC0000
00FCFCFCFC0000
01F9F9F9F80000
01F9F9F9F80000
01F81F81F80000
03F03F03F00000
03F03F03F00000
03F03F03F00000
07E07E07E00000
07E07E07E00000
07E07E07E00000
0FC0FC0FC00000
0FC0000FC00000
0FC0000FC00000
1F80001F800000
1F80001F800000
00000000000000
00000000000000
00000000000000
00000000000000
00000000000000
00000000000000
00000000000000
00000000000000
ENDCHAR
STARTCHAR U+006c
ENCODING 108
SWIDTH 1000 0
DWIDTH 40 0
BBX 53 40 -6 -8
BITMAP
00000000000000
00000000000000
00000000000000
00000000000000
00000FFC000000
00000FFC000000
00001FF8000000
00001FF8000000
000001F8000000
000003F0000000
000003F0000000
000003F0000000
000007E0000000
000007E0000000
000007E0000000
00000FC0000000
00000FC0000000
00000FC0000000
00001F80000000
00001F80000000
00001F80000000
00003F00000000
00003F00000000
00003F00000000
00007E00000000
00007E00000000
00007E00000000
0000FC00000000
000FFFC0000000
000FFFC0000000
001FFF80000000
001FFF80000000
00000000000000
00000000000000
00000000000000
00000000000000
00000000000000
00000000000000
00000000000000
00000000000000
ENDCHAR
STARTCHAR U+006b
ENCODING 107
SWIDTH 1000 0
DWIDTH 40 0
BBX 53 40 -6 -8
BITMAP
00000000000000
00000000000000
00000000000000
00000000000000
000FC000000000
000FC000000000
001F8000000000
001F8000000000
001F8000000000
003F0000000000
003F0000000000
003F0000000000
007E007E000000
007E007E000000
007E007E000000
00FC00FC000000
00FC0FC0000000
00FC0FC0000000
01F81F80000000
01F81F80000000
01FFF800000000
03FFF000000000
03FFF000000000
03FFF000000000
07E007E0000000
07E007E0000000
07E007E0000000
0FC00FC0000000
0FC0000FC00000
0FC0000FC00000
1F80001F800000
1F80001F800000
00000000000000
00000000000000
00000000000000
00000000000000
00000000000000
00000000000000
00000000000000
00000000000000
ENDCHAR
STARTCHAR U+006a
ENCODING 106
SWIDTH 1000 0
DWIDTH 40 0
BBX 53 40 -6 -8
BITMAP
00000000000000
00000000000000
00000000000000
00000000000000
00000000FC0000
00000000FC0000
00000001F80000
00000001F80000
00000000000000
00000000000000
00000000000000
00000000000000
00000007E00000
00000007E00000
00000007E00000
0000000FC00000
0000000FC00000
0000000FC00000
0000001F800000
0000001F800000
0000001F800000
0000003F000000
0000003F000000
0000003F000000
0000007E000000
0000007E000000
0000007E000000
000000FC000000
0FC000FC000000
0FC000FC000000
1F8001F8000000
1F8001F8000000
1F8001F8000000
3F0003F0000000
3F0003F0000000
3F0003F0000000
07FFFE00000000
07FFFE00000000
07FFFE00000000
0FFFFC00000000
ENDCHAR
STARTCHAR U+0069
ENCODING 105
SWIDTH 1000 0
DWIDTH 40 0
BBX 53 40 -6 -8
BITMAP
00000000000000
00000000000000
00000000000000
00000000000000
000000FC000000
000000FC000000
000001F8000000
000001F8000000
00000000000000
00000000000000
00000000000000
00000000000000
00007FE0000000
00007FE0000000
00007FE0000000
0000FFC0000000
00000FC0000000
00000FC0000000
00001F80000000
00001F80000000
00001F80000000
00003F00000000
00003F00000000
00003F00000000
00007E00000000
00007E00000000
00007E00000000
0000FC00000000
00FFFFFC000000
00FFFFFC000000
01FFFFF8000000
01FFFFF8000000
00000000000000
00000000000000
00000000000000
00000000000000
00000000000000
00000000000000
00000000000000
00000000000000
ENDCHAR
STARTCHAR U+0068
ENCODING 104
SWIDTH 1000 0
DWIDTH 40 0
BBX 53 40 -6 -8
BITMAP
00000000000000
00000000000000
00000000000000
00000000000000
000FC000000000
000FC000000000
001F8000000000
001F8000000000
001F8000000000
003F0000000000
003F0000000000
003F0000000000
007E7FFFE00000
007E7FFFE00000
007E7FFFE00000
00FCFFFFC00000
00FFC000FC0000
00FFC000FC0000
01FF8001F80000
01FF8001F80000
01F80001F80000
03F00003F00000
03F00003F00000
03F00003F00000
07E00007E00000
07E00007E00000
07E00007E00000
0FC0000FC00000
0FC0000FC00000
0FC0000FC00000
1F80001F800000
1F80001F800000
00000000000000
00000000000000
00000000000000
00000000000000
00000000000000
00000000000000
00000000000000
00000000000000
ENDCHAR
STARTCHAR U+0067
ENCODING 103
SWIDTH 1000 0
DWIDTH 40 0
BBX 53 40 -6 -8
BITMAP
00000000000000
00000000000000
00000000000000
00000000000000
00000000000000
00000000000000
00000000000000
00000000000000
00000000000000
00000000000000
00000000000000
00000000000000
0007FFFE7E0000
0007FFFE7E0000
0007FFFE7E0000
000FFFFCFC0000
00FC000FC00000
00FC000FC00000
01F8001F800000
01F8001F800000
001FFFF8000000
003FFFF0000000
003FFFF0000000
003FFFF0000000
07E00000000000
07E00000000000
07E00000000000
0FC00000000000
00FFFFFC000000
00FFFFFC000000
01FFFFF8000000
01FFFFF8000000
1F80001F800000
3F00003F000000
3F00003F000000
3F00003F000000
07FFFFE0000000
07FFFFE0000000
07FFFFE0000000
0FFFFFC0000000
ENDCHAR
STARTCHAR U+0066
ENCODING 102
SWIDTH 1000 0
DWIDTH 40 0
BBX 53 40 -6 -8
BITMAP
00000000000000
00000000000000
00000000000000
00000000000000
000000FFFC0000
000000FFFC0000
000001FFF80000
000001FFF80000
00001F801F8000
00003F003F0000
00003F003F0000
00003F003F0000
00007E00000000
00007E00000000
00007E00000000
0000FC00000000
00FFFFFC000000
00FFFFFC000000
01FFFFF8000000
01FFFFF8000000
0001F800000000
0003F000000000
0003F000000000
0003F000000000
0007E000000000
0007E000000000
0007E000000000
000FC000000000
000FC000000000
000FC000000000
001F8000000000
001F8000000000
00000000000000
00000000000000
00000000000000
00000000000000
00000000000000
00000000000000
00000000000000
00000000000000
ENDCHAR
STARTCHAR U+0065
ENCODING 101
SWIDTH 1000 0
DWIDTH 40 0
BBX 53 40 -6 -8
BITMAP
00000000000000
00000000000000
00000000000000
00000000000000
00000000000000
00000000000000
00000000000000
00000000000000
00000000000000
00000000000000
00000000000000
00000000000000
0007FFFFE00000
0007FFFFE00000
0007FFFFE00000
000FFFFFC00000
00FC0000FC0000
00FC0000FC0000
01F80001F80000
01F80001F80000
01FFFFFFF80000
03FFFFFFF00000
03FFFFFFF00000
03FFFFFFF00000
07E00000000000
07E00000000000
07E00000000000
0FC00000000000
00FFFFFC000000
00FFFFFC000000
01FFFFF8000000
01FFFFF8000000
00000000000000
00000000000000
00000000000000
00000000000000
00000000000000
00000000000000
00000000000000
00000000000000
ENDCHAR
STARTCHAR U+0064
ENCODING 100
SWIDTH 1000 0
DWIDTH 40 0
BBX 53 40 -6 -8
BITMAP
00000000000000
00000000000000
00000000000000
00000000000000
000000000FC000
000000000FC000
000000001F8000
000000001F8000
000000001F8000
000000003F0000
000000003F0000
000000003F0000
0007FFFE7E0000
0007FFFE7E0000
0007FFFE7E0000
000FFFFCFC0000
00FC000FFC0000
00FC000FFC0000
01F8001FF80000
01F8001FF80000
01F80001F80000
03F00003F00000
03F00003F00000
03F00003F00000
07E0007FE00000
07E0007FE00000
07E0007FE00000
0FC000FFC00000
00FFFFCFC00000
00FFFFCFC00000
01FFFF9F800000
01FFFF9F800000
00000000000000
00000000000000
00000000000000
00000000000000
00000000000000
00000000000000
00000000000000
00000000000000
ENDCHAR
STARTCHAR U+0063
ENCODING 99
SWIDTH 1000 0
DWIDTH 40 0
BBX 53 40 -6 -8
BITMAP
00000000000000
00000000000000
00000000000000
00000000000000
00000000000000
00000000000000
00000000000000
00000000000000
00000000000000
00000000000000
00000000000000
00000000000000
0007FFFFE00000
0007FFFFE00000
0007FFFFE00000
000FFFFFC00000
00FC0000FC0000
00FC0000FC0000
01F80001F80000
01F80001F80000
01F80000000000
03F00000000000
03F00000000000
03F00000000000
07E00000000000
07E00000000000
07E00000000000
0FC00000000000
00FFFFFFC00000
00FFFFFFC00000
01FFFFFF800000
01FFFFFF800000
00000000000000
00000000000000
00000000000000
00000000000000
00000000000000
00000000000000
00000000000000
00000000000000
ENDCHAR
STARTCHAR U+0062
ENCODING 98
SWIDTH 1000 0
DWIDTH 40 0
BBX 53 40 -6 -8
BITMAP
00000000000000
00000000000000
00000000000000
00000000000000
000FC000000000
000FC000000000
001F8000000000
001F8000000000
001F8000000000
003F0000000000
003F0000000000
003F0000000000
007E7FFFE00000
007E7FFFE00000
007E7FFFE00000
00FCFFFFC00000
00FFC000FC0000
00FFC000FC0000
01FF8001F80000
01FF8001F80000
01F80001F80000
03F00003F00000
03F00003F00000
03F00003F00000
07FE0007E00000
07FE0007E00000
07FE0007E00000
0FFC000FC00000
0FCFFFFC000000
0FCFFFFC000000
1F9FFFF8000000
1F9FFFF8000000
00000000000000
00000000000000
00000000000000
00000000000000
00000000000000
00000000000000
00000000000000
00000000000000
ENDCHAR
STARTCHAR U+0061
ENCODING 97
SWIDTH 1000 0
DWIDTH 40 0
BBX 53 40 -6 -8
BITMAP
00000000000000
00000000000000
00000000000000
00000000000000
00000000000000
00000000000000
00000000000000
00000000000000
00000000000000
00000000000000
00000000000000
00000000000000
0007FFFFE00000
0007FFFFE00000
0007FFFFE00000
000FFFFFC00000
00000000FC0000
00000000FC0000
00000001F80000
00000001F80000
001FFFFFF80000
003FFFFFF00000
003FFFFFF00000
003FFFFFF00000
07E0007FE00000
07E0007FE00000
07E0007FE00000
0FC000FFC00000
00FFFFCFC00000
00FFFFCFC00000
01FFFF9F800000
01FFFF9F800000
00000000000000
00000000000000
00000000000000
00000000000000
00000000000000
00000000000000
00000000000000
00000000000000
ENDCHAR
STARTCHAR U+0060
ENCODING 96
SWIDTH 1000 0
DWIDTH 40 0
BBX 53 40 -6 -8
BITMAP
00000000000000
00000000000000
00000000000000
00000000000000
00000FFC000000
00000FFC000000
00001FF8000000
00001FF8000000
000001F8000000
000003F0000000
000003F0000000
000003F0000000
0000007E000000
0000007E000000
0000007E000000
000000FC000000
00000000000000
00000000000000
00000000000000
00000000000000
00000000000000
00000000000000
00000000000000
00000000000000
00000000000000
00000000000000
00000000000000
00000000000000
00000000000000
00000000000000
00000000000000
00000000000000
00000000000000
00000000000000
00000000000000
00000000000000
00000000000000
00000000000000
00000000000000
00000000000000
ENDCHAR
STARTCHAR U+005F
ENCODING 95
SWIDTH 1000 0
DWIDTH 40 0
BBX 53 40 -6 -8
BITMAP
00000000000000
00000000000000
00000000000000
00000000000000
00000000000000
00000000000000
00000000000000
00000000000000
00000000000000
00000000000000
00000000000000
00000000000000
00000000000000
00000000000000
00000000000000
00000000000000
00000000000000
00000000000000
00000000000000
00000000000000
00000000000000
00000000000000
00000000000000
00000000000000
00000000000000
00000000000000
00000000000000
00000000000000
0FFFFFFFC00000
0FFFFFFFC00000
1FFFFFFF800000
1FFFFFFF800000
00000000000000
00000000000000
00000000000000
00000000000000
00000000000000
00000000000000
00000000000000
00000000000000
ENDCHAR
STARTCHAR U+005E
ENCODING 94
SWIDTH 1000 0
DWIDTH 40 0
BBX 53 40 -6 -8
BITMAP
00000000000000
00000000000000
00000000000000
00000000000000
000000FC000000
000000FC000000
000001F8000000
000001F8000000
00001F9F800000
00003F3F000000
00003F3F000000
00003F3F000000
0007E007E00000
0007E007E00000
0007E007E00000
000FC00FC00000
00FC0000FC0000
00FC0000FC0000
01F80001F80000
01F80001F80000
00000000000000
00000000000000
00000000000000
00000000000000
00000000000000
00000000000000
00000000000000
00000000000000
00000000000000
00000000000000
00000000000000
00000000000000
00000000000000
00000000000000
00000000000000
00000000000000
00000000000000
00000000000000
00000000000000
00000000000000
ENDCHAR
STARTCHAR U+005D
ENCODING 93
SWIDTH 1000 0
DWIDTH 40 0
BBX 53 40 -6 -8
BITMAP
00000000000000
00000000000000
00000000000000
00000000000000
0000FFFFC00000
0000FFFFC00000
0001FFFF800000
0001FFFF800000
0000001F800000
0000003F000000
0000003F000000
0000003F000000
0000007E000000
0000007E000000
0000007E000000
000000FC000000
000000FC000000
000000FC000000
000001F8000000
000001F8000000
000001F8000000
000003F0000000
000003F0000000
000003F0000000
000007E0000000
000007E0000000
000007E0000000
00000FC0000000
00FFFFC0000000
00FFFFC0000000
01FFFF80000000
01FFFF80000000
00000000000000
00000000000000
00000000000000
00000000000000
00000000000000
00000000000000
00000000000000
00000000000000
ENDCHAR
STARTCHAR U+005C
ENCODING 92
SWIDTH 1000 0
DWIDTH 40 0
BBX 53 40 -6 -8
BITMAP
00000000000000
00000000000000
00000000000000
00000000000000
000FC000000000
000FC000000000
001F8000000000
001F8000000000
0001F800000000
0003F000000000
0003F000000000
0003F000000000
00007E00000000
00007E00000000
00007E00000000
0000FC00000000
00000FC0000000
00000FC0000000
00001F80000000
00001F80000000
000001F8000000
000003F0000000
000003F0000000
000003F0000000
0000007E000000
0000007E000000
0000007E000000
000000FC000000
0000000FC00000
0000000FC00000
0000001F800000
0000001F800000
00000000000000
00000000000000
00000000000000
00000000000000
00000000000000
00000000000000
00000000000000
00000000000000
ENDCHAR
STARTCHAR U+005B
ENCODING 91
SWIDTH 1000 0
DWIDTH 40 0
BBX 53 40 -6 -8
BITMAP
00000000000000
00000000000000
00000000000000
00000000000000
00000FFFFC0000
00000FFFFC0000
00001FFFF80000
00001FFFF80000
00001F80000000
00003F00000000
00003F00000000
00003F00000000
00007E00000000
00007E00000000
00007E00000000
0000FC00000000
0000FC00000000
0000FC00000000
0001F800000000
0001F800000000
0001F800000000
0003F000000000
0003F000000000
0003F000000000
0007E000000000
0007E000000000
0007E000000000
000FC000000000
000FFFFC000000
000FFFFC000000
001FFFF8000000
001FFFF8000000
00000000000000
00000000000000
00000000000000
00000000000000
00000000000000
00000000000000
00000000000000
00000000000000
ENDCHAR
STARTCHAR U+005A
ENCODING 90
SWIDTH 1000 0
DWIDTH 40 0
BBX 53 40 -6 -8
BITMAP
00000000000000
00000000000000
00000000000000
00000000000000
000FFFFFFFC000
000FFFFFFFC000
001FFFFFFF8000
001FFFFFFF8000
00000001F80000
00000003F00000
00000003F00000
00000003F00000
0000007E000000
0000007E000000
0000007E000000
000000FC000000
00000FC0000000
00000FC0000000
00001F80000000
00001F80000000
0001F800000000
0003F000000000
0003F000000000
0003F000000000
007E0000000000
007E0000000000
007E0000000000
00FC0000000000
0FFFFFFFC00000
0FFFFFFFC00000
1FFFFFFF800000
1FFFFFFF800000
00000000000000
00000000000000
00000000000000
00000000000000
00000000000000
00000000000000
00000000000000
00000000000000
ENDCHAR
STARTCHAR U+0059
ENCODING 89
SWIDTH 1000 0
DWIDTH 40 0
BBX 53 40 -6 -8
BITMAP
00000000000000
00000000000000
00000000000000
00000000000000
000FC0000FC000
000FC0000FC000
001F80001F8000
001F80001F8000
0001F801F80000
0003F003F00000
0003F003F00000
0003F003F00000
00007E7E000000
00007E7E000000
00007E7E000000
0000FCFC000000
00000FC0000000
00000FC0000000
00001F80000000
00001F80000000
00001F80000000
00003F00000000
00003F00000000
00003F00000000
00007E00000000
00007E00000000
00007E00000000
0000FC00000000
0000FC00000000
0000FC00000000
0001F800000000
0001F800000000
00000000000000
00000000000000
00000000000000
00000000000000
00000000000000
00000000000000
00000000000000
00000000000000
ENDCHAR
STARTCHAR U+0058
ENCODING 88
SWIDTH 1000 0
DWIDTH 40 0
BBX 53 40 -6 -8
BITMAP
00000000000000
00000000000000
00000000000000
00000000000000
000FC0000FC000
000FC0000FC000
001F80001F8000
001F80001F8000
0001F801F80000
0003F003F00000
0003F003F00000
0003F003F00000
00007E7E000000
00007E7E000000
00007E7E000000
0000FCFC000000
00000FC0000000
00000FC0000000
00001F80000000
00001F80000000
0001F9F8000000
0003F3F0000000
0003F3F0000000
0003F3F0000000
007E007E000000
007E007E000000
007E007E000000
00FC00FC000000
0FC0000FC00000
0FC0000FC00000
1F80001F800000
1F80001F800000
00000000000000
00000000000000
00000000000000
00000000000000
00000000000000
00000000000000
00000000000000
00000000000000
ENDCHAR
STARTCHAR U+0057
ENCODING 87
SWIDTH 1000 0
DWIDTH 40 0
BBX 53 40 -6 -8
BITMAP
00000000000000
00000000000000
00000000000000
00000000000000
000FC0000FC000
000FC0000FC000
001F80001F8000
001F80001F8000
001F80001F8000
003F00003F0000
003F00003F0000
003F00003F0000
007E00007E0000
007E00007E0000
007E00007E0000
00FC0000FC0000
00FC0FC0FC0000
00FC0FC0FC0000
01F81F81F80000
01F81F81F80000
01F81F81F80000
03F03F03F00000
03F03F03F00000
03F03F03F00000
07E7E7E7E00000
07E7E7E7E00000
07E7E7E7E00000
0FCFCFCFC00000
00FC00FC000000
00FC00FC000000
01F801F8000000
01F801F8000000
00000000000000
00000000000000
00000000000000
00000000000000
00000000000000
00000000000000
00000000000000
00000000000000
ENDCHAR
STARTCHAR U+0056
ENCODING 86
SWIDTH 1000 0
DWIDTH 40 0
BBX 53 40 -6 -8
BITMAP
00000000000000
00000000000000
00000000000000
00000000000000
000FC0000FC000
000FC0000FC000
001F80001F8000
001F80001F8000
001F80001F8000
003F00003F0000
003F00003F0000
003F00003F0000
0007E007E00000
0007E007E00000
0007E007E00000
000FC00FC00000
000FC00FC00000
000FC00FC00000
001F801F800000
001F801F800000
0001F9F8000000
0003F3F0000000
0003F3F0000000
0003F3F0000000
0007E7E0000000
0007E7E0000000
0007E7E0000000
000FCFC0000000
0000FC00000000
0000FC00000000
0001F800000000
0001F800000000
00000000000000
00000000000000
00000000000000
00000000000000
00000000000000
00000000000000
00000000000000
00000000000000
ENDCHAR
STARTCHAR U+0055
ENCODING 85
SWIDTH 1000 0
DWIDTH 40 0
BBX 53 40 -6 -8
BITMAP
00000000000000
00000000000000
00000000000000
00000000000000
000FC0000FC000
000FC0000FC000
001F80001F8000
001F80001F8000
001F80001F8000
003F00003F0000
003F00003F0000
003F00003F0000
007E00007E0000
007E00007E0000
007E00007E0000
00FC0000FC0000
00FC0000FC0000
00FC0000FC0000
01F80001F80000
01F80001F80000
01F80001F80000
03F00003F00000
03F00003F00000
03F00003F00000
07E00007E00000
07E00007E00000
07E00007E00000
0FC0000FC00000
00FFFFFC000000
00FFFFFC000000
01FFFFF8000000
01FFFFF8000000
00000000000000
00000000000000
00000000000000
00000000000000
00000000000000
00000000000000
00000000000000
00000000000000
ENDCHAR
STARTCHAR U+0054
ENCODING 84
SWIDTH 1000 0
DWIDTH 40 0
BBX 53 40 -6 -8
BITMAP
00000000000000
00000000000000
00000000000000
00000000000000
000FFFFFFFC000
000FFFFFFFC000
001FFFFFFF8000
001FFFFFFF8000
000001F8000000
000003F0000000
000003F0000000
000003F0000000
000007E0000000
000007E0000000
000007E0000000
00000FC0000000
00000FC0000000
00000FC0000000
00001F80000000
00001F80000000
00001F80000000
00003F00000000
00003F00000000
00003F00000000
00007E00000000
00007E00000000
00007E00000000
0000FC00000000
0000FC00000000
0000FC00000000
0001F800000000
0001F800000000
00000000000000
00000000000000
00000000000000
00000000000000
00000000000000
00000000000000
00000000000000
00000000000000
ENDCHAR
STARTCHAR U+0053
ENCODING 83
SWIDTH 1000 0
DWIDTH 40 0
BBX 53 40 -6 -8
BITMAP
00000000000000
00000000000000
00000000000000
00000000000000
0000FFFFFC0000
0000FFFFFC0000
0001FFFFF80000
0001FFFFF80000
001F80001F8000
003F00003F0000
003F00003F0000
003F00003F0000
007E0000000000
007E0000000000
007E0000000000
00FC0000000000
000FFFFFC00000
000FFFFFC00000
001FFFFF800000
001FFFFF800000
00000001F80000
00000003F00000
00000003F00000
00000003F00000
07E00007E00000
07E00007E00000
07E00007E00000
0FC0000FC00000
00FFFFFC000000
00FFFFFC000000
01FFFFF8000000
01FFFFF8000000
00000000000000
00000000000000
00000000000000
00000000000000
00000000000000
00000000000000
00000000000000
00000000000000
ENDCHAR
STARTCHAR U+0052
ENCODING 82
SWIDTH 1000 0
DWIDTH 40 0
BBX 53 40 -6 -8
BITMAP
00000000000000
00000000000000
00000000000000
00000000000000
000FFFFFFC0000
000FFFFFFC0000
001FFFFFF80000
001FFFFFF80000
001F80001F8000
003F00003F0000
003F00003F0000
003F00003F0000
007E00007E0000
007E00007E0000
007E00007E0000
00FC0000FC0000
00FFFFFFC00000
00FFFFFFC00000
01FFFFFF800000
01FFFFFF800000
01F801F8000000
03F003F0000000
03F003F0000000
03F003F0000000
07E0007E000000
07E0007E000000
07E0007E000000
0FC000FC000000
0FC0000FC00000
0FC0000FC00000
1F80001F800000
1F80001F800000
00000000000000
00000000000000
00000000000000
00000000000000
00000000000000
00000000000000
00000000000000
00000000000000
ENDCHAR
STARTCHAR U+0051
ENCODING 81
SWIDTH 1000 0
DWIDTH 40 0
BBX 53 40 -6 -8
BITMAP
00000000000000
00000000000000
00000000000000
00000000000000
0000FFFFFC0000
0000FFFFFC0000
0001FFFFF80000
0001FFFFF80000
001F80001F8000
003F00003F0000
003F00003F0000
003F00003F0000
007E00007E0000
007E00007E0000
007E00007E0000
00FC0000FC0000
00FC0000FC0000
00FC0000FC0000
01F80001F80000
01F80001F80000
01F801F9F80000
03F003F3F00000
03F003F3F00000
03F003F3F00000
07E0007E000000
07E0007E000000
07E0007E000000
0FC000FC000000
00FFFFCFC00000
00FFFFCFC00000
01FFFF9F800000
01FFFF9F800000
00000000000000
00000000000000
00000000000000
00000000000000
00000000000000
00000000000000
00000000000000
00000000000000
ENDCHAR
STARTCHAR U+0050
ENCODING 80
SWIDTH 1000 0
DWIDTH 40 0
BBX 53 40 -6 -8
BITMAP
00000000000000
00000000000000
00000000000000
00000000000000
000FFFFFFC0000
000FFFFFFC0000
001FFFFFF80000
001FFFFFF80000
001F80001F8000
003F00003F0000
003F00003F0000
003F00003F0000
007E00007E0000
007E00007E0000
007E00007E0000
00FC0000FC0000
00FFFFFFC00000
00FFFFFFC00000
01FFFFFF800000
01FFFFFF800000
01F80000000000
03F00000000000
03F00000000000
03F00000000000
07E00000000000
07E00000000000
07E00000000000
0FC00000000000
0FC00000000000
0FC00000000000
1F800000000000
1F800000000000
00000000000000
00000000000000
00000000000000
00000000000000
00000000000000
00000000000000
00000000000000
00000000000000
ENDCHAR
STARTCHAR U+004F
ENCODING 79
SWIDTH 1000 0
DWIDTH 40 0
BBX 53 40 -6 -8
BITMAP
00000000000000
00000000000000
00000000000000
00000000000000
0000FFFFFC0000
0000FFFFFC0000
0001FFFFF80000
0001FFFFF80000
001F80001F8000
003F00003F0000
003F00003F0000
003F00003F0000
007E00007E0000
007E00007E0000
007E00007E0000
00FC0000FC0000
00FC0000FC0000
00FC0000FC0000
01F80001F80000
01F80001F80000
01F80001F80000
03F00003F00000
03F00003F00000
03F00003F00000
07E00007E00000
07E00007E00000
07E00007E00000
0FC0000FC00000
00FFFFFC000000
00FFFFFC000000
01FFFFF8000000
01FFFFF8000000
00000000000000
00000000000000
00000000000000
00000000000000
00000000000000
00000000000000
00000000000000
00000000000000
ENDCHAR
STARTCHAR U+004E
ENCODING 78
SWIDTH 1000 0
DWIDTH 40 0
BBX 53 40 -6 -8
BITMAP
00000000000000
00000000000000
00000000000000
00000000000000
000FC0000FC000
000FC0000FC000
001F80001F8000
001F80001F8000
001FF8001F8000
003FF0003F0000
003FF0003F0000
003FF0003F0000
007E7E007E0000
007E7E007E0000
007E7E007E0000
00FCFC00FC0000
00FC0FC0FC0000
00FC0FC0FC0000
01F81F81F80000
01F81F81F80000
01F801F9F80000
03F003F3F00000
03F003F3F00000
03F003F3F00000
07E0007FE00000
07E0007FE00000
07E0007FE00000
0FC000FFC00000
0FC0000FC00000
0FC0000FC00000
1F80001F800000
1F80001F800000
00000000000000
00000000000000
00000000000000
00000000000000
00000000000000
00000000000000
00000000000000
00000000000000
ENDCHAR
STARTCHAR U+004D
ENCODING 77
SWIDTH 1000 0
DWIDTH 40 0
BBX 53 40 -6 -8
BITMAP
00000000000000
00000000000000
00000000000000
00000000000000
000FC0000FC000
000FC0000FC000
001F80001F8000
001F80001F8000
001FF801FF8000
003FF003FF0000
003FF003FF0000
003FF003FF0000
007E7E7E7E0000
007E7E7E7E0000
007E7E7E7E0000
00FCFCFCFC0000
00FC0FC0FC0000
00FC0FC0FC0000
01F81F81F80000
01F81F81F80000
01F80001F80000
03F00003F00000
03F00003F00000
03F00003F00000
07E00007E00000
07E00007E00000
07E00007E00000
0FC0000FC00000
0FC0000FC00000
0FC0000FC00000
1F80001F800000
1F80001F800000
00000000000000
00000000000000
00000000000000
00000000000000
00000000000000
00000000000000
00000000000000
00000000000000
ENDCHAR
STARTCHAR U+004C
ENCODING 76
SWIDTH 1000 0
DWIDTH 40 0
BBX 53 40 -6 -8
BITMAP
00000000000000
00000000000000
00000000000000
00000000000000
000FC000000000
000FC000000000
001F8000000000
001F8000000000
001F8000000000
003F0000000000
003F0000000000
003F0000000000
007E0000000000
007E0000000000
007E0000000000
00FC0000000000
00FC0000000000
00FC0000000000
01F80000000000
01F80000000000
01F80000000000
03F00000000000
03F00000000000
03F00000000000
07E00000000000
07E00000000000
07E00000000000
0FC00000000000
0FFFFFFFC00000
0FFFFFFFC00000
1FFFFFFF800000
1FFFFFFF800000
00000000000000
00000000000000
00000000000000
00000000000000
00000000000000
00000000000000
00000000000000
00000000000000
ENDCHAR
STARTCHAR U+004B
ENCODING 75
SWIDTH 1000 0
DWIDTH 40 0
BBX 53 40 -6 -8
BITMAP
00000000000000
00000000000000
00000000000000
00000000000000
000FC0000FC000
000FC0000FC000
001F80001F8000
001F80001F8000
001F801FF80000
003F003FF00000
003F003FF00000
003F003FF00000
007E7FE0000000
007E7FE0000000
007E7FE0000000
00FCFFC0000000
00FFC000000000
00FFC000000000
01FF8000000000
01FF8000000000
01F9FF80000000
03F3FF00000000
03F3FF00000000
03F3FF00000000
07E007FE000000
07E007FE000000
07E007FE000000
0FC00FFC000000
0FC0000FC00000
0FC0000FC00000
1F80001F800000
1F80001F800000
00000000000000
00000000000000
00000000000000
00000000000000
00000000000000
00000000000000
00000000000000
00000000000000
ENDCHAR
STARTCHAR U+004A
ENCODING 74
SWIDTH 1000 0
DWIDTH 40 0
BBX 53 40 -6 -8
BITMAP
00000000000000
00000000000000
00000000000000
00000000000000
0000000FFFC000
0000000FFFC000
0000001FFF8000
0000001FFF8000
00000001F80000
00000003F00000
00000003F00000
00000003F00000
00000007E00000
00000007E00000
00000007E00000
0000000FC00000
0000000FC00000
0000000FC00000
0000001F800000
0000001F800000
0000001F800000
0000003F000000
0000003F000000
0000003F000000
07E0007E000000
07E0007E000000
07E0007E000000
0FC000FC000000
00FFFFC0000000
00FFFFC0000000
01FFFF80000000
01FFFF80000000
00000000000000
00000000000000
00000000000000
00000000000000
00000000000000
00000000000000
00000000000000
00000000000000
ENDCHAR
STARTCHAR U+0049
ENCODING 73
SWIDTH 1000 0
DWIDTH 40 0
BBX 53 40 -6 -8
BITMAP
00000000000000
00000000000000
00000000000000
00000000000000
0000FFFFFC0000
0000FFFFFC0000
0001FFFFF80000
0001FFFFF80000
000001F8000000
000003F0000000
000003F0000000
000003F0000000
000007E0000000
000007E0000000
000007E0000000
00000FC0000000
00000FC0000000
00000FC0000000
00001F80000000
00001F80000000
00001F80000000
00003F00000000
00003F00000000
00003F00000000
00007E00000000
00007E00000000
00007E00000000
0000FC00000000
00FFFFFC000000
00FFFFFC000000
01FFFFF8000000
01FFFFF8000000
00000000000000
00000000000000
00000000000000
00000000000000
00000000000000
00000000000000
00000000000000
00000000000000
ENDCHAR
STARTCHAR U+0048
ENCODING 72
SWIDTH 1000 0
DWIDTH 40 0
BBX 53 40 -6 -8
BITMAP
00000000000000
00000000000000
00000000000000
00000000000000
000FC0000FC000
000FC0000FC000
001F80001F8000
001F80001F8000
001F80001F8000
003F00003F0000
003F00003F0000
003F00003F0000
007E00007E0000
007E00007E0000
007E00007E0000
00FC0000FC0000
00FFFFFFFC0000
00FFFFFFFC0000
01FFFFFFF80000
01FFFFFFF80000
01F80001F80000
03F00003F00000
03F00003F00000
03F00003F00000
07E00007E00000
07E00007E00000
07E00007E00000
0FC0000FC00000
0FC0000FC00000
0FC0000FC00000
1F80001F800000
1F80001F800000
00000000000000
00000000000000
00000000000000
00000000000000
00000000000000
00000000000000
00000000000000
00000000000000
ENDCHAR
STARTCHAR U+0047
ENCODING 71
SWIDTH 1000 0
DWIDTH 40 0
BBX 53 40 -6 -8
BITMAP
00000000000000
00000000000000
00000000000000
00000000000000
00000FFFFC0000
00000FFFFC0000
00001FFFF80000
00001FFFF80000
0001F8001F8000
0003F0003F0000
0003F0003F0000
0003F0003F0000
007E0000000000
007E0000000000
007E0000000000
00FC0000000000
00FC0000000000
00FC0000000000
01F80000000000
01F80000000000
01F801FFF80000
03F003FFF00000
03F003FFF00000
03F003FFF00000
007E0007E00000
007E0007E00000
007E0007E00000
00FC000FC00000
000FFFFC000000
000FFFFC000000
001FFFF8000000
001FFFF8000000
00000000000000
00000000000000
00000000000000
00000000000000
00000000000000
00000000000000
00000000000000
00000000000000
ENDCHAR
STARTCHAR U+0046
ENCODING 70
SWIDTH 1000 0
DWIDTH 40 0
BBX 53 40 -6 -8
BITMAP
00000000000000
00000000000000
00000000000000
00000000000000
000FFFFFFFC000
000FFFFFFFC000
001FFFFFFF8000
001FFFFFFF8000
001F8000000000
003F0000000000
003F0000000000
003F0000000000
007E0000000000
007E0000000000
007E0000000000
00FC0000000000
00FFFFFC000000
00FFFFFC000000
01FFFFF8000000
01FFFFF8000000
01F80000000000
03F00000000000
03F00000000000
03F00000000000
07E00000000000
07E00000000000
07E00000000000
0FC00000000000
0FC00000000000
0FC00000000000
1F800000000000
1F800000000000
00000000000000
00000000000000
00000000000000
00000000000000
00000000000000
00000000000000
00000000000000
00000000000000
ENDCHAR
STARTCHAR U+0045
ENCODING 69
SWIDTH 1000 0
DWIDTH 40 0
BBX 53 40 -6 -8
BITMAP
00000000000000
00000000000000
00000000000000
00000000000000
000FFFFFFFC000
000FFFFFFFC000
001FFFFFFF8000
001FFFFFFF8000
001F8000000000
003F0000000000
003F0000000000
003F0000000000
007E0000000000
007E0000000000
007E0000000000
00FC0000000000
00FFFFFC000000
00FFFFFC000000
01FFFFF8000000
01FFFFF8000000
01F80000000000
03F00000000000
03F00000000000
03F00000000000
07E00000000000
07E00000000000
07E00000000000
0FC00000000000
0FFFFFFFC00000
0FFFFFFFC00000
1FFFFFFF800000
1FFFFFFF800000
00000000000000
00000000000000
00000000000000
00000000000000
00000000000000
00000000000000
00000000000000
00000000000000
ENDCHAR
STARTCHAR U+0044
ENCODING 68
SWIDTH 1000 0
DWIDTH 40 0
BBX 53 40 -6 -8
BITMAP
00000000000000
00000000000000
00000000000000
00000000000000
000FFFFFC00000
000FFFFFC00000
001FFFFF800000
001FFFFF800000
0001F801F80000
0003F003F00000
0003F003F00000
0003F003F00000
0007E0007E0000
0007E0007E0000
0007E0007E0000
000FC000FC0000
000FC000FC0000
000FC000FC0000
001F8001F80000
001F8001F80000
001F8001F80000
003F0003F00000
003F0003F00000
003F0003F00000
007E007E000000
007E007E000000
007E007E000000
00FC00FC000000
0FFFFFC0000000
0FFFFFC0000000
1FFFFF80000000
1FFFFF80000000
00000000000000
00000000000000
00000000000000
00000000000000
00000000000000
00000000000000
00000000000000
00000000000000
ENDCHAR
STARTCHAR U+0043
ENCODING 67
SWIDTH 1000 0
DWIDTH 40 0
BBX 53 40 -6 -8
BITMAP
00000000000000
00000000000000
00000000000000
00000000000000
00000FFFFC0000
00000FFFFC0000
00001FFFF80000
00001FFFF80000
0001F8001F8000
0003F0003F0000
0003F0003F0000
0003F0003F0000
007E0000000000
007E0000000000
007E0000000000
00FC0000000000
00FC0000000000
00FC0000000000
01F80000000000
01F80000000000
01F80000000000
03F00000000000
03F00000000000
03F00000000000
007E0007E00000
007E0007E00000
007E0007E00000
00FC000FC00000
000FFFFC000000
000FFFFC000000
001FFFF8000000
001FFFF8000000
00000000000000
00000000000000
00000000000000
00000000000000
00000000000000
00000000000000
00000000000000
00000000000000
ENDCHAR
STARTCHAR U+0042
ENCODING 66
SWIDTH 1000 0
DWIDTH 40 0
BBX 53 40 -6 -8
BITMAP
00000000000000
00000000000000
00000000000000
00000000000000
000FFFFFFC0000
000FFFFFFC0000
001FFFFFF80000
001FFFFFF80000
0001F8001F8000
0003F0003F0000
0003F0003F0000
0003F0003F0000
0007E0007E0000
0007E0007E0000
0007E0007E0000
000FC000FC0000
000FFFFFC00000
000FFFFFC00000
001FFFFF800000
001FFFFF800000
001F8001F80000
003F0003F00000
003F0003F00000
003F0003F00000
007E0007E00000
007E0007E00000
007E0007E00000
00FC000FC00000
0FFFFFFC000000
0FFFFFFC000000
1FFFFFF8000000
1FFFFFF8000000
00000000000000
00000000000000
00000000000000
00000000000000
00000000000000
00000000000000
00000000000000
00000000000000
ENDCHAR
STARTCHAR U+0041
ENCODING 65
SWIDTH 1000 0
DWIDTH 40 0
BBX 53 40 -6 -8
BITMAP
00000000000000
00000000000000
00000000000000
00000000000000
000000FC000000
000000FC000000
000001F8000000
000001F8000000
00001F9F800000
00003F3F000000
00003F3F000000
00003F3F000000
0007E007E00000
0007E007E00000
0007E007E00000
000FC00FC00000
00FC0000FC0000
00FC0000FC0000
01F80001F80000
01F80001F80000
01FFFFFFF80000
03FFFFFFF00000
03FFFFFFF00000
03FFFFFFF00000
07E00007E00000
07E00007E00000
07E00007E00000
0FC0000FC00000
0FC0000FC00000
0FC0000FC00000
1F80001F800000
1F80001F800000
00000000000000
00000000000000
00000000000000
00000000000000
00000000000000
00000000000000
00000000000000
00000000000000
ENDCHAR
STARTCHAR U+0040
ENCODING 64
SWIDTH 1000 0
DWIDTH 40 0
BBX 53 40 -6 -8
BITMAP
00000000000000
00000000000000
00000000000000
00000000000000
0000FFFFFC0000
0000FFFFFC0000
0001FFFFF80000
0001FFFFF80000
001F80001F8000
003F00003F0000
003F00003F0000
003F00003F0000
007E07FFFE0000
007E07FFFE0000
007E07FFFE0000
00FC0FFFFC0000
00FCFC0FFC0000
00FCFC0FFC0000
01F9F81FF80000
01F9F81FF80000
01F81FF9F80000
03F03FF3F00000
03F03FF3F00000
03F03FF3F00000
07E00000000000
07E00000000000
07E00000000000
0FC00000000000
00FFFFFC000000
00FFFFFC000000
01FFFFF8000000
01FFFFF8000000
00000000000000
00000000000000
00000000000000
00000000000000
00000000000000
00000000000000
00000000000000
00000000000000
ENDCHAR
STARTCHAR U+003F
ENCODING 63
SWIDTH 1000 0
DWIDTH 40 0
BBX 53 40 -6 -8
BITMAP
00000000000000
00000000000000
00000000000000
00000000000000
0000FFFFFC0000
0000FFFFFC0000
0001FFFFF80000
0001FFFFF80000
001F80001F8000
003F00003F0000
003F00003F0000
003F00003F0000
0000007FE00000
0000007FE00000
0000007FE00000
000000FFC00000
00000FC0000000
00000FC0000000
00001F80000000
00001F80000000
00001F80000000
00003F00000000
00003F00000000
00003F00000000
00000000000000
00000000000000
00000000000000
00000000000000
0000FC00000000
0000FC00000000
0001F800000000
0001F800000000
00000000000000
00000000000000
00000000000000
00000000000000
00000000000000
00000000000000
00000000000000
00000000000000
ENDCHAR
STARTCHAR U+003E
ENCODING 62
SWIDTH 1000 0
DWIDTH 40 0
BBX 53 40 -6 -8
BITMAP
00000000000000
00000000000000
00000000000000
00000000000000
000FC000000000
000FC000000000
001F8000000000
001F8000000000
00001F80000000
00003F00000000
00003F00000000
00003F00000000
0000007E000000
0000007E000000
0000007E000000
000000FC000000
00000000FC0000
00000000FC0000
00000001F80000
00000001F80000
000001F8000000
000003F0000000
000003F0000000
000003F0000000
0007E000000000
0007E000000000
0007E000000000
000FC000000000
0FC00000000000
0FC00000000000
1F800000000000
1F800000000000
00000000000000
00000000000000
00000000000000
00000000000000
00000000000000
00000000000000
00000000000000
00000000000000
ENDCHAR
STARTCHAR U+003D
ENCODING 61
SWIDTH 1000 0
DWIDTH 40 0
BBX 53 40 -6 -8
BITMAP
00000000000000
00000000000000
00000000000000
00000000000000
00000000000000
00000000000000
00000000000000
00000000000000
00000000000000
00000000000000
00000000000000
00000000000000
007FFFFFFE0000
007FFFFFFE0000
007FFFFFFE0000
00FFFFFFFC0000
00000000000000
00000000000000
00000000000000
00000000000000
01FFFFFFF80000
03FFFFFFF00000
03FFFFFFF00000
03FFFFFFF00000
00000000000000
00000000000000
00000000000000
00000000000000
00000000000000
00000000000000
00000000000000
00000000000000
00000000000000
00000000000000
00000000000000
00000000000000
00000000000000
00000000000000
00000000000000
00000000000000
ENDCHAR
STARTCHAR U+003C
ENCODING 60
SWIDTH 1000 0
DWIDTH 40 0
BBX 53 40 -6 -8
BITMAP
00000000000000
00000000000000
00000000000000
00000000000000
000000000FC000
000000000FC000
000000001F8000
000000001F8000
0000001F800000
0000003F000000
0000003F000000
0000003F000000
00007E00000000
00007E00000000
00007E00000000
0000FC00000000
00FC0000000000
00FC0000000000
01F80000000000
01F80000000000
0001F800000000
0003F000000000
0003F000000000
0003F000000000
000007E0000000
000007E0000000
000007E0000000
00000FC0000000
0000000FC00000
0000000FC00000
0000001F800000
0000001F800000
00000000000000
00000000000000
00000000000000
00000000000000
00000000000000
00000000000000
00000000000000
00000000000000
ENDCHAR
STARTCHAR U+003B
ENCODING 59
SWIDTH 1000 0
DWIDTH 40 0
BBX 53 40 -6 -8
BITMAP
00000000000000
00000000000000
00000000000000
00000000000000
00000000000000
00000000000000
00000000000000
00000000000000
00001FF8000000
00003FF0000000
00003FF0000000
00003FF0000000
00007FE0000000
00007FE0000000
00007FE0000000
0000FFC0000000
00000000000000
00000000000000
00000000000000
00000000000000
00000000000000
00000000000000
00000000000000
00000000000000
0007FE00000000
0007FE00000000
0007FE00000000
000FFC00000000
000FC000000000
000FC000000000
001F8000000000
001F8000000000
01F80000000000
03F00000000000
03F00000000000
03F00000000000
00000000000000
00000000000000
00000000000000
00000000000000
ENDCHAR
STARTCHAR U+003A
ENCODING 58
SWIDTH 1000 0
DWIDTH 40 0
BBX 53 40 -6 -8
BITMAP
00000000000000
00000000000000
00000000000000
00000000000000
00000000000000
00000000000000
00000000000000
00000000000000
00001FF8000000
00003FF0000000
00003FF0000000
00003FF0000000
00007FE0000000
00007FE0000000
00007FE0000000
0000FFC0000000
00000000000000
00000000000000
00000000000000
00000000000000
00000000000000
00000000000000
00000000000000
00000000000000
0007FE00000000
0007FE00000000
0007FE00000000
000FFC00000000
000FFC00000000
000FFC00000000
001FF800000000
001FF800000000
00000000000000
00000000000000
00000000000000
00000000000000
00000000000000
00000000000000
00000000000000
00000000000000
ENDCHAR
STARTCHAR U+0039
ENCODING 57
SWIDTH 1000 0
DWIDTH 40 0
BBX 53 40 -6 -8
BITMAP
00000000000000
00000000000000
00000000000000
00000000000000
0000FFFFFC0000
0000FFFFFC0000
0001FFFFF80000
0001FFFFF80000
001F80001F8000
003F00003F0000
003F00003F0000
003F00003F0000
007E0007FE0000
007E0007FE0000
007E0007FE0000
00FC000FFC0000
000FFFFCFC0000
000FFFFCFC0000
001FFFF9F80000
001FFFF9F80000
00000001F80000
00000003F00000
00000003F00000
00000003F00000
0000007E000000
0000007E000000
0000007E000000
000000FC000000
00FFFFC0000000
00FFFFC0000000
01FFFF80000000
01FFFF80000000
00000000000000
00000000000000
00000000000000
00000000000000
00000000000000
00000000000000
00000000000000
00000000000000
ENDCHAR
STARTCHAR U+0038
ENCODING 56
SWIDTH 1000 0
DWIDTH 40 0
BBX 53 40 -6 -8
BITMAP
00000000000000
00000000000000
00000000000000
00000000000000
0000FFFFFC0000
0000FFFFFC0000
0001FFFFF80000
0001FFFFF80000
001F80001F8000
003F00003F0000
003F00003F0000
003F00003F0000
007E00007E0000
007E00007E0000
007E00007E0000
00FC0000FC0000
000FFFFFC00000
000FFFFFC00000
001FFFFF800000
001FFFFF800000
01F80001F80000
03F00003F00000
03F00003F00000
03F00003F00000
07E00007E00000
07E00007E00000
07E00007E00000
0FC0000FC00000
00FFFFFC000000
00FFFFFC000000
01FFFFF8000000
01FFFFF8000000
00000000000000
00000000000000
00000000000000
00000000000000
00000000000000
00000000000000
00000000000000
00000000000000
ENDCHAR
STARTCHAR U+0037
ENCODING 55
SWIDTH 1000 0
DWIDTH 40 0
BBX 53 40 -6 -8
BITMAP
00000000000000
00000000000000
00000000000000
00000000000000
000FFFFFFFC000
000FFFFFFFC000
001FFFFFFF8000
001FFFFFFF8000
000000001F8000
000000003F0000
000000003F0000
000000003F0000
00000007E00000
00000007E00000
00000007E00000
0000000FC00000
000000FC000000
000000FC000000
000001F8000000
000001F8000000
00001F80000000
00003F00000000
00003F00000000
00003F00000000
0007E000000000
0007E000000000
0007E000000000
000FC000000000
000FC000000000
000FC000000000
001F8000000000
001F8000000000
00000000000000
00000000000000
00000000000000
00000000000000
00000000000000
00000000000000
00000000000000
00000000000000
ENDCHAR
STARTCHAR U+0036
ENCODING 54
SWIDTH 1000 0
DWIDTH 40 0
BBX 53 40 -6 -8
BITMAP
00000000000000
00000000000000
00000000000000
00000000000000
00000FFFFC0000
00000FFFFC0000
00001FFFF80000
00001FFFF80000
0001F800000000
0003F000000000
0003F000000000
0003F000000000
007E0000000000
007E0000000000
007E0000000000
00FC0000000000
00FCFFFFC00000
00FCFFFFC00000
01F9FFFF800000
01F9FFFF800000
01FF8001F80000
03FF0003F00000
03FF0003F00000
03FF0003F00000
07E00007E00000
07E00007E00000
07E00007E00000
0FC0000FC00000
00FFFFFC000000
00FFFFFC000000
01FFFFF8000000
01FFFFF8000000
00000000000000
00000000000000
00000000000000
00000000000000
00000000000000
00000000000000
00000000000000
00000000000000
ENDCHAR
STARTCHAR U+0035
ENCODING 53
SWIDTH 1000 0
DWIDTH 40 0
BBX 53 40 -6 -8
BITMAP
00000000000000
00000000000000
00000000000000
00000000000000
000FFFFFFFC000
000FFFFFFFC000
001FFFFFFF8000
001FFFFFFF8000
001F8000000000
003F0000000000
003F0000000000
003F0000000000
007E7FFFE00000
007E7FFFE00000
007E7FFFE00000
00FCFFFFC00000
00FFC000FC0000
00FFC000FC0000
01FF8001F80000
01FF8001F80000
00000001F80000
00000003F00000
00000003F00000
00000003F00000
07E00007E00000
07E00007E00000
07E00007E00000
0FC0000FC00000
00FFFFFC000000
00FFFFFC000000
01FFFFF8000000
01FFFFF8000000
00000000000000
00000000000000
00000000000000
00000000000000
00000000000000
00000000000000
00000000000000
00000000000000
ENDCHAR
STARTCHAR U+0034
ENCODING 52
SWIDTH 1000 0
DWIDTH 40 0
BBX 53 40 -6 -8
BITMAP
00000000000000
00000000000000
00000000000000
00000000000000
0000000FC00000
0000000FC00000
0000001F800000
0000001F800000
000001FF800000
000003FF000000
000003FF000000
000003FF000000
00007E7E000000
00007E7E000000
00007E7E000000
0000FCFC000000
000FC0FC000000
000FC0FC000000
001F81F8000000
001F81F8000000
01FFFFFFF80000
03FFFFFFF00000
03FFFFFFF00000
03FFFFFFF00000
000007E0000000
000007E0000000
000007E0000000
00000FC0000000
00000FC0000000
00000FC0000000
00001F80000000
00001F80000000
00000000000000
00000000000000
00000000000000
00000000000000
00000000000000
00000000000000
00000000000000
00000000000000
ENDCHAR
STARTCHAR U+0033
ENCODING 51
SWIDTH 1000 0
DWIDTH 40 0
BBX 53 40 -6 -8
BITMAP
00000000000000
00000000000000
00000000000000
00000000000000
000FFFFFFFC000
000FFFFFFFC000
001FFFFFFF8000
001FFFFFFF8000
00000001F80000
00000003F00000
00000003F00000
00000003F00000
0000007E000000
0000007E000000
0000007E000000
000000FC000000
00000FFFC00000
00000FFFC00000
00001FFF800000
00001FFF800000
00000001F80000
00000003F00000
00000003F00000
00000003F00000
07E00007E00000
07E00007E00000
07E00007E00000
0FC0000FC00000
00FFFFFC000000
00FFFFFC000000
01FFFFF8000000
01FFFFF8000000
00000000000000
00000000000000
00000000000000
00000000000000
00000000000000
00000000000000
00000000000000
00000000000000
ENDCHAR
STARTCHAR U+0032
ENCODING 50
SWIDTH 1000 0
DWIDTH 40 0
BBX 53 40 -6 -8
BITMAP
00000000000000
00000000000000
00000000000000
00000000000000
0000FFFFFC0000
0000FFFFFC0000
0001FFFFF80000
0001FFFFF80000
001F80001F8000
003F00003F0000
003F00003F0000
003F00003F0000
000000007E0000
000000007E0000
000000007E0000
00000000FC0000
00000FFFC00000
00000FFFC00000
00001FFF800000
00001FFF800000
001FF800000000
003FF000000000
003FF000000000
003FF000000000
07E00000000000
07E00000000000
07E00000000000
0FC00000000000
0FFFFFFFC00000
0FFFFFFFC00000
1FFFFFFF800000
1FFFFFFF800000
00000000000000
00000000000000
00000000000000
00000000000000
00000000000000
00000000000000
00000000000000
00000000000000
ENDCHAR
STARTCHAR U+0031
ENCODING 49
SWIDTH 1000 0
DWIDTH 40 0
BBX 53 40 -6 -8
BITMAP
00000000000000
00000000000000
00000000000000
00000000000000
000000FC000000
000000FC000000
000001F8000000
000001F8000000
00001FF8000000
00003FF0000000
00003FF0000000
00003FF0000000
0007E7E0000000
0007E7E0000000
0007E7E0000000
000FCFC0000000
00000FC0000000
00000FC0000000
00001F80000000
00001F80000000
00001F80000000
00003F00000000
00003F00000000
00003F00000000
00007E00000000
00007E00000000
00007E00000000
0000FC00000000
00FFFFFC000000
00FFFFFC000000
01FFFFF8000000
01FFFFF8000000
00000000000000
00000000000000
00000000000000
00000000000000
00000000000000
00000000000000
00000000000000
00000000000000
ENDCHAR
STARTCHAR U+0030
ENCODING 48
SWIDTH 1000 0
DWIDTH 40 0
BBX 53 40 -6 -8
BITMAP
00000000000000
00000000000000
00000000000000
00000000000000
00000FFFC00000
00000FFFC00000
00001FFF800000
00001FFF800000
0001F801F80000
0003F003F00000
0003F003F00000
0003F003F00000
007E00007E0000
007E00007E0000
007E00007E0000
00FC0000FC0000
00FC0000FC0000
00FC0000FC0000
01F80001F80000
01F80001F80000
01F80001F80000
03F00003F00000
03F00003F00000
03F00003F00000
007E007E000000
007E007E000000
007E007E000000
00FC00FC000000
000FFFC0000000
000FFFC0000000
001FFF80000000
001FFF80000000
00000000000000
00000000000000
00000000000000
00000000000000
00000000000000
00000000000000
00000000000000
00000000000000
ENDCHAR
STARTCHAR U+002F
ENCODING 47
SWIDTH 1000 0
DWIDTH 40 0
BBX 53 40 -6 -8
BITMAP
00000000000000
00000000000000
00000000000000
00000000000000
000000000FC000
000000000FC000
000000001F8000
000000001F8000
00000001F80000
00000003F00000
00000003F00000
00000003F00000
0000007E000000
0000007E000000
0000007E000000
000000FC000000
00000FC0000000
00000FC0000000
00001F80000000
00001F80000000
0001F800000000
0003F000000000
0003F000000000
0003F000000000
007E0000000000
007E0000000000
007E0000000000
00FC0000000000
0FC00000000000
0FC00000000000
1F800000000000
1F800000000000
00000000000000
00000000000000
00000000000000
00000000000000
00000000000000
00000000000000
00000000000000
00000000000000
ENDCHAR
STARTCHAR U+002E
ENCODING 46
SWIDTH 1000 0
DWIDTH 40 0
BBX 53 40 -6 -8
BITMAP
00000000000000
00000000000000
00000000000000
00000000000000
00000000000000
00000000000000
00000000000000
00000000000000
00000000000000
00000000000000
00000000000000
00000000000000
00000000000000
00000000000000
00000000000000
00000000000000
00000000000000
00000000000000
00000000000000
00000000000000
00000000000000
00000000000000
00000000000000
00000000000000
0007FE00000000
0007FE00000000
0007FE00000000
000FFC00000000
000FFC00000000
000FFC00000000
001FF800000000
001FF800000000
00000000000000
00000000000000
00000000000000
00000000000000
00000000000000
00000000000000
00000000000000
00000000000000
ENDCHAR
STARTCHAR U+002D
ENCODING 45
SWIDTH 1000 0
DWIDTH 40 0
BBX 53 40 -6 -8
BITMAP
00000000000000
00000000000000
00000000000000
00000000000000
00000000000000
00000000000000
00000000000000
00000000000000
00000000000000
00000000000000
00000000000000
00000000000000
00000000000000
00000000000000
00000000000000
00000000000000
00FFFFFFFC0000
00FFFFFFFC0000
01FFFFFFF80000
01FFFFFFF80000
00000000000000
00000000000000
00000000000000
00000000000000
00000000000000
00000000000000
00000000000000
00000000000000
00000000000000
00000000000000
00000000000000
00000000000000
00000000000000
00000000000000
00000000000000
00000000000000
00000000000000
00000000000000
00000000000000
00000000000000
ENDCHAR
STARTCHAR U+002C
ENCODING 44
SWIDTH 1000 0
DWIDTH 40 0
BBX 53 40 -6 -8
BITMAP
00000000000000
00000000000000
00000000000000
00000000000000
00000000000000
00000000000000
00000000000000
00000000000000
00000000000000
00000000000000
00000000000000
00000000000000
00000000000000
00000000000000
00000000000000
00000000000000
00000000000000
00000000000000
00000000000000
00000000000000
00000000000000
00000000000000
00000000000000
00000000000000
0007FE00000000
0007FE00000000
0007FE00000000
000FFC00000000
000FC000000000
000FC000000000
001F8000000000
001F8000000000
01F80000000000
03F00000000000
03F00000000000
03F00000000000
00000000000000
00000000000000
00000000000000
00000000000000
ENDCHAR
STARTCHAR U+002B
ENCODING 43
SWIDTH 1000 0
DWIDTH 40 0
BBX 53 40 -6 -8
BITMAP
00000000000000
00000000000000
00000000000000
00000000000000
00000000000000
00000000000000
00000000000000
00000000000000
000001F8000000
000003F0000000
000003F0000000
000003F0000000
000007E0000000
000007E0000000
000007E0000000
00000FC0000000
00FFFFFFFC0000
00FFFFFFFC0000
01FFFFFFF80000
01FFFFFFF80000
00001F80000000
00003F00000000
00003F00000000
00003F00000000
00007E00000000
00007E00000000
00007E00000000
0000FC00000000
00000000000000
00000000000000
00000000000000
00000000000000
00000000000000
00000000000000
00000000000000
00000000000000
00000000000000
00000000000000
00000000000000
00000000000000
ENDCHAR
STARTCHAR U+002A
ENCODING 42
SWIDTH 1000 0
DWIDTH 40 0
BBX 53 40 -6 -8
BITMAP
00000000000000
00000000000000
00000000000000
00000000000000
00000000000000
00000000000000
00000000000000
00000000000000
0001F801F80000
0003F003F00000
0003F003F00000
0003F003F00000
00007E7E000000
00007E7E000000
00007E7E000000
0000FCFC000000
00FFFFFFFC0000
00FFFFFFFC0000
01FFFFFFF80000
01FFFFFFF80000
0001F9F8000000
0003F3F0000000
0003F3F0000000
0003F3F0000000
007E007E000000
007E007E000000
007E007E000000
00FC00FC000000
00000000000000
00000000000000
00000000000000
00000000000000
00000000000000
00000000000000
00000000000000
00000000000000
00000000000000
00000000000000
00000000000000
00000000000000
ENDCHAR
STARTCHAR U+0029
ENCODING 41
SWIDTH 1000 0
DWIDTH 40 0
BBX 53 40 -6 -8
BITMAP
00000000000000
00000000000000
00000000000000
00000000000000
00000FC0000000
00000FC0000000
00001F80000000
00001F80000000
000001F8000000
000003F0000000
000003F0000000
000003F0000000
0000007E000000
0000007E000000
0000007E000000
000000FC000000
000000FC000000
000000FC000000
000001F8000000
000001F8000000
000001F8000000
000003F0000000
000003F0000000
000003F0000000
00007E00000000
00007E00000000
00007E00000000
0000FC00000000
000FC000000000
000FC000000000
001F8000000000
001F8000000000
00000000000000
00000000000000
00000000000000
00000000000000
00000000000000
00000000000000
00000000000000
00000000000000
ENDCHAR
STARTCHAR U+0028
ENCODING 40
SWIDTH 1000 0
DWIDTH 40 0
BBX 53 40 -6 -8
BITMAP
00000000000000
00000000000000
00000000000000
00000000000000
0000000FC00000
0000000FC00000
0000001F800000
0000001F800000
000001F8000000
000003F0000000
000003F0000000
000003F0000000
00007E00000000
00007E00000000
00007E00000000
0000FC00000000
0000FC00000000
0000FC00000000
0001F800000000
0001F800000000
0001F800000000
0003F000000000
0003F000000000
0003F000000000
00007E00000000
00007E00000000
00007E00000000
0000FC00000000
00000FC0000000
00000FC0000000
00001F80000000
00001F80000000
00000000000000
00000000000000
00000000000000
00000000000000
00000000000000
00000000000000
00000000000000
00000000000000
ENDCHAR
STARTCHAR U+0027
ENCODING 39
SWIDTH 1000 0
DWIDTH 40 0
BBX 53 40 -6 -8
BITMAP
00000000000000
00000000000000
00000000000000
00000000000000
000000FFC00000
000000FFC00000
000001FF800000
000001FF800000
000001F8000000
000003F0000000
000003F0000000
000003F0000000
00007E00000000
00007E00000000
00007E00000000
0000FC00000000
00000000000000
00000000000000
00000000000000
00000000000000
00000000000000
00000000000000
00000000000000
00000000000000
00000000000000
00000000000000
00000000000000
00000000000000
00000000000000
00000000000000
00000000000000
00000000000000
00000000000000
00000000000000
00000000000000
00000000000000
00000000000000
00000000000000
00000000000000
00000000000000
ENDCHAR
STARTCHAR U+0026
ENCODING 38
SWIDTH 1000 0
DWIDTH 40 0
BBX 53 40 -6 -8
BITMAP
00000000000000
00000000000000
00000000000000
00000000000000
0000FFFC000000
0000FFFC000000
0001FFF8000000
0001FFF8000000
001F801F800000
003F003F000000
003F003F000000
003F003F000000
007E007E000000
007E007E000000
007E007E000000
00FC00FC000000
000FFFC0000000
000FFFC0000000
001FFF80000000
001FFF80000000
01F801F9F80000
03F003F3F00000
03F003F3F00000
03F003F3F00000
07E0007E000000
07E0007E000000
07E0007E000000
0FC000FC000000
00FFFFCFC00000
00FFFFCFC00000
01FFFF9F800000
01FFFF9F800000
00000000000000
00000000000000
00000000000000
00000000000000
00000000000000
00000000000000
00000000000000
00000000000000
ENDCHAR
STARTCHAR U+0025
ENCODING 37
SWIDTH 1000 0
DWIDTH 40 0
BBX 53 40 -6 -8
BITMAP
00000000000000
00000000000000
00000000000000
00000000000000
0000FC000FC000
0000FC000FC000
0001F8001F8000
0001F8001F8000
001F9F81F80000
003F3F03F00000
003F3F03F00000
003F3F03F00000
0007E07E000000
0007E07E000000
0007E07E000000
000FC0FC000000
00000FC0000000
00000FC0000000
00001F80000000
00001F80000000
0001F81F800000
0003F03F000000
0003F03F000000
0003F03F000000
007E07E7E00000
007E07E7E00000
007E07E7E00000
00FC0FCFC00000
0FC000FC000000
0FC000FC000000
1F8001F8000000
1F8001F8000000
00000000000000
00000000000000
00000000000000
00000000000000
00000000000000
00000000000000
00000000000000
00000000000000
ENDCHAR
STARTCHAR U+0024
ENCODING 36
SWIDTH 1000 0
DWIDTH 40 0
BBX 53 40 -6 -8
BITMAP
00000000000000
00000000000000
00000000000000
00000000000000
000000FC000000
000000FC000000
000001F8000000
000001F8000000
0001FFFFF80000
0003FFFFF00000
0003FFFFF00000
0003FFFFF00000
007E07E0000000
007E07E0000000
007E07E0000000
00FC0FC0000000
000FFFFFC00000
000FFFFFC00000
001FFFFF800000
001FFFFF800000
00001F81F80000
00003F03F00000
00003F03F00000
00003F03F00000
007FFFFE000000
007FFFFE000000
007FFFFE000000
00FFFFFC000000
0000FC00000000
0000FC00000000
0001F800000000
0001F800000000
00000000000000
00000000000000
00000000000000
00000000000000
00000000000000
00000000000000
00000000000000
00000000000000
ENDCHAR
STARTCHAR U+0023
ENCODING 35
SWIDTH 1000 0
DWIDTH 40 0
BBX 53 40 -6 -8
BITMAP
00000000000000
00000000000000
00000000000000
00000000000000
0000FC0FC00000
0000FC0FC00000
0001F81F800000
0001F81F800000
0001F81F800000
0003F03F000000
0003F03F000000
0003F03F000000
007FFFFFE00000
007FFFFFE00000
007FFFFFE00000
00FFFFFFC00000
000FC0FC000000
000FC0FC000000
001F81F8000000
001F81F8000000
01FFFFFF800000
03FFFFFF000000
03FFFFFF000000
03FFFFFF000000
007E07E0000000
007E07E0000000
007E07E0000000
00FC0FC0000000
00FC0FC0000000
00FC0FC0000000
01F81F80000000
01F81F80000000
00000000000000
00000000000000
00000000000000
00000000000000
00000000000000
00000000000000
00000000000000
00000000000000
ENDCHAR
STARTCHAR U+0022
ENCODING 34
SWIDTH 1000 0
DWIDTH 40 0
BBX 53 40 -6 -8
BITMAP
00000000000000
00000000000000
00000000000000
00000000000000
0000FC0FC00000
0000FC0FC00000
0001F81F800000
0001F81F800000
0001F81F800000
0003F03F000000
0003F03F000000
0003F03F000000
0007E07E000000
0007E07E000000
0007E07E000000
000FC0FC000000
00000000000000
00000000000000
00000000000000
00000000000000
00000000000000
00000000000000
00000000000000
00000000000000
00000000000000
00000000000000
00000000000000
00000000000000
00000000000000
00000000000000
00000000000000
00000000000000
00000000000000
00000000000000
00000000000000
00000000000000
00000000000000
00000000000000
00000000000000
00000000000000
ENDCHAR
STARTCHAR U+0021
ENCODING 33
SWIDTH 1000 0
DWIDTH 40 0
BBX 53 40 -6 -8
BITMAP
00000000000000
00000000000000
00000000000000
00000000000000
000000FC000000
000000FC000000
000001F8000000
000001F8000000
000001F8000000
000003F0000000
000003F0000000
000003F0000000
000007E0000000
000007E0000000
000007E0000000
00000FC0000000
00000FC0000000
00000FC0000000
00001F80000000
00001F80000000
00001F80000000
00003F00000000
00003F00000000
00003F00000000
00000000000000
00000000000000
00000000000000
00000000000000
0000FC00000000
0000FC00000000
0001F800000000
0001F800000000
00000000000000
00000000000000
00000000000000
00000000000000
00000000000000
00000000000000
00000000000000
00000000000000
ENDCHAR
STARTCHAR U+2E2E
ENCODING 11822
SWIDTH 1000 0
DWIDTH 40 0
BBX 53 40 -6 -8
BITMAP
00000000000000
00000000000000
00000000000000
00000000000000
0000FFFFFC0000
0000FFFFFC0000
0001FFFFF80000
0001FFFFF80000
001F80001F8000
003F00003F0000
003F00003F0000
003F00003F0000
0007FE00000000
0007FE00000000
0007FE00000000
000FFC00000000
00000FC0000000
00000FC0000000
00001F80000000
00001F80000000
00001F80000000
00003F00000000
00003F00000000
00003F00000000
00000000000000
00000000000000
00000000000000
00000000000000
0000FC00000000
0000FC00000000
0001F800000000
0001F800000000
00000000000000
00000000000000
00000000000000
00000000000000
00000000000000
00000000000000
00000000000000
00000000000000
ENDCHAR
STARTCHAR U+00b7
ENCODING 183
SWIDTH 1000 0
DWIDTH 40 0
BBX 53 40 -6 -8
BITMAP
00000000000000
00000000000000
00000000000000
00000000000000
00000000000000
00000000000000
00000000000000
00000000000000
00000000000000
00000000000000
00000000000000
00000000000000
00000000000000
00000000000000
00000000000000
00000000000000
00000FC0000000
00000FC0000000
00001F80000000
00001F80000000
00000000000000
00000000000000
00000000000000
00000000000000
00000000000000
00000000000000
00000000000000
00000000000000
00000000000000
00000000000000
00000000000000
00000000000000
00000000000000
00000000000000
00000000000000
00000000000000
00000000000000
00000000000000
00000000000000
00000000000000
ENDCHAR
STARTCHAR U+00A3
ENCODING 163
SWIDTH 1000 0
DWIDTH 40 0
BBX 53 40 -6 -8
BITMAP
00000000000000
00000000000000
00000000000000
00000000000000
000000FFFC0000
000000FFFC0000
000001FFF80000
000001FFF80000
00001F801F8000
00003F003F0000
00003F003F0000
00003F003F0000
00007E00000000
00007E00000000
00007E00000000
0000FC00000000
00FFFFFC000000
00FFFFFC000000
01FFFFF8000000
01FFFFF8000000
0001F800000000
0003F000000000
0003F000000000
0003F000000000
007FFFE0000000
007FFFE0000000
007FFFE0000000
00FFFFC0000000
0FCFC0FFC00000
0FCFC0FFC00000
1F9F81FF800000
1F9F81FF800000
01F80000000000
03F00000000000
03F00000000000
03F00000000000
00000000000000
00000000000000
00000000000000
00000000000000
ENDCHAR
STARTCHAR U+2260
ENCODING 8800
SWIDTH 1000 0
DWIDTH 40 0
BBX 53 40 -6 -8
BITMAP
00000000000000
00000000000000
00000000000000
00000000000000
000000000FC000
000000000FC000
000000001F8000
000000001F8000
00000001F80000
00000003F00000
00000003F00000
00000003F00000
007FFFFFFE0000
007FFFFFFE0000
007FFFFFFE0000
00FFFFFFFC0000
00000FC0000000
00000FC0000000
00001F80000000
00001F80000000
01FFFFFFF80000
03FFFFFFF00000
03FFFFFFF00000
03FFFFFFF00000
007E0000000000
007E0000000000
007E0000000000
00FC0000000000
0FC00000000000
0FC00000000000
1F800000000000
1F800000000000
00000000000000
00000000000000
00000000000000
00000000000000
00000000000000
00000000000000
00000000000000
00000000000000
ENDCHAR
STARTCHAR U+03C0
ENCODING 960
SWIDTH 1000 0
DWIDTH 40 0
BBX 53 40 -6 -8
BITMAP
00000000000000
00000000000000
00000000000000
00000000000000
00000000000000
00000000000000
00000000000000
00000000000000
00000000000000
00000000000000
00000000000000
00000000000000
007FFFFFFE0000
007FFFFFFE0000
007FFFFFFE0000
00FFFFFFFC0000
0000FC0FC00000
0000FC0FC00000
0001F81F800000
0001F81F800000
0001F81F800000
0003F03F000000
0003F03F000000
0003F03F000000
0007E07E000000
0007E07E000000
0007E07E000000
000FC0FC000000
00FC00FC000000
00FC00FC000000
01F801F8000000
01F801F8000000
00000000000000
00000000000000
00000000000000
00000000000000
00000000000000
00000000000000
00000000000000
00000000000000
ENDCHAR
STARTCHAR U+2265
ENCODING 8805
SWIDTH 1000 0
DWIDTH 40 0
BBX 53 40 -6 -8
BITMAP
00000000000000
00000000000000
00000000000000
00000000000000
000FC000000000
000FC000000000
001F8000000000
001F8000000000
00001F80000000
00003F00000000
00003F00000000
00003F00000000
0000007E000000
0000007E000000
0000007E000000
000000FC000000
00000000FC0000
00000000FC0000
00000001F80000
00000001F80000
000001F8000000
000003F0000000
000003F0000000
000003F0000000
0007E000000000
0007E000000000
0007E000000000
000FC000000000
0FC00000000000
0FC00000000000
1F800000000000
1F800000000000
1FFFFFFF800000
3FFFFFFF000000
3FFFFFFF000000
3FFFFFFF000000
00000000000000
00000000000000
00000000000000
00000000000000
ENDCHAR
STARTCHAR U+2264
ENCODING 8804
SWIDTH 1000 0
DWIDTH 40 0
BBX 53 40 -6 -8
BITMAP
00000000000000
00000000000000
00000000000000
00000000000000
000000000FC000
000000000FC000
000000001F8000
000000001F8000
0000001F800000
0000003F000000
0000003F000000
0000003F000000
00007E00000000
00007E00000000
00007E00000000
0000FC00000000
00FC0000000000
00FC0000000000
01F80000000000
01F80000000000
0001F800000000
0003F000000000
0003F000000000
0003F000000000
000007E0000000
000007E0000000
000007E0000000
00000FC0000000
0000000FC00000
0000000FC00000
0000001F800000
0000001F800000
1FFFFFFF800000
3FFFFFFF000000
3FFFFFFF000000
3FFFFFFF000000
00000000000000
00000000000000
00000000000000
00000000000000
ENDCHAR
STARTCHAR U+2502
ENCODING 9474
SWIDTH 1000 0
DWIDTH 40 0
BBX 53 40 -6 -8
BITMAP
0000007E000000
0000007E000000
0000007E000000
000000FC000000
000000FC000000
000000FC000000
000001F8000000
000001F8000000
000001F8000000
000003F0000000
000003F0000000
000003F0000000
000007E0000000
000007E0000000
000007E0000000
00000FC0000000
00000FC0000000
00000FC0000000
00001F80000000
00001F80000000
00001F80000000
00003F00000000
00003F00000000
00003F00000000
00007E00000000
00007E00000000
00007E00000000
0000FC00000000
0000FC00000000
0000FC00000000
0001F800000000
0001F800000000
0001F800000000
0003F000000000
0003F000000000
0003F000000000
0007E000000000
0007E000000000
0007E000000000
000FC000000000
ENDCHAR
STARTCHAR U+252C
ENCODING 9516
SWIDTH 1000 0
DWIDTH 40 0
BBX 53 40 -6 -8
BITMAP
00000000000000
00000000000000
00000000000000
00000000000000
00000000000000
00000000000000
00000000000000
00000000000000
00000000000000
00000000000000
00000000000000
00000000000000
00000000000000
00000000000000
00000000000000
00000000000000
00FFFFFFFFFF00
00FFFFFFFFFF00
01FFFFFFFFFE00
01FFFFFFFFFE00
00001F80000000
00003F00000000
00003F00000000
00003F00000000
00007E00000000
00007E00000000
00007E00000000
0000FC00000000
0000FC00000000
0000FC00000000
0001F800000000
0001F800000000
0001F800000000
0003F000000000
0003F000000000
0003F000000000
0007E000000000
0007E000000000
0007E000000000
000FC000000000
ENDCHAR
STARTCHAR U+2534
ENCODING 9524
SWIDTH 1000 0
DWIDTH 40 0
BBX 53 40 -6 -8
BITMAP
0000007E000000
0000007E000000
0000007E000000
000000FC000000
000000FC000000
000000FC000000
000001F8000000
000001F8000000
000001F8000000
000003F0000000
000003F0000000
000003F0000000
000007E0000000
000007E0000000
000007E0000000
00000FC0000000
00FFFFFFFFFF00
00FFFFFFFFFF00
01FFFFFFFFFE00
01FFFFFFFFFE00
00000000000000
00000000000000
00000000000000
00000000000000
00000000000000
00000000000000
00000000000000
00000000000000
00000000000000
00000000000000
00000000000000
00000000000000
00000000000000
00000000000000
00000000000000
00000000000000
00000000000000
00000000000000
00000000000000
00000000000000
ENDCHAR
STARTCHAR U+2524
ENCODING 9508
SWIDTH 1000 0
DWIDTH 40 0
BBX 53 40 -6 -8
BITMAP
0000007E000000
0000007E000000
0000007E000000
000000FC000000
000000FC000000
000000FC000000
000001F8000000
000001F8000000
000001F8000000
000003F0000000
000003F0000000
000003F0000000
000007E0000000
000007E0000000
000007E0000000
00000FC0000000
00FFFFC0000000
00FFFFC0000000
01FFFF80000000
01FFFF80000000
00001F80000000
00003F00000000
00003F00000000
00003F00000000
00007E00000000
00007E00000000
00007E00000000
0000FC00000000
0000FC00000000
0000FC00000000
0001F800000000
0001F800000000
0001F800000000
0003F000000000
0003F000000000
0003F000000000
0007E000000000
0007E000000000
0007E000000000
000FC000000000
ENDCHAR
STARTCHAR U+251C
ENCODING 9500
SWIDTH 1000 0
DWIDTH 40 0
BBX 53 40 -6 -8
BITMAP
0000007E000000
0000007E000000
0000007E000000
000000FC000000
000000FC000000
000000FC000000
000001F8000000
000001F8000000
000001F8000000
000003F0000000
000003F0000000
000003F0000000
000007E0000000
000007E0000000
000007E0000000
00000FC0000000
00000FFFFFFF00
00000FFFFFFF00
00001FFFFFFE00
00001FFFFFFE00
00001F80000000
00003F00000000
00003F00000000
00003F00000000
00007E00000000
00007E00000000
00007E00000000
0000FC00000000
0000FC00000000
0000FC00000000
0001F800000000
0001F800000000
0001F800000000
0003F000000000
0003F000000000
0003F000000000
0007E000000000
0007E000000000
0007E000000000
000FC000000000
ENDCHAR
STARTCHAR U+23BD
ENCODING 9149
SWIDTH 1000 0
DWIDTH 40 0
BBX 53 40 -6 -8
BITMAP
00000000000000
00000000000000
00000000000000
00000000000000
00000000000000
00000000000000
00000000000000
00000000000000
00000000000000
00000000000000
00000000000000
00000000000000
00000000000000
00000000000000
00000000000000
00000000000000
00000000000000
00000000000000
00000000000000
00000000000000
00000000000000
00000000000000
00000000000000
00000000000000
00000000000000
00000000000000
00000000000000
00000000000000
00000000000000
00000000000000
00000000000000
00000000000000
1FFFFFFFFFE000
3FFFFFFFFFC000
3FFFFFFFFFC000
3FFFFFFFFFC000
00000000000000
00000000000000
00000000000000
00000000000000
ENDCHAR
STARTCHAR U+23BC
ENCODING 9148
SWIDTH 1000 0
DWIDTH 40 0
BBX 53 40 -6 -8
BITMAP
00000000000000
00000000000000
00000000000000
00000000000000
00000000000000
00000000000000
00000000000000
00000000000000
00000000000000
00000000000000
00000000000000
00000000000000
00000000000000
00000000000000
00000000000000
00000000000000
00000000000000
00000000000000
00000000000000
00000000000000
00000000000000
00000000000000
00000000000000
00000000000000
07FFFFFFFFF800
07FFFFFFFFF800
07FFFFFFFFF800
0FFFFFFFFFF000
00000000000000
00000000000000
00000000000000
00000000000000
00000000000000
00000000000000
00000000000000
00000000000000
00000000000000
00000000000000
00000000000000
00000000000000
ENDCHAR
STARTCHAR U+2500
ENCODING 9472
SWIDTH 1000 0
DWIDTH 40 0
BBX 53 40 -6 -8
BITMAP
00000000000000
00000000000000
00000000000000
00000000000000
00000000000000
00000000000000
00000000000000
00000000000000
00000000000000
00000000000000
00000000000000
00000000000000
00000000000000
00000000000000
00000000000000
00000000000000
00FFFFFFFFFF00
00FFFFFFFFFF00
01FFFFFFFFFE00
01FFFFFFFFFE00
00000000000000
00000000000000
00000000000000
00000000000000
00000000000000
00000000000000
00000000000000
00000000000000
00000000000000
00000000000000
00000000000000
00000000000000
00000000000000
00000000000000
00000000000000
00000000000000
00000000000000
00000000000000
00000000000000
00000000000000
ENDCHAR
STARTCHAR U+23BB
ENCODING 9147
SWIDTH 1000 0
DWIDTH 40 0
BBX 53 40 -6 -8
BITMAP
00000000000000
00000000000000
00000000000000
00000000000000
00000000000000
00000000000000
00000000000000
00000000000000
001FFFFFFFFFE0
003FFFFFFFFFC0
003FFFFFFFFFC0
003FFFFFFFFFC0
00000000000000
00000000000000
00000000000000
00000000000000
00000000000000
00000000000000
00000000000000
00000000000000
00000000000000
00000000000000
00000000000000
00000000000000
00000000000000
00000000000000
00000000000000
00000000000000
00000000000000
00000000000000
00000000000000
00000000000000
00000000000000
00000000000000
00000000000000
00000000000000
00000000000000
00000000000000
00000000000000
00000000000000
ENDCHAR
STARTCHAR U+23BA
ENCODING 9146
SWIDTH 1000 0
DWIDTH 40 0
BBX 53 40 -6 -8
BITMAP
0007FFFFFFFFF8
0007FFFFFFFFF8
0007FFFFFFFFF8
000FFFFFFFFFF0
00000000000000
00000000000000
00000000000000
00000000000000
00000000000000
00000000000000
00000000000000
00000000000000
00000000000000
00000000000000
00000000000000
00000000000000
00000000000000
00000000000000
00000000000000
00000000000000
00000000000000
00000000000000
00000000000000
00000000000000
00000000000000
00000000000000
00000000000000
00000000000000
00000000000000
00000000000000
00000000000000
00000000000000
00000000000000
00000000000000
00000000000000
00000000000000
00000000000000
00000000000000
00000000000000
00000000000000
ENDCHAR
STARTCHAR U+253C
ENCODING 9532
SWIDTH 1000 0
DWIDTH 40 0
BBX 53 40 -6 -8
BITMAP
0000007E000000
0000007E000000
0000007E000000
000000FC000000
000000FC000000
000000FC000000
000001F8000000
000001F8000000
000001F8000000
000003F0000000
000003F0000000
000003F0000000
000007E0000000
000007E0000000
000007E0000000
00000FC0000000
00FFFFFFFFFF00
00FFFFFFFFFF00
01FFFFFFFFFE00
01FFFFFFFFFE00
00001F80000000
00003F00000000
00003F00000000
00003F00000000
00007E00000000
00007E00000000
00007E00000000
0000FC00000000
0000FC00000000
0000FC00000000
0001F800000000
0001F800000000
0001F800000000
0003F000000000
0003F000000000
0003F000000000
0007E000000000
0007E000000000
0007E000000000
000FC000000000
ENDCHAR
STARTCHAR U+2514
ENCODING 9492
SWIDTH 1000 0
DWIDTH 40 0
BBX 53 40 -6 -8
BITMAP
0000007E000000
0000007E000000
0000007E000000
000000FC000000
000000FC000000
000000FC000000
000001F8000000
000001F8000000
000001F8000000
000003F0000000
000003F0000000
000003F0000000
000007E0000000
000007E0000000
000007E0000000
00000FC0000000
00000FFFFFFF00
00000FFFFFFF00
00001FFFFFFE00
00001FFFFFFE00
00000000000000
00000000000000
00000000000000
00000000000000
00000000000000
00000000000000
00000000000000
00000000000000
00000000000000
00000000000000
00000000000000
00000000000000
00000000000000
00000000000000
00000000000000
00000000000000
00000000000000
00000000000000
00000000000000
00000000000000
ENDCHAR
STARTCHAR U+250C
ENCODING 9484
SWIDTH 1000 0
DWIDTH 40 0
BBX 53 40 -6 -8
BITMAP
00000000000000
00000000000000
00000000000000
00000000000000
00000000000000
00000000000000
00000000000000
00000000000000
00000000000000
00000000000000
00000000000000
00000000000000
00000000000000
00000000000000
00000000000000
00000000000000
00000FFFFFFF00
00000FFFFFFF00
00001FFFFFFE00
00001FFFFFFE00
00001F80000000
00003F00000000
00003F00000000
00003F00000000
00007E00000000
00007E00000000
00007E00000000
0000FC00000000
0000FC00000000
0000FC00000000
0001F800000000
0001F800000000
0001F800000000
0003F000000000
0003F000000000
0003F000000000
0007E000000000
0007E000000000
0007E000000000
000FC000000000
ENDCHAR
STARTCHAR U+2510
ENCODING 9488
SWIDTH 1000 0
DWIDTH 40 0
BBX 53 40 -6 -8
BITMAP
00000000000000
00000000000000
00000000000000
00000000000000
00000000000000
00000000000000
00000000000000
00000000000000
00000000000000
00000000000000
00000000000000
00000000000000
00000000000000
00000000000000
00000000000000
00000000000000
00FFFFC0000000
00FFFFC0000000
01FFFF80000000
01FFFF80000000
00001F80000000
00003F00000000
00003F00000000
00003F00000000
00007E00000000
00007E00000000
00007E00000000
0000FC00000000
0000FC00000000
0000FC00000000
0001F800000000
0001F800000000
0001F800000000
0003F000000000
0003F000000000
0003F000000000
0007E000000000
0007E000000000
0007E000000000
000FC000000000
ENDCHAR
STARTCHAR U+2518
ENCODING 9496
SWIDTH 1000 0
DWIDTH 40 0
BBX 53 40 -6 -8
BITMAP
0000007E000000
0000007E000000
0000007E000000
000000FC000000
000000FC000000
000000FC000000
000001F8000000
000001F8000000
000001F8000000
000003F0000000
000003F0000000
000003F0000000
000007E0000000
000007E0000000
000007E0000000
00000FC0000000
00FFFFC0000000
00FFFFC0000000
01FFFF80000000
01FFFF80000000
00000000000000
00000000000000
00000000000000
00000000000000
00000000000000
00000000000000
00000000000000
00000000000000
00000000000000
00000000000000
00000000000000
00000000000000
00000000000000
00000000000000
00000000000000
00000000000000
00000000000000
00000000000000
00000000000000
00000000000000
ENDCHAR
STARTCHAR U+240B
ENCODING 9227
SWIDTH 1000 0
DWIDTH 40 0
BBX 53 40 -6 -8
BITMAP
00000000000000
00000000000000
00000000000000
00000000000000
000FC00FC00000
000FC00FC00000
001F801F800000
001F801F800000
001F801F800000
003F003F000000
003F003F000000
003F003F000000
0007E7E0000000
0007E7E0000000
0007E7E0000000
000FCFC0000000
000FCFC0000000
000FCFC0000000
001F9F80000000
001F9F80000000
0001FFFFF80000
0003FFFFF00000
0003FFFFF00000
0003FFFFF00000
000007E0000000
000007E0000000
000007E0000000
00000FC0000000
00000FC0000000
00000FC0000000
00001F80000000
00001F80000000
00001F80000000
00003F00000000
00003F00000000
00003F00000000
00007E00000000
00007E00000000
00007E00000000
0000FC00000000
ENDCHAR
STARTCHAR U+2424
ENCODING 9252
SWIDTH 1000 0
DWIDTH 40 0
BBX 53 40 -6 -8
BITMAP
00000000000000
00000000000000
00000000000000
00000000000000
000FC00FC00000
000FC00FC00000
001F801F800000
001F801F800000
001FF81F800000
003FF03F000000
003FF03F000000
003FF03F000000
007E7E7E000000
007E7E7E000000
007E7E7E000000
00FCFCFC000000
00FC0FFC000000
00FC0FFC000000
01F81FF8000000
01F81FF8000000
01F81FF8000000
03F03FF0000000
03F03FF0000000
03F03FF0000000
00007E00000000
00007E00000000
00007E00000000
0000FC00000000
0000FC00000000
0000FC00000000
0001F800000000
0001F800000000
0001F800000000
0003F000000000
0003F000000000
0003F000000000
0007FFFE000000
0007FFFE000000
0007FFFE000000
000FFFFC000000
ENDCHAR
STARTCHAR U+00B1
ENCODING 177
SWIDTH 1000 0
DWIDTH 40 0
BBX 53 40 -6 -8
BITMAP
00000000000000
00000000000000
00000000000000
00000000000000
00000000000000
00000000000000
00000000000000
00000000000000
000001F8000000
000003F0000000
000003F0000000
000003F0000000
000007E0000000
000007E0000000
000007E0000000
00000FC0000000
00FFFFFFFC0000
00FFFFFFFC0000
01FFFFFFF80000
01FFFFFFF80000
00001F80000000
00003F00000000
00003F00000000
00003F00000000
00007E00000000
00007E00000000
00007E00000000
0000FC00000000
0FFFFFFFC00000
0FFFFFFFC00000
1FFFFFFF800000
1FFFFFFF800000
00000000000000
00000000000000
00000000000000
00000000000000
00000000000000
00000000000000
00000000000000
00000000000000
ENDCHAR
STARTCHAR U+00B0
ENCODING 176
SWIDTH 1000 0
DWIDTH 40 0
BBX 53 40 -6 -8
BITMAP
00000000000000
00000000000000
00000000000000
00000000000000
00000FFFC00000
00000FFFC00000
00001FFF800000
00001FFF800000
0001F801F80000
0003F003F00000
0003F003F00000
0003F003F00000
00007FFE000000
00007FFE000000
00007FFE000000
0000FFFC000000
00000000000000
00000000000000
00000000000000
00000000000000
00000000000000
00000000000000
00000000000000
00000000000000
00000000000000
00000000000000
00000000000000
00000000000000
00000000000000
00000000000000
00000000000000
00000000000000
00000000000000
00000000000000
00000000000000
00000000000000
00000000000000
00000000000000
00000000000000
00000000000000
ENDCHAR
STARTCHAR U+240A
ENCODING 9226
SWIDTH 1000 0
DWIDTH 40 0
BBX 53 40 -6 -8
BITMAP
00000000000000
00000000000000
00000000000000
00000000000000
000FC000000000
000FC000000000
001F8000000000
001F8000000000
001F8000000000
003F0000000000
003F0000000000
003F0000000000
007E0000000000
007E0000000000
007E0000000000
00FC0000000000
00FC0000000000
00FC0000000000
01F80000000000
01F80000000000
01FFFFFFF80000
03FFFFFFF00000
03FFFFFFF00000
03FFFFFFF00000
00007E00000000
00007E00000000
00007E00000000
0000FC00000000
0000FFFC000000
0000FFFC000000
0001FFF8000000
0001FFF8000000
0001F800000000
0003F000000000
0003F000000000
0003F000000000
0007E000000000
0007E000000000
0007E000000000
000FC000000000
ENDCHAR
STARTCHAR U+240D
ENCODING 9229
SWIDTH 1000 0
DWIDTH 40 0
BBX 53 40 -6 -8
BITMAP
00000000000000
00000000000000
00000000000000
00000000000000
0000FFFC000000
0000FFFC000000
0001FFF8000000
0001FFF8000000
001F8000000000
003F0000000000
003F0000000000
003F0000000000
007E0000000000
007E0000000000
007E0000000000
00FC0000000000
00FC0000000000
00FC0000000000
01F80000000000
01F80000000000
001FFFFF800000
003FFFFF000000
003FFFFF000000
003FFFFF000000
00007E07E00000
00007E07E00000
00007E07E00000
0000FC0FC00000
0000FFFC000000
0000FFFC000000
0001FFF8000000
0001FFF8000000
0001F81F800000
0003F03F000000
0003F03F000000
0003F03F000000
0007E07E000000
0007E07E000000
0007E07E000000
000FC0FC000000
ENDCHAR
STARTCHAR U+240C
ENCODING 9228
SWIDTH 1000 0
DWIDTH 40 0
BBX 53 40 -6 -8
BITMAP
00000000000000
00000000000000
00000000000000
00000000000000
000FFFFC000000
000FFFFC000000
001FFFF8000000
001FFFF8000000
001F8000000000
003F0000000000
003F0000000000
003F0000000000
007FFE00000000
007FFE00000000
007FFE00000000
00FFFC00000000
00FC0000000000
00FC0000000000
01F80000000000
01F80000000000
01F81FFFF80000
03F03FFFF00000
03F03FFFF00000
03F03FFFF00000
00007E00000000
00007E00000000
00007E00000000
0000FC00000000
0000FFFC000000
0000FFFC000000
0001FFF8000000
0001FFF8000000
0001F800000000
0003F000000000
0003F000000000
0003F000000000
0007E000000000
0007E000000000
0007E000000000
000FC000000000
ENDCHAR
STARTCHAR U+2409
ENCODING 9225
SWIDTH 1000 0
DWIDTH 40 0
BBX 53 40 -6 -8
BITMAP
00000000000000
00000000000000
00000000000000
00000000000000
000FC0FC000000
000FC0FC000000
001F81F8000000
001F81F8000000
001F81F8000000
003F03F0000000
003F03F0000000
003F03F0000000
007FFFE0000000
007FFFE0000000
007FFFE0000000
00FFFFC0000000
00FC0FC0000000
00FC0FC0000000
01F81F80000000
01F81F80000000
01F9FFFFF80000
03F3FFFFF00000
03F3FFFFF00000
03F3FFFFF00000
000007E0000000
000007E0000000
000007E0000000
00000FC0000000
00000FC0000000
00000FC0000000
00001F80000000
00001F80000000
00001F80000000
00003F00000000
00003F00000000
00003F00000000
00007E00000000
00007E00000000
00007E00000000
0000FC00000000
ENDCHAR
STARTCHAR U+2592
ENCODING 9618
SWIDTH 1000 0
DWIDTH 40 0
BBX 53 40 -6 -8
BITMAP
00000000000000
00000000000000
00000000000000
00000000000000
000FC0FC0FC000
000FC0FC0FC000
001F81F81F8000
001F81F81F8000
0001F801F80000
0003F003F00000
0003F003F00000
0003F003F00000
007E07E07E0000
007E07E07E0000
007E07E07E0000
00FC0FC0FC0000
000FC00FC00000
000FC00FC00000
001F801F800000
001F801F800000
01F81F81F80000
03F03F03F00000
03F03F03F00000
03F03F03F00000
007E007E000000
007E007E000000
007E007E000000
00FC00FC000000
0FC0FC0FC00000
0FC0FC0FC00000
1F81F81F800000
1F81F81F800000
00000000000000
00000000000000
00000000000000
00000000000000
00000000000000
00000000000000
00000000000000
00000000000000
ENDCHAR
STARTCHAR U+25C6
ENCODING 9670
SWIDTH 1000 0
DWIDTH 40 0
BBX 53 40 -6 -8
BITMAP
00000000000000
00000000000000
00000000000000
00000000000000
000000FC000000
000000FC000000
000001F8000000
000001F8000000
00001FFF800000
00003FFF000000
00003FFF000000
00003FFF000000
0007FFFFE00000
0007FFFFE00000
0007FFFFE00000
000FFFFFC00000
00FFFFFFFC0000
00FFFFFFFC0000
01FFFFFFF80000
01FFFFFFF80000
001FFFFF800000
003FFFFF000000
003FFFFF000000
003FFFFF000000
0007FFE0000000
0007FFE0000000
0007FFE0000000
000FFFC0000000
0000FC00000000
0000FC00000000
0001F800000000
0001F800000000
00000000000000
00000000000000
00000000000000
00000000000000
00000000000000
00000000000000
00000000000000
00000000000000
ENDCHAR
STARTCHAR U+0020
ENCODING 32
SWIDTH 1000 0
DWIDTH 40 0
BBX 53 40 -6 -8
BITMAP
00000000000000
00000000000000
00000000000000
00000000000000
00000000000000
00000000000000
00000000000000
00000000000000
00000000000000
00000000000000
00000000000000
00000000000000
00000000000000
00000000000000
00000000000000
00000000000000
00000000000000
00000000000000
00000000000000
00000000000000
00000000000000
00000000000000
00000000000000
00000000000000
00000000000000
00000000000000
00000000000000
00000000000000
00000000000000
00000000000000
00000000000000
00000000000000
00000000000000
00000000000000
00000000000000
00000000000000
00000000000000
00000000000000
00000000000000
00000000000000
ENDCHAR
ENDFONT
